<?xml version="1.0" encoding="utf-8" standalone="no"?>
<!DOCTYPE svg PUBLIC "-//W3C//DTD SVG 1.1//EN"
  "http://www.w3.org/Graphics/SVG/1.1/DTD/svg11.dtd">
<svg xmlns:xlink="http://www.w3.org/1999/xlink" width="504pt" height="288pt" viewBox="0 0 504 288" xmlns="http://www.w3.org/2000/svg" version="1.1">
 <metadata>
  <rdf:RDF xmlns:dc="http://purl.org/dc/elements/1.1/" xmlns:cc="http://creativecommons.org/ns#" xmlns:rdf="http://www.w3.org/1999/02/22-rdf-syntax-ns#">
   <cc:Work>
    <dc:type rdf:resource="http://purl.org/dc/dcmitype/StillImage"/>
    <dc:date>2023-05-09T14:32:59.954956</dc:date>
    <dc:format>image/svg+xml</dc:format>
    <dc:creator>
     <cc:Agent>
      <dc:title>Matplotlib v3.5.3, https://matplotlib.org/</dc:title>
     </cc:Agent>
    </dc:creator>
   </cc:Work>
  </rdf:RDF>
 </metadata>
 <defs>
  <style type="text/css">*{stroke-linejoin: round; stroke-linecap: butt}</style>
 </defs>
 <g id="figure_1">
  <g id="patch_1">
   <path d="M 0 288 
L 504 288 
L 504 0 
L 0 0 
z
" style="fill: #ffffff"/>
  </g>
  <g id="axes_1">
   <g id="patch_2">
    <path d="M 15.12 259.2 
L 116.392898 259.2 
L 116.392898 28.8 
L 15.12 28.8 
z
" style="fill: #ffffff"/>
   </g>
   <g id="matplotlib.axis_1">
    <g id="xtick_1">
     <g id="line2d_1">
      <defs>
       <path id="m37203c545a" d="M 0 0 
L 0 1.5 
" style="stroke: #000000; stroke-width: 0.5"/>
      </defs>
      <g>
       <use xlink:href="#m37203c545a" x="96.391837" y="259.2" style="stroke: #000000; stroke-width: 0.5"/>
      </g>
     </g>
     <g id="text_1">
      <!-- 0.3 -->
      <g transform="translate(90.831837 269.92625)scale(0.08 -0.08)">
       <defs>
        <path id="ArialMT-30" d="M 266 2259 
Q 266 3072 433 3567 
Q 600 4063 929 4331 
Q 1259 4600 1759 4600 
Q 2128 4600 2406 4451 
Q 2684 4303 2865 4023 
Q 3047 3744 3150 3342 
Q 3253 2941 3253 2259 
Q 3253 1453 3087 958 
Q 2922 463 2592 192 
Q 2263 -78 1759 -78 
Q 1097 -78 719 397 
Q 266 969 266 2259 
z
M 844 2259 
Q 844 1131 1108 757 
Q 1372 384 1759 384 
Q 2147 384 2411 759 
Q 2675 1134 2675 2259 
Q 2675 3391 2411 3762 
Q 2147 4134 1753 4134 
Q 1366 4134 1134 3806 
Q 844 3388 844 2259 
z
" transform="scale(0.015625)"/>
        <path id="ArialMT-2e" d="M 581 0 
L 581 641 
L 1222 641 
L 1222 0 
L 581 0 
z
" transform="scale(0.015625)"/>
        <path id="ArialMT-33" d="M 269 1209 
L 831 1284 
Q 928 806 1161 595 
Q 1394 384 1728 384 
Q 2125 384 2398 659 
Q 2672 934 2672 1341 
Q 2672 1728 2419 1979 
Q 2166 2231 1775 2231 
Q 1616 2231 1378 2169 
L 1441 2663 
Q 1497 2656 1531 2656 
Q 1891 2656 2178 2843 
Q 2466 3031 2466 3422 
Q 2466 3731 2256 3934 
Q 2047 4138 1716 4138 
Q 1388 4138 1169 3931 
Q 950 3725 888 3313 
L 325 3413 
Q 428 3978 793 4289 
Q 1159 4600 1703 4600 
Q 2078 4600 2393 4439 
Q 2709 4278 2876 4000 
Q 3044 3722 3044 3409 
Q 3044 3113 2884 2869 
Q 2725 2625 2413 2481 
Q 2819 2388 3044 2092 
Q 3269 1797 3269 1353 
Q 3269 753 2831 336 
Q 2394 -81 1725 -81 
Q 1122 -81 723 278 
Q 325 638 269 1209 
z
" transform="scale(0.015625)"/>
       </defs>
       <use xlink:href="#ArialMT-30"/>
       <use xlink:href="#ArialMT-2e" x="55.615234"/>
       <use xlink:href="#ArialMT-33" x="83.398438"/>
      </g>
     </g>
    </g>
    <g id="xtick_2">
     <g id="line2d_2">
      <g>
       <use xlink:href="#m37203c545a" x="83.057797" y="259.2" style="stroke: #000000; stroke-width: 0.5"/>
      </g>
     </g>
     <g id="text_2">
      <!-- 0.5 -->
      <g transform="translate(77.497797 269.92625)scale(0.08 -0.08)">
       <defs>
        <path id="ArialMT-35" d="M 266 1200 
L 856 1250 
Q 922 819 1161 601 
Q 1400 384 1738 384 
Q 2144 384 2425 690 
Q 2706 997 2706 1503 
Q 2706 1984 2436 2262 
Q 2166 2541 1728 2541 
Q 1456 2541 1237 2417 
Q 1019 2294 894 2097 
L 366 2166 
L 809 4519 
L 3088 4519 
L 3088 3981 
L 1259 3981 
L 1013 2750 
Q 1425 3038 1878 3038 
Q 2478 3038 2890 2622 
Q 3303 2206 3303 1553 
Q 3303 931 2941 478 
Q 2500 -78 1738 -78 
Q 1113 -78 717 272 
Q 322 622 266 1200 
z
" transform="scale(0.015625)"/>
       </defs>
       <use xlink:href="#ArialMT-30"/>
       <use xlink:href="#ArialMT-2e" x="55.615234"/>
       <use xlink:href="#ArialMT-35" x="83.398438"/>
      </g>
     </g>
    </g>
    <g id="xtick_3">
     <g id="line2d_3">
      <g>
       <use xlink:href="#m37203c545a" x="56.389716" y="259.2" style="stroke: #000000; stroke-width: 0.5"/>
      </g>
     </g>
     <g id="text_3">
      <!-- 0.9 -->
      <g transform="translate(50.829716 269.92625)scale(0.08 -0.08)">
       <defs>
        <path id="ArialMT-39" d="M 350 1059 
L 891 1109 
Q 959 728 1153 556 
Q 1347 384 1650 384 
Q 1909 384 2104 503 
Q 2300 622 2425 820 
Q 2550 1019 2634 1356 
Q 2719 1694 2719 2044 
Q 2719 2081 2716 2156 
Q 2547 1888 2255 1720 
Q 1963 1553 1622 1553 
Q 1053 1553 659 1965 
Q 266 2378 266 3053 
Q 266 3750 677 4175 
Q 1088 4600 1706 4600 
Q 2153 4600 2523 4359 
Q 2894 4119 3086 3673 
Q 3278 3228 3278 2384 
Q 3278 1506 3087 986 
Q 2897 466 2520 194 
Q 2144 -78 1638 -78 
Q 1100 -78 759 220 
Q 419 519 350 1059 
z
M 2653 3081 
Q 2653 3566 2395 3850 
Q 2138 4134 1775 4134 
Q 1400 4134 1122 3828 
Q 844 3522 844 3034 
Q 844 2597 1108 2323 
Q 1372 2050 1759 2050 
Q 2150 2050 2401 2323 
Q 2653 2597 2653 3081 
z
" transform="scale(0.015625)"/>
       </defs>
       <use xlink:href="#ArialMT-30"/>
       <use xlink:href="#ArialMT-2e" x="55.615234"/>
       <use xlink:href="#ArialMT-39" x="83.398438"/>
      </g>
     </g>
    </g>
    <g id="xtick_4">
     <g id="line2d_4">
      <g>
       <use xlink:href="#m37203c545a" x="36.388655" y="259.2" style="stroke: #000000; stroke-width: 0.5"/>
      </g>
     </g>
     <g id="text_4">
      <!-- 1.2 -->
      <g transform="translate(30.828655 269.92625)scale(0.08 -0.08)">
       <defs>
        <path id="ArialMT-31" d="M 2384 0 
L 1822 0 
L 1822 3584 
Q 1619 3391 1289 3197 
Q 959 3003 697 2906 
L 697 3450 
Q 1169 3672 1522 3987 
Q 1875 4303 2022 4600 
L 2384 4600 
L 2384 0 
z
" transform="scale(0.015625)"/>
        <path id="ArialMT-32" d="M 3222 541 
L 3222 0 
L 194 0 
Q 188 203 259 391 
Q 375 700 629 1000 
Q 884 1300 1366 1694 
Q 2113 2306 2375 2664 
Q 2638 3022 2638 3341 
Q 2638 3675 2398 3904 
Q 2159 4134 1775 4134 
Q 1369 4134 1125 3890 
Q 881 3647 878 3216 
L 300 3275 
Q 359 3922 746 4261 
Q 1134 4600 1788 4600 
Q 2447 4600 2831 4234 
Q 3216 3869 3216 3328 
Q 3216 3053 3103 2787 
Q 2991 2522 2730 2228 
Q 2469 1934 1863 1422 
Q 1356 997 1212 845 
Q 1069 694 975 541 
L 3222 541 
z
" transform="scale(0.015625)"/>
       </defs>
       <use xlink:href="#ArialMT-31"/>
       <use xlink:href="#ArialMT-2e" x="55.615234"/>
       <use xlink:href="#ArialMT-32" x="83.398438"/>
      </g>
     </g>
    </g>
    <g id="xtick_5">
     <g id="line2d_5">
      <g>
       <use xlink:href="#m37203c545a" x="16.387595" y="259.2" style="stroke: #000000; stroke-width: 0.5"/>
      </g>
     </g>
     <g id="text_5">
      <!-- 1.5 -->
      <g transform="translate(10.827595 269.92625)scale(0.08 -0.08)">
       <use xlink:href="#ArialMT-31"/>
       <use xlink:href="#ArialMT-2e" x="55.615234"/>
       <use xlink:href="#ArialMT-35" x="83.398438"/>
      </g>
     </g>
    </g>
    <g id="text_6">
     <!-- Distance -->
     <g transform="translate(50.194574 281.2425)scale(0.08 -0.08)">
      <defs>
       <path id="ArialMT-44" d="M 494 0 
L 494 4581 
L 2072 4581 
Q 2606 4581 2888 4516 
Q 3281 4425 3559 4188 
Q 3922 3881 4101 3404 
Q 4281 2928 4281 2316 
Q 4281 1794 4159 1391 
Q 4038 988 3847 723 
Q 3656 459 3429 307 
Q 3203 156 2883 78 
Q 2563 0 2147 0 
L 494 0 
z
M 1100 541 
L 2078 541 
Q 2531 541 2789 625 
Q 3047 709 3200 863 
Q 3416 1078 3536 1442 
Q 3656 1806 3656 2325 
Q 3656 3044 3420 3430 
Q 3184 3816 2847 3947 
Q 2603 4041 2063 4041 
L 1100 4041 
L 1100 541 
z
" transform="scale(0.015625)"/>
       <path id="ArialMT-69" d="M 425 3934 
L 425 4581 
L 988 4581 
L 988 3934 
L 425 3934 
z
M 425 0 
L 425 3319 
L 988 3319 
L 988 0 
L 425 0 
z
" transform="scale(0.015625)"/>
       <path id="ArialMT-73" d="M 197 991 
L 753 1078 
Q 800 744 1014 566 
Q 1228 388 1613 388 
Q 2000 388 2187 545 
Q 2375 703 2375 916 
Q 2375 1106 2209 1216 
Q 2094 1291 1634 1406 
Q 1016 1563 777 1677 
Q 538 1791 414 1992 
Q 291 2194 291 2438 
Q 291 2659 392 2848 
Q 494 3038 669 3163 
Q 800 3259 1026 3326 
Q 1253 3394 1513 3394 
Q 1903 3394 2198 3281 
Q 2494 3169 2634 2976 
Q 2775 2784 2828 2463 
L 2278 2388 
Q 2241 2644 2061 2787 
Q 1881 2931 1553 2931 
Q 1166 2931 1000 2803 
Q 834 2675 834 2503 
Q 834 2394 903 2306 
Q 972 2216 1119 2156 
Q 1203 2125 1616 2013 
Q 2213 1853 2448 1751 
Q 2684 1650 2818 1456 
Q 2953 1263 2953 975 
Q 2953 694 2789 445 
Q 2625 197 2315 61 
Q 2006 -75 1616 -75 
Q 969 -75 630 194 
Q 291 463 197 991 
z
" transform="scale(0.015625)"/>
       <path id="ArialMT-74" d="M 1650 503 
L 1731 6 
Q 1494 -44 1306 -44 
Q 1000 -44 831 53 
Q 663 150 594 308 
Q 525 466 525 972 
L 525 2881 
L 113 2881 
L 113 3319 
L 525 3319 
L 525 4141 
L 1084 4478 
L 1084 3319 
L 1650 3319 
L 1650 2881 
L 1084 2881 
L 1084 941 
Q 1084 700 1114 631 
Q 1144 563 1211 522 
Q 1278 481 1403 481 
Q 1497 481 1650 503 
z
" transform="scale(0.015625)"/>
       <path id="ArialMT-61" d="M 2588 409 
Q 2275 144 1986 34 
Q 1697 -75 1366 -75 
Q 819 -75 525 192 
Q 231 459 231 875 
Q 231 1119 342 1320 
Q 453 1522 633 1644 
Q 813 1766 1038 1828 
Q 1203 1872 1538 1913 
Q 2219 1994 2541 2106 
Q 2544 2222 2544 2253 
Q 2544 2597 2384 2738 
Q 2169 2928 1744 2928 
Q 1347 2928 1158 2789 
Q 969 2650 878 2297 
L 328 2372 
Q 403 2725 575 2942 
Q 747 3159 1072 3276 
Q 1397 3394 1825 3394 
Q 2250 3394 2515 3294 
Q 2781 3194 2906 3042 
Q 3031 2891 3081 2659 
Q 3109 2516 3109 2141 
L 3109 1391 
Q 3109 606 3145 398 
Q 3181 191 3288 0 
L 2700 0 
Q 2613 175 2588 409 
z
M 2541 1666 
Q 2234 1541 1622 1453 
Q 1275 1403 1131 1340 
Q 988 1278 909 1158 
Q 831 1038 831 891 
Q 831 666 1001 516 
Q 1172 366 1500 366 
Q 1825 366 2078 508 
Q 2331 650 2450 897 
Q 2541 1088 2541 1459 
L 2541 1666 
z
" transform="scale(0.015625)"/>
       <path id="ArialMT-6e" d="M 422 0 
L 422 3319 
L 928 3319 
L 928 2847 
Q 1294 3394 1984 3394 
Q 2284 3394 2536 3286 
Q 2788 3178 2913 3003 
Q 3038 2828 3088 2588 
Q 3119 2431 3119 2041 
L 3119 0 
L 2556 0 
L 2556 2019 
Q 2556 2363 2490 2533 
Q 2425 2703 2258 2804 
Q 2091 2906 1866 2906 
Q 1506 2906 1245 2678 
Q 984 2450 984 1813 
L 984 0 
L 422 0 
z
" transform="scale(0.015625)"/>
       <path id="ArialMT-63" d="M 2588 1216 
L 3141 1144 
Q 3050 572 2676 248 
Q 2303 -75 1759 -75 
Q 1078 -75 664 370 
Q 250 816 250 1647 
Q 250 2184 428 2587 
Q 606 2991 970 3192 
Q 1334 3394 1763 3394 
Q 2303 3394 2647 3120 
Q 2991 2847 3088 2344 
L 2541 2259 
Q 2463 2594 2264 2762 
Q 2066 2931 1784 2931 
Q 1359 2931 1093 2626 
Q 828 2322 828 1663 
Q 828 994 1084 691 
Q 1341 388 1753 388 
Q 2084 388 2306 591 
Q 2528 794 2588 1216 
z
" transform="scale(0.015625)"/>
       <path id="ArialMT-65" d="M 2694 1069 
L 3275 997 
Q 3138 488 2766 206 
Q 2394 -75 1816 -75 
Q 1088 -75 661 373 
Q 234 822 234 1631 
Q 234 2469 665 2931 
Q 1097 3394 1784 3394 
Q 2450 3394 2872 2941 
Q 3294 2488 3294 1666 
Q 3294 1616 3291 1516 
L 816 1516 
Q 847 969 1125 678 
Q 1403 388 1819 388 
Q 2128 388 2347 550 
Q 2566 713 2694 1069 
z
M 847 1978 
L 2700 1978 
Q 2663 2397 2488 2606 
Q 2219 2931 1791 2931 
Q 1403 2931 1139 2672 
Q 875 2413 847 1978 
z
" transform="scale(0.015625)"/>
      </defs>
      <use xlink:href="#ArialMT-44"/>
      <use xlink:href="#ArialMT-69" x="72.216797"/>
      <use xlink:href="#ArialMT-73" x="94.433594"/>
      <use xlink:href="#ArialMT-74" x="144.433594"/>
      <use xlink:href="#ArialMT-61" x="172.216797"/>
      <use xlink:href="#ArialMT-6e" x="227.832031"/>
      <use xlink:href="#ArialMT-63" x="283.447266"/>
      <use xlink:href="#ArialMT-65" x="333.447266"/>
     </g>
    </g>
   </g>
   <g id="matplotlib.axis_2">
    <g id="text_7">
     <!-- Evolved Ligands from Final Populations -->
     <g transform="translate(9.43625 214.2575)rotate(-90)scale(0.08 -0.08)">
      <defs>
       <path id="ArialMT-45" d="M 506 0 
L 506 4581 
L 3819 4581 
L 3819 4041 
L 1113 4041 
L 1113 2638 
L 3647 2638 
L 3647 2100 
L 1113 2100 
L 1113 541 
L 3925 541 
L 3925 0 
L 506 0 
z
" transform="scale(0.015625)"/>
       <path id="ArialMT-76" d="M 1344 0 
L 81 3319 
L 675 3319 
L 1388 1331 
Q 1503 1009 1600 663 
Q 1675 925 1809 1294 
L 2547 3319 
L 3125 3319 
L 1869 0 
L 1344 0 
z
" transform="scale(0.015625)"/>
       <path id="ArialMT-6f" d="M 213 1659 
Q 213 2581 725 3025 
Q 1153 3394 1769 3394 
Q 2453 3394 2887 2945 
Q 3322 2497 3322 1706 
Q 3322 1066 3130 698 
Q 2938 331 2570 128 
Q 2203 -75 1769 -75 
Q 1072 -75 642 372 
Q 213 819 213 1659 
z
M 791 1659 
Q 791 1022 1069 705 
Q 1347 388 1769 388 
Q 2188 388 2466 706 
Q 2744 1025 2744 1678 
Q 2744 2294 2464 2611 
Q 2184 2928 1769 2928 
Q 1347 2928 1069 2612 
Q 791 2297 791 1659 
z
" transform="scale(0.015625)"/>
       <path id="ArialMT-6c" d="M 409 0 
L 409 4581 
L 972 4581 
L 972 0 
L 409 0 
z
" transform="scale(0.015625)"/>
       <path id="ArialMT-64" d="M 2575 0 
L 2575 419 
Q 2259 -75 1647 -75 
Q 1250 -75 917 144 
Q 584 363 401 755 
Q 219 1147 219 1656 
Q 219 2153 384 2558 
Q 550 2963 881 3178 
Q 1213 3394 1622 3394 
Q 1922 3394 2156 3267 
Q 2391 3141 2538 2938 
L 2538 4581 
L 3097 4581 
L 3097 0 
L 2575 0 
z
M 797 1656 
Q 797 1019 1065 703 
Q 1334 388 1700 388 
Q 2069 388 2326 689 
Q 2584 991 2584 1609 
Q 2584 2291 2321 2609 
Q 2059 2928 1675 2928 
Q 1300 2928 1048 2622 
Q 797 2316 797 1656 
z
" transform="scale(0.015625)"/>
       <path id="ArialMT-20" transform="scale(0.015625)"/>
       <path id="ArialMT-4c" d="M 469 0 
L 469 4581 
L 1075 4581 
L 1075 541 
L 3331 541 
L 3331 0 
L 469 0 
z
" transform="scale(0.015625)"/>
       <path id="ArialMT-67" d="M 319 -275 
L 866 -356 
Q 900 -609 1056 -725 
Q 1266 -881 1628 -881 
Q 2019 -881 2231 -725 
Q 2444 -569 2519 -288 
Q 2563 -116 2559 434 
Q 2191 0 1641 0 
Q 956 0 581 494 
Q 206 988 206 1678 
Q 206 2153 378 2554 
Q 550 2956 876 3175 
Q 1203 3394 1644 3394 
Q 2231 3394 2613 2919 
L 2613 3319 
L 3131 3319 
L 3131 450 
Q 3131 -325 2973 -648 
Q 2816 -972 2473 -1159 
Q 2131 -1347 1631 -1347 
Q 1038 -1347 672 -1080 
Q 306 -813 319 -275 
z
M 784 1719 
Q 784 1066 1043 766 
Q 1303 466 1694 466 
Q 2081 466 2343 764 
Q 2606 1063 2606 1700 
Q 2606 2309 2336 2618 
Q 2066 2928 1684 2928 
Q 1309 2928 1046 2623 
Q 784 2319 784 1719 
z
" transform="scale(0.015625)"/>
       <path id="ArialMT-66" d="M 556 0 
L 556 2881 
L 59 2881 
L 59 3319 
L 556 3319 
L 556 3672 
Q 556 4006 616 4169 
Q 697 4388 901 4523 
Q 1106 4659 1475 4659 
Q 1713 4659 2000 4603 
L 1916 4113 
Q 1741 4144 1584 4144 
Q 1328 4144 1222 4034 
Q 1116 3925 1116 3625 
L 1116 3319 
L 1763 3319 
L 1763 2881 
L 1116 2881 
L 1116 0 
L 556 0 
z
" transform="scale(0.015625)"/>
       <path id="ArialMT-72" d="M 416 0 
L 416 3319 
L 922 3319 
L 922 2816 
Q 1116 3169 1280 3281 
Q 1444 3394 1641 3394 
Q 1925 3394 2219 3213 
L 2025 2691 
Q 1819 2813 1613 2813 
Q 1428 2813 1281 2702 
Q 1134 2591 1072 2394 
Q 978 2094 978 1738 
L 978 0 
L 416 0 
z
" transform="scale(0.015625)"/>
       <path id="ArialMT-6d" d="M 422 0 
L 422 3319 
L 925 3319 
L 925 2853 
Q 1081 3097 1340 3245 
Q 1600 3394 1931 3394 
Q 2300 3394 2536 3241 
Q 2772 3088 2869 2813 
Q 3263 3394 3894 3394 
Q 4388 3394 4653 3120 
Q 4919 2847 4919 2278 
L 4919 0 
L 4359 0 
L 4359 2091 
Q 4359 2428 4304 2576 
Q 4250 2725 4106 2815 
Q 3963 2906 3769 2906 
Q 3419 2906 3187 2673 
Q 2956 2441 2956 1928 
L 2956 0 
L 2394 0 
L 2394 2156 
Q 2394 2531 2256 2718 
Q 2119 2906 1806 2906 
Q 1569 2906 1367 2781 
Q 1166 2656 1075 2415 
Q 984 2175 984 1722 
L 984 0 
L 422 0 
z
" transform="scale(0.015625)"/>
       <path id="ArialMT-46" d="M 525 0 
L 525 4581 
L 3616 4581 
L 3616 4041 
L 1131 4041 
L 1131 2622 
L 3281 2622 
L 3281 2081 
L 1131 2081 
L 1131 0 
L 525 0 
z
" transform="scale(0.015625)"/>
       <path id="ArialMT-50" d="M 494 0 
L 494 4581 
L 2222 4581 
Q 2678 4581 2919 4538 
Q 3256 4481 3484 4323 
Q 3713 4166 3852 3881 
Q 3991 3597 3991 3256 
Q 3991 2672 3619 2267 
Q 3247 1863 2275 1863 
L 1100 1863 
L 1100 0 
L 494 0 
z
M 1100 2403 
L 2284 2403 
Q 2872 2403 3119 2622 
Q 3366 2841 3366 3238 
Q 3366 3525 3220 3729 
Q 3075 3934 2838 4000 
Q 2684 4041 2272 4041 
L 1100 4041 
L 1100 2403 
z
" transform="scale(0.015625)"/>
       <path id="ArialMT-70" d="M 422 -1272 
L 422 3319 
L 934 3319 
L 934 2888 
Q 1116 3141 1344 3267 
Q 1572 3394 1897 3394 
Q 2322 3394 2647 3175 
Q 2972 2956 3137 2557 
Q 3303 2159 3303 1684 
Q 3303 1175 3120 767 
Q 2938 359 2589 142 
Q 2241 -75 1856 -75 
Q 1575 -75 1351 44 
Q 1128 163 984 344 
L 984 -1272 
L 422 -1272 
z
M 931 1641 
Q 931 1000 1190 694 
Q 1450 388 1819 388 
Q 2194 388 2461 705 
Q 2728 1022 2728 1688 
Q 2728 2322 2467 2637 
Q 2206 2953 1844 2953 
Q 1484 2953 1207 2617 
Q 931 2281 931 1641 
z
" transform="scale(0.015625)"/>
       <path id="ArialMT-75" d="M 2597 0 
L 2597 488 
Q 2209 -75 1544 -75 
Q 1250 -75 995 37 
Q 741 150 617 320 
Q 494 491 444 738 
Q 409 903 409 1263 
L 409 3319 
L 972 3319 
L 972 1478 
Q 972 1038 1006 884 
Q 1059 663 1231 536 
Q 1403 409 1656 409 
Q 1909 409 2131 539 
Q 2353 669 2445 892 
Q 2538 1116 2538 1541 
L 2538 3319 
L 3100 3319 
L 3100 0 
L 2597 0 
z
" transform="scale(0.015625)"/>
      </defs>
      <use xlink:href="#ArialMT-45"/>
      <use xlink:href="#ArialMT-76" x="66.699219"/>
      <use xlink:href="#ArialMT-6f" x="116.699219"/>
      <use xlink:href="#ArialMT-6c" x="172.314453"/>
      <use xlink:href="#ArialMT-76" x="194.53125"/>
      <use xlink:href="#ArialMT-65" x="244.53125"/>
      <use xlink:href="#ArialMT-64" x="300.146484"/>
      <use xlink:href="#ArialMT-20" x="355.761719"/>
      <use xlink:href="#ArialMT-4c" x="383.544922"/>
      <use xlink:href="#ArialMT-69" x="439.160156"/>
      <use xlink:href="#ArialMT-67" x="461.376953"/>
      <use xlink:href="#ArialMT-61" x="516.992188"/>
      <use xlink:href="#ArialMT-6e" x="572.607422"/>
      <use xlink:href="#ArialMT-64" x="628.222656"/>
      <use xlink:href="#ArialMT-73" x="683.837891"/>
      <use xlink:href="#ArialMT-20" x="733.837891"/>
      <use xlink:href="#ArialMT-66" x="761.621094"/>
      <use xlink:href="#ArialMT-72" x="789.404297"/>
      <use xlink:href="#ArialMT-6f" x="822.705078"/>
      <use xlink:href="#ArialMT-6d" x="878.320312"/>
      <use xlink:href="#ArialMT-20" x="961.621094"/>
      <use xlink:href="#ArialMT-46" x="989.404297"/>
      <use xlink:href="#ArialMT-69" x="1050.488281"/>
      <use xlink:href="#ArialMT-6e" x="1072.705078"/>
      <use xlink:href="#ArialMT-61" x="1128.320312"/>
      <use xlink:href="#ArialMT-6c" x="1183.935547"/>
      <use xlink:href="#ArialMT-20" x="1206.152344"/>
      <use xlink:href="#ArialMT-50" x="1233.935547"/>
      <use xlink:href="#ArialMT-6f" x="1300.634766"/>
      <use xlink:href="#ArialMT-70" x="1356.25"/>
      <use xlink:href="#ArialMT-75" x="1411.865234"/>
      <use xlink:href="#ArialMT-6c" x="1467.480469"/>
      <use xlink:href="#ArialMT-61" x="1489.697266"/>
      <use xlink:href="#ArialMT-74" x="1545.3125"/>
      <use xlink:href="#ArialMT-69" x="1573.095703"/>
      <use xlink:href="#ArialMT-6f" x="1595.3125"/>
      <use xlink:href="#ArialMT-6e" x="1650.927734"/>
      <use xlink:href="#ArialMT-73" x="1706.542969"/>
     </g>
    </g>
   </g>
   <g id="LineCollection_1">
    <path d="M 116.392898 258.123364 
L 114.078224 258.123364 
L 114.078224 255.970093 
L 116.392898 255.970093 
" clip-path="url(#pa401c07623)" style="fill: none; stroke: #ff7f0e"/>
    <path d="M 114.078224 257.046729 
L 101.415884 257.046729 
L 101.415884 253.816822 
L 116.392898 253.816822 
" clip-path="url(#pa401c07623)" style="fill: none; stroke: #ff7f0e"/>
    <path d="M 116.392898 251.663551 
L 101.693152 251.663551 
L 101.693152 249.51028 
L 116.392898 249.51028 
" clip-path="url(#pa401c07623)" style="fill: none; stroke: #ff7f0e"/>
    <path d="M 101.415884 255.431776 
L 100.253146 255.431776 
L 100.253146 250.586916 
L 101.693152 250.586916 
" clip-path="url(#pa401c07623)" style="fill: none; stroke: #ff7f0e"/>
    <path d="M 116.392898 247.357009 
L 105.228647 247.357009 
L 105.228647 245.203738 
L 116.392898 245.203738 
" clip-path="url(#pa401c07623)" style="fill: none; stroke: #ff7f0e"/>
    <path d="M 100.253146 253.009346 
L 91.750177 253.009346 
L 91.750177 246.280374 
L 105.228647 246.280374 
" clip-path="url(#pa401c07623)" style="fill: none; stroke: #ff7f0e"/>
    <path d="M 116.392898 243.050467 
L 113.417636 243.050467 
L 113.417636 240.897196 
L 116.392898 240.897196 
" clip-path="url(#pa401c07623)" style="fill: none; stroke: #ff7f0e"/>
    <path d="M 113.417636 241.973832 
L 107.860114 241.973832 
L 107.860114 238.743925 
L 116.392898 238.743925 
" clip-path="url(#pa401c07623)" style="fill: none; stroke: #ff7f0e"/>
    <path d="M 107.860114 240.358879 
L 104.738368 240.358879 
L 104.738368 236.590654 
L 116.392898 236.590654 
" clip-path="url(#pa401c07623)" style="fill: none; stroke: #ff7f0e"/>
    <path d="M 116.392898 234.437383 
L 114.027994 234.437383 
L 114.027994 232.284112 
L 116.392898 232.284112 
" clip-path="url(#pa401c07623)" style="fill: none; stroke: #ff7f0e"/>
    <path d="M 114.027994 233.360748 
L 110.967868 233.360748 
L 110.967868 230.130841 
L 116.392898 230.130841 
" clip-path="url(#pa401c07623)" style="fill: none; stroke: #ff7f0e"/>
    <path d="M 104.738368 238.474766 
L 104.496733 238.474766 
L 104.496733 231.745794 
L 110.967868 231.745794 
" clip-path="url(#pa401c07623)" style="fill: none; stroke: #ff7f0e"/>
    <path d="M 104.496733 235.11028 
L 97.548867 235.11028 
L 97.548867 227.97757 
L 116.392898 227.97757 
" clip-path="url(#pa401c07623)" style="fill: none; stroke: #ff7f0e"/>
    <path d="M 91.750177 249.64486 
L 90.716736 249.64486 
L 90.716736 231.543925 
L 97.548867 231.543925 
" clip-path="url(#pa401c07623)" style="fill: none; stroke: #ff7f0e"/>
   </g>
   <g id="LineCollection_2">
    <path d="M 116.392898 225.824299 
L 96.348408 225.824299 
L 96.348408 223.671028 
L 116.392898 223.671028 
" clip-path="url(#pa401c07623)" style="fill: none; stroke: #2ca02c"/>
   </g>
   <g id="LineCollection_3">
    <path d="M 116.392898 221.517757 
L 96.995048 221.517757 
L 96.995048 219.364486 
L 116.392898 219.364486 
" clip-path="url(#pa401c07623)" style="fill: none; stroke: #d62728"/>
   </g>
   <g id="LineCollection_4">
    <path d="M 116.392898 217.211215 
L 109.193291 217.211215 
L 109.193291 215.057944 
L 116.392898 215.057944 
" clip-path="url(#pa401c07623)" style="fill: none; stroke: #9467bd"/>
    <path d="M 109.193291 216.134579 
L 103.985957 216.134579 
L 103.985957 212.904673 
L 116.392898 212.904673 
" clip-path="url(#pa401c07623)" style="fill: none; stroke: #9467bd"/>
    <path d="M 116.392898 210.751402 
L 112.19122 210.751402 
L 112.19122 208.598131 
L 116.392898 208.598131 
" clip-path="url(#pa401c07623)" style="fill: none; stroke: #9467bd"/>
    <path d="M 112.19122 209.674766 
L 107.595449 209.674766 
L 107.595449 206.44486 
L 116.392898 206.44486 
" clip-path="url(#pa401c07623)" style="fill: none; stroke: #9467bd"/>
    <path d="M 103.985957 214.519626 
L 101.899202 214.519626 
L 101.899202 208.059813 
L 107.595449 208.059813 
" clip-path="url(#pa401c07623)" style="fill: none; stroke: #9467bd"/>
    <path d="M 101.899202 211.28972 
L 97.783771 211.28972 
L 97.783771 204.291589 
L 116.392898 204.291589 
" clip-path="url(#pa401c07623)" style="fill: none; stroke: #9467bd"/>
    <path d="M 116.392898 202.138318 
L 112.822536 202.138318 
L 112.822536 199.985047 
L 116.392898 199.985047 
" clip-path="url(#pa401c07623)" style="fill: none; stroke: #9467bd"/>
    <path d="M 97.783771 207.790654 
L 91.129075 207.790654 
L 91.129075 201.061682 
L 112.822536 201.061682 
" clip-path="url(#pa401c07623)" style="fill: none; stroke: #9467bd"/>
   </g>
   <g id="LineCollection_5">
    <path d="M 116.392898 197.831776 
L 96.341044 197.831776 
L 96.341044 195.678505 
L 116.392898 195.678505 
" clip-path="url(#pa401c07623)" style="fill: none; stroke: #8c564b"/>
   </g>
   <g id="LineCollection_6">
    <path d="M 116.392898 193.525234 
L 110.675316 193.525234 
L 110.675316 191.371963 
L 116.392898 191.371963 
" clip-path="url(#pa401c07623)" style="fill: none; stroke: #e377c2"/>
    <path d="M 116.392898 189.218692 
L 112.943714 189.218692 
L 112.943714 187.065421 
L 116.392898 187.065421 
" clip-path="url(#pa401c07623)" style="fill: none; stroke: #e377c2"/>
    <path d="M 110.675316 192.448598 
L 108.200192 192.448598 
L 108.200192 188.142056 
L 112.943714 188.142056 
" clip-path="url(#pa401c07623)" style="fill: none; stroke: #e377c2"/>
    <path d="M 116.392898 184.91215 
L 114.584757 184.91215 
L 114.584757 182.758879 
L 116.392898 182.758879 
" clip-path="url(#pa401c07623)" style="fill: none; stroke: #e377c2"/>
    <path d="M 114.584757 183.835514 
L 111.10855 183.835514 
L 111.10855 180.605607 
L 116.392898 180.605607 
" clip-path="url(#pa401c07623)" style="fill: none; stroke: #e377c2"/>
    <path d="M 111.10855 182.220561 
L 109.480205 182.220561 
L 109.480205 178.452336 
L 116.392898 178.452336 
" clip-path="url(#pa401c07623)" style="fill: none; stroke: #e377c2"/>
    <path d="M 108.200192 190.295327 
L 103.15878 190.295327 
L 103.15878 180.336449 
L 109.480205 180.336449 
" clip-path="url(#pa401c07623)" style="fill: none; stroke: #e377c2"/>
    <path d="M 116.392898 176.299065 
L 107.855607 176.299065 
L 107.855607 174.145794 
L 116.392898 174.145794 
" clip-path="url(#pa401c07623)" style="fill: none; stroke: #e377c2"/>
    <path d="M 107.855607 175.22243 
L 103.475906 175.22243 
L 103.475906 171.992523 
L 116.392898 171.992523 
" clip-path="url(#pa401c07623)" style="fill: none; stroke: #e377c2"/>
    <path d="M 103.15878 185.315888 
L 96.908762 185.315888 
L 96.908762 173.607477 
L 103.475906 173.607477 
" clip-path="url(#pa401c07623)" style="fill: none; stroke: #e377c2"/>
    <path d="M 116.392898 169.839252 
L 104.681152 169.839252 
L 104.681152 167.685981 
L 116.392898 167.685981 
" clip-path="url(#pa401c07623)" style="fill: none; stroke: #e377c2"/>
    <path d="M 104.681152 168.762617 
L 103.753892 168.762617 
L 103.753892 165.53271 
L 116.392898 165.53271 
" clip-path="url(#pa401c07623)" style="fill: none; stroke: #e377c2"/>
    <path d="M 96.908762 179.461682 
L 92.197249 179.461682 
L 92.197249 167.147664 
L 103.753892 167.147664 
" clip-path="url(#pa401c07623)" style="fill: none; stroke: #e377c2"/>
    <path d="M 116.392898 163.379439 
L 105.179718 163.379439 
L 105.179718 161.226168 
L 116.392898 161.226168 
" clip-path="url(#pa401c07623)" style="fill: none; stroke: #e377c2"/>
    <path d="M 105.179718 162.302804 
L 100.957228 162.302804 
L 100.957228 159.072897 
L 116.392898 159.072897 
" clip-path="url(#pa401c07623)" style="fill: none; stroke: #e377c2"/>
    <path d="M 92.197249 173.304673 
L 91.363604 173.304673 
L 91.363604 160.68785 
L 100.957228 160.68785 
" clip-path="url(#pa401c07623)" style="fill: none; stroke: #e377c2"/>
   </g>
   <g id="LineCollection_7">
    <path d="M 116.392898 156.919626 
L 116.392898 156.919626 
L 116.392898 154.766355 
L 116.392898 154.766355 
" clip-path="url(#pa401c07623)" style="fill: none; stroke: #7f7f7f"/>
    <path d="M 116.392898 155.842991 
L 113.099103 155.842991 
L 113.099103 152.613084 
L 116.392898 152.613084 
" clip-path="url(#pa401c07623)" style="fill: none; stroke: #7f7f7f"/>
    <path d="M 113.099103 154.228037 
L 99.38203 154.228037 
L 99.38203 150.459813 
L 116.392898 150.459813 
" clip-path="url(#pa401c07623)" style="fill: none; stroke: #7f7f7f"/>
    <path d="M 99.38203 152.343925 
L 94.087526 152.343925 
L 94.087526 148.306542 
L 116.392898 148.306542 
" clip-path="url(#pa401c07623)" style="fill: none; stroke: #7f7f7f"/>
   </g>
   <g id="LineCollection_8">
    <path d="M 116.392898 144 
L 102.204304 144 
L 102.204304 141.846729 
L 116.392898 141.846729 
" clip-path="url(#pa401c07623)" style="fill: none; stroke: #bcbd22"/>
    <path d="M 102.204304 142.923364 
L 93.973467 142.923364 
L 93.973467 139.693458 
L 116.392898 139.693458 
" clip-path="url(#pa401c07623)" style="fill: none; stroke: #bcbd22"/>
   </g>
   <g id="LineCollection_9">
    <path d="M 116.392898 137.540187 
L 108.190385 137.540187 
L 108.190385 135.386916 
L 116.392898 135.386916 
" clip-path="url(#pa401c07623)" style="fill: none; stroke: #17becf"/>
   </g>
   <g id="LineCollection_10">
    <path d="M 116.392898 133.233645 
L 115.909266 133.233645 
L 115.909266 131.080374 
L 116.392898 131.080374 
" clip-path="url(#pa401c07623)" style="fill: none; stroke: #a1c9f4"/>
    <path d="M 115.909266 132.157009 
L 113.866437 132.157009 
L 113.866437 128.927103 
L 116.392898 128.927103 
" clip-path="url(#pa401c07623)" style="fill: none; stroke: #a1c9f4"/>
    <path d="M 113.866437 130.542056 
L 111.767416 130.542056 
L 111.767416 126.773832 
L 116.392898 126.773832 
" clip-path="url(#pa401c07623)" style="fill: none; stroke: #a1c9f4"/>
    <path d="M 111.767416 128.657944 
L 109.118397 128.657944 
L 109.118397 124.620561 
L 116.392898 124.620561 
" clip-path="url(#pa401c07623)" style="fill: none; stroke: #a1c9f4"/>
    <path d="M 109.118397 126.639252 
L 105.773838 126.639252 
L 105.773838 122.46729 
L 116.392898 122.46729 
" clip-path="url(#pa401c07623)" style="fill: none; stroke: #a1c9f4"/>
    <path d="M 116.392898 120.314019 
L 113.101972 120.314019 
L 113.101972 118.160748 
L 116.392898 118.160748 
" clip-path="url(#pa401c07623)" style="fill: none; stroke: #a1c9f4"/>
    <path d="M 113.101972 119.237383 
L 111.006192 119.237383 
L 111.006192 116.007477 
L 116.392898 116.007477 
" clip-path="url(#pa401c07623)" style="fill: none; stroke: #a1c9f4"/>
    <path d="M 111.006192 117.62243 
L 108.489552 117.62243 
L 108.489552 113.854206 
L 116.392898 113.854206 
" clip-path="url(#pa401c07623)" style="fill: none; stroke: #a1c9f4"/>
    <path d="M 105.773838 124.553271 
L 101.534666 124.553271 
L 101.534666 115.738318 
L 108.489552 115.738318 
" clip-path="url(#pa401c07623)" style="fill: none; stroke: #a1c9f4"/>
    <path d="M 116.392898 111.700935 
L 113.264055 111.700935 
L 113.264055 109.547664 
L 116.392898 109.547664 
" clip-path="url(#pa401c07623)" style="fill: none; stroke: #a1c9f4"/>
    <path d="M 113.264055 110.624299 
L 111.165997 110.624299 
L 111.165997 107.394393 
L 116.392898 107.394393 
" clip-path="url(#pa401c07623)" style="fill: none; stroke: #a1c9f4"/>
    <path d="M 111.165997 109.009346 
L 107.739604 109.009346 
L 107.739604 105.241121 
L 116.392898 105.241121 
" clip-path="url(#pa401c07623)" style="fill: none; stroke: #a1c9f4"/>
    <path d="M 116.392898 103.08785 
L 111.656216 103.08785 
L 111.656216 100.934579 
L 116.392898 100.934579 
" clip-path="url(#pa401c07623)" style="fill: none; stroke: #a1c9f4"/>
    <path d="M 107.739604 107.125234 
L 103.387697 107.125234 
L 103.387697 102.011215 
L 111.656216 102.011215 
" clip-path="url(#pa401c07623)" style="fill: none; stroke: #a1c9f4"/>
    <path d="M 101.534666 120.145794 
L 98.151242 120.145794 
L 98.151242 104.568224 
L 103.387697 104.568224 
" clip-path="url(#pa401c07623)" style="fill: none; stroke: #a1c9f4"/>
    <path d="M 98.151242 112.357009 
L 93.860772 112.357009 
L 93.860772 98.781308 
L 116.392898 98.781308 
" clip-path="url(#pa401c07623)" style="fill: none; stroke: #a1c9f4"/>
    <path d="M 116.392898 96.628037 
L 107.143451 96.628037 
L 107.143451 94.474766 
L 116.392898 94.474766 
" clip-path="url(#pa401c07623)" style="fill: none; stroke: #a1c9f4"/>
    <path d="M 116.392898 92.321495 
L 115.917467 92.321495 
L 115.917467 90.168224 
L 116.392898 90.168224 
" clip-path="url(#pa401c07623)" style="fill: none; stroke: #a1c9f4"/>
    <path d="M 115.917467 91.24486 
L 114.74973 91.24486 
L 114.74973 88.014953 
L 116.392898 88.014953 
" clip-path="url(#pa401c07623)" style="fill: none; stroke: #a1c9f4"/>
    <path d="M 114.74973 89.629907 
L 114.313192 89.629907 
L 114.313192 85.861682 
L 116.392898 85.861682 
" clip-path="url(#pa401c07623)" style="fill: none; stroke: #a1c9f4"/>
    <path d="M 114.313192 87.745794 
L 111.845865 87.745794 
L 111.845865 83.708411 
L 116.392898 83.708411 
" clip-path="url(#pa401c07623)" style="fill: none; stroke: #a1c9f4"/>
    <path d="M 111.845865 85.727103 
L 109.709417 85.727103 
L 109.709417 81.55514 
L 116.392898 81.55514 
" clip-path="url(#pa401c07623)" style="fill: none; stroke: #a1c9f4"/>
    <path d="M 107.143451 95.551402 
L 104.435364 95.551402 
L 104.435364 83.641121 
L 109.709417 83.641121 
" clip-path="url(#pa401c07623)" style="fill: none; stroke: #a1c9f4"/>
    <path d="M 104.435364 89.596262 
L 99.715433 89.596262 
L 99.715433 79.401869 
L 116.392898 79.401869 
" clip-path="url(#pa401c07623)" style="fill: none; stroke: #a1c9f4"/>
    <path d="M 116.392898 77.248598 
L 114.664367 77.248598 
L 114.664367 75.095327 
L 116.392898 75.095327 
" clip-path="url(#pa401c07623)" style="fill: none; stroke: #a1c9f4"/>
    <path d="M 114.664367 76.171963 
L 102.328845 76.171963 
L 102.328845 72.942056 
L 116.392898 72.942056 
" clip-path="url(#pa401c07623)" style="fill: none; stroke: #a1c9f4"/>
    <path d="M 99.715433 84.499065 
L 98.136815 84.499065 
L 98.136815 74.557009 
L 102.328845 74.557009 
" clip-path="url(#pa401c07623)" style="fill: none; stroke: #a1c9f4"/>
    <path d="M 116.392898 70.788785 
L 114.767919 70.788785 
L 114.767919 68.635514 
L 116.392898 68.635514 
" clip-path="url(#pa401c07623)" style="fill: none; stroke: #a1c9f4"/>
    <path d="M 114.767919 69.71215 
L 103.476726 69.71215 
L 103.476726 66.482243 
L 116.392898 66.482243 
" clip-path="url(#pa401c07623)" style="fill: none; stroke: #a1c9f4"/>
    <path d="M 116.392898 64.328972 
L 103.997436 64.328972 
L 103.997436 62.175701 
L 116.392898 62.175701 
" clip-path="url(#pa401c07623)" style="fill: none; stroke: #a1c9f4"/>
    <path d="M 103.476726 68.097196 
L 99.677944 68.097196 
L 99.677944 63.252336 
L 103.997436 63.252336 
" clip-path="url(#pa401c07623)" style="fill: none; stroke: #a1c9f4"/>
    <path d="M 98.136815 79.528037 
L 95.890107 79.528037 
L 95.890107 65.674766 
L 99.677944 65.674766 
" clip-path="url(#pa401c07623)" style="fill: none; stroke: #a1c9f4"/>
    <path d="M 93.860772 105.569159 
L 90.2182 105.569159 
L 90.2182 72.601402 
L 95.890107 72.601402 
" clip-path="url(#pa401c07623)" style="fill: none; stroke: #a1c9f4"/>
   </g>
   <g id="LineCollection_11">
    <path d="M 116.392898 60.02243 
L 114.416753 60.02243 
L 114.416753 57.869159 
L 116.392898 57.869159 
" clip-path="url(#pa401c07623)" style="fill: none; stroke: #ffb482"/>
    <path d="M 116.392898 55.715888 
L 115.145038 55.715888 
L 115.145038 53.562617 
L 116.392898 53.562617 
" clip-path="url(#pa401c07623)" style="fill: none; stroke: #ffb482"/>
    <path d="M 114.416753 58.945794 
L 110.190271 58.945794 
L 110.190271 54.639252 
L 115.145038 54.639252 
" clip-path="url(#pa401c07623)" style="fill: none; stroke: #ffb482"/>
   </g>
   <g id="LineCollection_12">
    <path d="M 116.392898 51.409346 
L 103.850078 51.409346 
L 103.850078 49.256075 
L 116.392898 49.256075 
" clip-path="url(#pa401c07623)" style="fill: none; stroke: #8de5a1"/>
   </g>
   <g id="LineCollection_13">
    <path d="M 116.392898 47.102804 
L 114.774579 47.102804 
L 114.774579 44.949533 
L 116.392898 44.949533 
" clip-path="url(#pa401c07623)" style="fill: none; stroke: #ff9f9b"/>
    <path d="M 114.774579 46.026168 
L 103.317777 46.026168 
L 103.317777 42.796262 
L 116.392898 42.796262 
" clip-path="url(#pa401c07623)" style="fill: none; stroke: #ff9f9b"/>
    <path d="M 103.317777 44.411215 
L 91.318817 44.411215 
L 91.318817 40.642991 
L 116.392898 40.642991 
" clip-path="url(#pa401c07623)" style="fill: none; stroke: #ff9f9b"/>
   </g>
   <g id="LineCollection_14">
    <path d="M 116.392898 38.48972 
L 105.323118 38.48972 
L 105.323118 36.336449 
L 116.392898 36.336449 
" clip-path="url(#pa401c07623)" style="fill: none; stroke: #d0bbff"/>
    <path d="M 105.323118 37.413084 
L 92.949244 37.413084 
L 92.949244 34.183178 
L 116.392898 34.183178 
" clip-path="url(#pa401c07623)" style="fill: none; stroke: #d0bbff"/>
   </g>
   <g id="LineCollection_15">
    <path d="M 90.716736 240.594393 
L 86.809993 240.594393 
L 86.809993 224.747664 
L 96.348408 224.747664 
" clip-path="url(#pa401c07623)" style="fill: none; stroke: #1f77b4"/>
    <path d="M 86.809993 232.671028 
L 84.562527 232.671028 
L 84.562527 220.441121 
L 96.995048 220.441121 
" clip-path="url(#pa401c07623)" style="fill: none; stroke: #1f77b4"/>
    <path d="M 84.562527 226.556075 
L 80.425485 226.556075 
L 80.425485 204.426168 
L 91.129075 204.426168 
" clip-path="url(#pa401c07623)" style="fill: none; stroke: #1f77b4"/>
    <path d="M 80.425485 215.491121 
L 72.440516 215.491121 
L 72.440516 196.75514 
L 96.341044 196.75514 
" clip-path="url(#pa401c07623)" style="fill: none; stroke: #1f77b4"/>
    <path d="M 72.440516 206.123131 
L 65.624951 206.123131 
L 65.624951 166.996262 
L 91.363604 166.996262 
" clip-path="url(#pa401c07623)" style="fill: none; stroke: #1f77b4"/>
    <path d="M 94.087526 150.325234 
L 87.282831 150.325234 
L 87.282831 146.153271 
L 116.392898 146.153271 
" clip-path="url(#pa401c07623)" style="fill: none; stroke: #1f77b4"/>
    <path d="M 87.282831 148.239252 
L 82.651147 148.239252 
L 82.651147 141.308411 
L 93.973467 141.308411 
" clip-path="url(#pa401c07623)" style="fill: none; stroke: #1f77b4"/>
    <path d="M 82.651147 144.773832 
L 70.779403 144.773832 
L 70.779403 136.463551 
L 108.190385 136.463551 
" clip-path="url(#pa401c07623)" style="fill: none; stroke: #1f77b4"/>
    <path d="M 90.2182 89.08528 
L 87.843481 89.08528 
L 87.843481 56.792523 
L 110.190271 56.792523 
" clip-path="url(#pa401c07623)" style="fill: none; stroke: #1f77b4"/>
    <path d="M 87.843481 72.938902 
L 82.592676 72.938902 
L 82.592676 50.33271 
L 103.850078 50.33271 
" clip-path="url(#pa401c07623)" style="fill: none; stroke: #1f77b4"/>
    <path d="M 82.592676 61.635806 
L 80.444134 61.635806 
L 80.444134 42.527103 
L 91.318817 42.527103 
" clip-path="url(#pa401c07623)" style="fill: none; stroke: #1f77b4"/>
    <path d="M 80.444134 52.081454 
L 75.980121 52.081454 
L 75.980121 35.798131 
L 92.949244 35.798131 
" clip-path="url(#pa401c07623)" style="fill: none; stroke: #1f77b4"/>
    <path d="M 70.779403 140.618692 
L 66.318876 140.618692 
L 66.318876 43.939793 
L 75.980121 43.939793 
" clip-path="url(#pa401c07623)" style="fill: none; stroke: #1f77b4"/>
    <path d="M 65.624951 186.559696 
L 48.963492 186.559696 
L 48.963492 92.279242 
L 66.318876 92.279242 
" clip-path="url(#pa401c07623)" style="fill: none; stroke: #1f77b4"/>
    <path d="M 116.392898 32.029907 
L 55.958622 32.029907 
L 55.958622 29.876636 
L 116.392898 29.876636 
" clip-path="url(#pa401c07623)" style="fill: none; stroke: #1f77b4"/>
    <path d="M 48.963492 139.419469 
L 19.942519 139.419469 
L 19.942519 30.953271 
L 55.958622 30.953271 
" clip-path="url(#pa401c07623)" style="fill: none; stroke: #1f77b4"/>
   </g>
   <g id="patch_3">
    <path d="M 15.12 259.2 
L 15.12 28.8 
" style="fill: none; stroke: #000000; stroke-width: 0.5; stroke-linejoin: miter; stroke-linecap: square"/>
   </g>
   <g id="patch_4">
    <path d="M 116.392898 259.2 
L 116.392898 28.8 
" style="fill: none; stroke: #000000; stroke-width: 0.5; stroke-linejoin: miter; stroke-linecap: square"/>
   </g>
   <g id="patch_5">
    <path d="M 15.12 259.2 
L 116.392898 259.2 
" style="fill: none; stroke: #000000; stroke-width: 0.5; stroke-linejoin: miter; stroke-linecap: square"/>
   </g>
   <g id="patch_6">
    <path d="M 15.12 28.8 
L 116.392898 28.8 
" style="fill: none; stroke: #000000; stroke-width: 0.5; stroke-linejoin: miter; stroke-linecap: square"/>
   </g>
   <g id="text_8">
    <!-- Similarity-Based -->
    <g transform="translate(36.860824 14.12775)scale(0.08 -0.08)">
     <defs>
      <path id="ArialMT-53" d="M 288 1472 
L 859 1522 
Q 900 1178 1048 958 
Q 1197 738 1509 602 
Q 1822 466 2213 466 
Q 2559 466 2825 569 
Q 3091 672 3220 851 
Q 3350 1031 3350 1244 
Q 3350 1459 3225 1620 
Q 3100 1781 2813 1891 
Q 2628 1963 1997 2114 
Q 1366 2266 1113 2400 
Q 784 2572 623 2826 
Q 463 3081 463 3397 
Q 463 3744 659 4045 
Q 856 4347 1234 4503 
Q 1613 4659 2075 4659 
Q 2584 4659 2973 4495 
Q 3363 4331 3572 4012 
Q 3781 3694 3797 3291 
L 3216 3247 
Q 3169 3681 2898 3903 
Q 2628 4125 2100 4125 
Q 1550 4125 1298 3923 
Q 1047 3722 1047 3438 
Q 1047 3191 1225 3031 
Q 1400 2872 2139 2705 
Q 2878 2538 3153 2413 
Q 3553 2228 3743 1945 
Q 3934 1663 3934 1294 
Q 3934 928 3725 604 
Q 3516 281 3123 101 
Q 2731 -78 2241 -78 
Q 1619 -78 1198 103 
Q 778 284 539 648 
Q 300 1013 288 1472 
z
" transform="scale(0.015625)"/>
      <path id="ArialMT-79" d="M 397 -1278 
L 334 -750 
Q 519 -800 656 -800 
Q 844 -800 956 -737 
Q 1069 -675 1141 -563 
Q 1194 -478 1313 -144 
Q 1328 -97 1363 -6 
L 103 3319 
L 709 3319 
L 1400 1397 
Q 1534 1031 1641 628 
Q 1738 1016 1872 1384 
L 2581 3319 
L 3144 3319 
L 1881 -56 
Q 1678 -603 1566 -809 
Q 1416 -1088 1222 -1217 
Q 1028 -1347 759 -1347 
Q 597 -1347 397 -1278 
z
" transform="scale(0.015625)"/>
      <path id="ArialMT-2d" d="M 203 1375 
L 203 1941 
L 1931 1941 
L 1931 1375 
L 203 1375 
z
" transform="scale(0.015625)"/>
      <path id="ArialMT-42" d="M 469 0 
L 469 4581 
L 2188 4581 
Q 2713 4581 3030 4442 
Q 3347 4303 3526 4014 
Q 3706 3725 3706 3409 
Q 3706 3116 3547 2856 
Q 3388 2597 3066 2438 
Q 3481 2316 3704 2022 
Q 3928 1728 3928 1328 
Q 3928 1006 3792 729 
Q 3656 453 3456 303 
Q 3256 153 2954 76 
Q 2653 0 2216 0 
L 469 0 
z
M 1075 2656 
L 2066 2656 
Q 2469 2656 2644 2709 
Q 2875 2778 2992 2937 
Q 3109 3097 3109 3338 
Q 3109 3566 3000 3739 
Q 2891 3913 2687 3977 
Q 2484 4041 1991 4041 
L 1075 4041 
L 1075 2656 
z
M 1075 541 
L 2216 541 
Q 2509 541 2628 563 
Q 2838 600 2978 687 
Q 3119 775 3209 942 
Q 3300 1109 3300 1328 
Q 3300 1584 3169 1773 
Q 3038 1963 2805 2039 
Q 2572 2116 2134 2116 
L 1075 2116 
L 1075 541 
z
" transform="scale(0.015625)"/>
     </defs>
     <use xlink:href="#ArialMT-53"/>
     <use xlink:href="#ArialMT-69" x="66.699219"/>
     <use xlink:href="#ArialMT-6d" x="88.916016"/>
     <use xlink:href="#ArialMT-69" x="172.216797"/>
     <use xlink:href="#ArialMT-6c" x="194.433594"/>
     <use xlink:href="#ArialMT-61" x="216.650391"/>
     <use xlink:href="#ArialMT-72" x="272.265625"/>
     <use xlink:href="#ArialMT-69" x="305.566406"/>
     <use xlink:href="#ArialMT-74" x="327.783203"/>
     <use xlink:href="#ArialMT-79" x="355.566406"/>
     <use xlink:href="#ArialMT-2d" x="405.566406"/>
     <use xlink:href="#ArialMT-42" x="438.867188"/>
     <use xlink:href="#ArialMT-61" x="505.566406"/>
     <use xlink:href="#ArialMT-73" x="561.181641"/>
     <use xlink:href="#ArialMT-65" x="611.181641"/>
     <use xlink:href="#ArialMT-64" x="666.796875"/>
    </g>
    <!-- Clustering -->
    <g transform="translate(47.749574 22.8)scale(0.08 -0.08)">
     <defs>
      <path id="ArialMT-43" d="M 3763 1606 
L 4369 1453 
Q 4178 706 3683 314 
Q 3188 -78 2472 -78 
Q 1731 -78 1267 223 
Q 803 525 561 1097 
Q 319 1669 319 2325 
Q 319 3041 592 3573 
Q 866 4106 1370 4382 
Q 1875 4659 2481 4659 
Q 3169 4659 3637 4309 
Q 4106 3959 4291 3325 
L 3694 3184 
Q 3534 3684 3231 3912 
Q 2928 4141 2469 4141 
Q 1941 4141 1586 3887 
Q 1231 3634 1087 3207 
Q 944 2781 944 2328 
Q 944 1744 1114 1308 
Q 1284 872 1643 656 
Q 2003 441 2422 441 
Q 2931 441 3284 734 
Q 3638 1028 3763 1606 
z
" transform="scale(0.015625)"/>
     </defs>
     <use xlink:href="#ArialMT-43"/>
     <use xlink:href="#ArialMT-6c" x="72.216797"/>
     <use xlink:href="#ArialMT-75" x="94.433594"/>
     <use xlink:href="#ArialMT-73" x="150.048828"/>
     <use xlink:href="#ArialMT-74" x="200.048828"/>
     <use xlink:href="#ArialMT-65" x="227.832031"/>
     <use xlink:href="#ArialMT-72" x="283.447266"/>
     <use xlink:href="#ArialMT-69" x="316.748047"/>
     <use xlink:href="#ArialMT-6e" x="338.964844"/>
     <use xlink:href="#ArialMT-67" x="394.580078"/>
    </g>
   </g>
  </g>
  <g id="axes_2">
   <g id="patch_7">
    <path d="M 119.082959 259.2 
L 169.719408 259.2 
L 169.719408 28.8 
L 119.082959 28.8 
z
" style="fill: #ffffff"/>
   </g>
   <g id="matplotlib.axis_3">
    <g id="xtick_6">
     <g id="line2d_6">
      <path d="M 119.082959 259.2 
L 119.082959 28.8 
" clip-path="url(#p6bdaf04908)" style="fill: none; stroke: #b0b0b0; stroke-width: 0.8; stroke-linecap: square"/>
     </g>
     <g id="line2d_7">
      <g>
       <use xlink:href="#m37203c545a" x="119.082959" y="259.2" style="stroke: #000000; stroke-width: 0.5"/>
      </g>
     </g>
     <g id="text_9">
      <!-- 0.0 -->
      <g transform="translate(114.217959 269.210469)scale(0.07 -0.07)">
       <use xlink:href="#ArialMT-30"/>
       <use xlink:href="#ArialMT-2e" x="55.615234"/>
       <use xlink:href="#ArialMT-30" x="83.398438"/>
      </g>
     </g>
    </g>
    <g id="xtick_7">
     <g id="line2d_8">
      <path d="M 144.401184 259.2 
L 144.401184 28.8 
" clip-path="url(#p6bdaf04908)" style="fill: none; stroke: #b0b0b0; stroke-width: 0.8; stroke-linecap: square"/>
     </g>
     <g id="line2d_9">
      <g>
       <use xlink:href="#m37203c545a" x="144.401184" y="259.2" style="stroke: #000000; stroke-width: 0.5"/>
      </g>
     </g>
     <g id="text_10">
      <!-- 0.5 -->
      <g transform="translate(139.536184 269.210469)scale(0.07 -0.07)">
       <use xlink:href="#ArialMT-30"/>
       <use xlink:href="#ArialMT-2e" x="55.615234"/>
       <use xlink:href="#ArialMT-35" x="83.398438"/>
      </g>
     </g>
    </g>
    <g id="xtick_8">
     <g id="line2d_10">
      <path d="M 169.719408 259.2 
L 169.719408 28.8 
" clip-path="url(#p6bdaf04908)" style="fill: none; stroke: #b0b0b0; stroke-width: 0.8; stroke-linecap: square"/>
     </g>
     <g id="line2d_11">
      <g>
       <use xlink:href="#m37203c545a" x="169.719408" y="259.2" style="stroke: #000000; stroke-width: 0.5"/>
      </g>
     </g>
     <g id="text_11">
      <!-- 1.0 -->
      <g transform="translate(164.854408 269.210469)scale(0.07 -0.07)">
       <use xlink:href="#ArialMT-31"/>
       <use xlink:href="#ArialMT-2e" x="55.615234"/>
       <use xlink:href="#ArialMT-30" x="83.398438"/>
      </g>
     </g>
    </g>
    <g id="xtick_9">
     <g id="line2d_12">
      <path d="M 131.742071 259.2 
L 131.742071 28.8 
" clip-path="url(#p6bdaf04908)" style="fill: none; stroke: #b0b0b0; stroke-width: 0.8; stroke-linecap: square"/>
     </g>
     <g id="line2d_13">
      <defs>
       <path id="m7d9fec3107" d="M 0 0 
L 0 2 
" style="stroke: #000000; stroke-width: 0.6"/>
      </defs>
      <g>
       <use xlink:href="#m7d9fec3107" x="131.742071" y="259.2" style="stroke: #000000; stroke-width: 0.6"/>
      </g>
     </g>
    </g>
    <g id="xtick_10">
     <g id="line2d_14">
      <path d="M 157.060296 259.2 
L 157.060296 28.8 
" clip-path="url(#p6bdaf04908)" style="fill: none; stroke: #b0b0b0; stroke-width: 0.8; stroke-linecap: square"/>
     </g>
     <g id="line2d_15">
      <g>
       <use xlink:href="#m7d9fec3107" x="157.060296" y="259.2" style="stroke: #000000; stroke-width: 0.6"/>
      </g>
     </g>
    </g>
    <g id="text_12">
     <!-- Rel. Fitness -->
     <g transform="translate(123.284934 280.327969)scale(0.08 -0.08)">
      <defs>
       <path id="ArialMT-52" d="M 503 0 
L 503 4581 
L 2534 4581 
Q 3147 4581 3465 4457 
Q 3784 4334 3975 4021 
Q 4166 3709 4166 3331 
Q 4166 2844 3850 2509 
Q 3534 2175 2875 2084 
Q 3116 1969 3241 1856 
Q 3506 1613 3744 1247 
L 4541 0 
L 3778 0 
L 3172 953 
Q 2906 1366 2734 1584 
Q 2563 1803 2427 1890 
Q 2291 1978 2150 2013 
Q 2047 2034 1813 2034 
L 1109 2034 
L 1109 0 
L 503 0 
z
M 1109 2559 
L 2413 2559 
Q 2828 2559 3062 2645 
Q 3297 2731 3419 2920 
Q 3541 3109 3541 3331 
Q 3541 3656 3305 3865 
Q 3069 4075 2559 4075 
L 1109 4075 
L 1109 2559 
z
" transform="scale(0.015625)"/>
      </defs>
      <use xlink:href="#ArialMT-52"/>
      <use xlink:href="#ArialMT-65" x="72.216797"/>
      <use xlink:href="#ArialMT-6c" x="127.832031"/>
      <use xlink:href="#ArialMT-2e" x="150.048828"/>
      <use xlink:href="#ArialMT-20" x="177.832031"/>
      <use xlink:href="#ArialMT-46" x="205.615234"/>
      <use xlink:href="#ArialMT-69" x="266.699219"/>
      <use xlink:href="#ArialMT-74" x="288.916016"/>
      <use xlink:href="#ArialMT-6e" x="316.699219"/>
      <use xlink:href="#ArialMT-65" x="372.314453"/>
      <use xlink:href="#ArialMT-73" x="427.929688"/>
      <use xlink:href="#ArialMT-73" x="477.929688"/>
     </g>
    </g>
   </g>
   <g id="patch_8">
    <path d="M 119.082959 259.2 
L 119.082959 28.8 
" style="fill: none; stroke: #000000; stroke-width: 0.5; stroke-linejoin: miter; stroke-linecap: square"/>
   </g>
   <g id="patch_9">
    <path d="M 169.719408 259.2 
L 169.719408 28.8 
" style="fill: none; stroke: #000000; stroke-width: 0.5; stroke-linejoin: miter; stroke-linecap: square"/>
   </g>
   <g id="patch_10">
    <path d="M 119.082959 259.2 
L 169.719408 259.2 
" style="fill: none; stroke: #000000; stroke-width: 0.5; stroke-linejoin: miter; stroke-linecap: square"/>
   </g>
   <g id="patch_11">
    <path d="M 119.082959 28.8 
L 169.719408 28.8 
" style="fill: none; stroke: #000000; stroke-width: 0.5; stroke-linejoin: miter; stroke-linecap: square"/>
   </g>
   <g id="text_13">
    <!-- Relative -->
    <g transform="translate(129.950559 14.3385)scale(0.08 -0.08)">
     <use xlink:href="#ArialMT-52"/>
     <use xlink:href="#ArialMT-65" x="72.216797"/>
     <use xlink:href="#ArialMT-6c" x="127.832031"/>
     <use xlink:href="#ArialMT-61" x="150.048828"/>
     <use xlink:href="#ArialMT-74" x="205.664062"/>
     <use xlink:href="#ArialMT-69" x="233.447266"/>
     <use xlink:href="#ArialMT-76" x="255.664062"/>
     <use xlink:href="#ArialMT-65" x="305.664062"/>
    </g>
    <!-- Fitness -->
    <g transform="translate(131.509309 22.8)scale(0.08 -0.08)">
     <use xlink:href="#ArialMT-46"/>
     <use xlink:href="#ArialMT-69" x="61.083984"/>
     <use xlink:href="#ArialMT-74" x="83.300781"/>
     <use xlink:href="#ArialMT-6e" x="111.083984"/>
     <use xlink:href="#ArialMT-65" x="166.699219"/>
     <use xlink:href="#ArialMT-73" x="222.314453"/>
     <use xlink:href="#ArialMT-73" x="272.314453"/>
    </g>
   </g>
   <g id="patch_12">
    <path d="M 119.082959 29.553645 
L 137.556624 29.553645 
L 137.556624 30.199626 
L 119.082959 30.199626 
z
" clip-path="url(#p6bdaf04908)"/>
   </g>
   <g id="patch_13">
    <path d="M 119.082959 31.706916 
L 124.66493 31.706916 
L 124.66493 32.352897 
L 119.082959 32.352897 
z
" clip-path="url(#p6bdaf04908)"/>
   </g>
   <g id="patch_14">
    <path d="M 119.082959 33.860187 
L 133.17079 33.860187 
L 133.17079 34.506168 
L 119.082959 34.506168 
z
" clip-path="url(#p6bdaf04908)"/>
   </g>
   <g id="patch_15">
    <path d="M 119.082959 36.013458 
L 140.34761 36.013458 
L 140.34761 36.659439 
L 119.082959 36.659439 
z
" clip-path="url(#p6bdaf04908)"/>
   </g>
   <g id="patch_16">
    <path d="M 119.082959 38.166729 
L 139.151473 38.166729 
L 139.151473 38.81271 
L 119.082959 38.81271 
z
" clip-path="url(#p6bdaf04908)"/>
   </g>
   <g id="patch_17">
    <path d="M 119.082959 40.32 
L 125.728162 40.32 
L 125.728162 40.965981 
L 119.082959 40.965981 
z
" clip-path="url(#p6bdaf04908)"/>
   </g>
   <g id="patch_18">
    <path d="M 119.082959 42.473271 
L 130.246901 42.473271 
L 130.246901 43.119252 
L 119.082959 43.119252 
z
" clip-path="url(#p6bdaf04908)"/>
   </g>
   <g id="patch_19">
    <path d="M 119.082959 44.626542 
L 130.645613 44.626542 
L 130.645613 45.272523 
L 119.082959 45.272523 
z
" clip-path="url(#p6bdaf04908)"/>
   </g>
   <g id="patch_20">
    <path d="M 119.082959 46.779813 
L 130.645613 46.779813 
L 130.645613 47.425794 
L 119.082959 47.425794 
z
" clip-path="url(#p6bdaf04908)"/>
   </g>
   <g id="patch_21">
    <path d="M 119.082959 48.933084 
L 145.132156 48.933084 
L 145.132156 49.579065 
L 119.082959 49.579065 
z
" clip-path="url(#p6bdaf04908)"/>
   </g>
   <g id="patch_22">
    <path d="M 119.082959 51.086355 
L 143.936019 51.086355 
L 143.936019 51.732336 
L 119.082959 51.732336 
z
" clip-path="url(#p6bdaf04908)"/>
   </g>
   <g id="patch_23">
    <path d="M 119.082959 53.239626 
L 144.60054 53.239626 
L 144.60054 53.885607 
L 119.082959 53.885607 
z
" clip-path="url(#p6bdaf04908)"/>
   </g>
   <g id="patch_24">
    <path d="M 119.082959 55.392897 
L 144.201828 55.392897 
L 144.201828 56.038879 
L 119.082959 56.038879 
z
" clip-path="url(#p6bdaf04908)"/>
   </g>
   <g id="patch_25">
    <path d="M 119.082959 57.546168 
L 144.733444 57.546168 
L 144.733444 58.19215 
L 119.082959 58.19215 
z
" clip-path="url(#p6bdaf04908)"/>
   </g>
   <g id="patch_26">
    <path d="M 119.082959 59.699439 
L 144.467636 59.699439 
L 144.467636 60.345421 
L 119.082959 60.345421 
z
" clip-path="url(#p6bdaf04908)"/>
   </g>
   <g id="patch_27">
    <path d="M 119.082959 61.85271 
L 157.890946 61.85271 
L 157.890946 62.498692 
L 119.082959 62.498692 
z
" clip-path="url(#p6bdaf04908)"/>
   </g>
   <g id="patch_28">
    <path d="M 119.082959 64.005981 
L 156.561906 64.005981 
L 156.561906 64.651963 
L 119.082959 64.651963 
z
" clip-path="url(#p6bdaf04908)"/>
   </g>
   <g id="patch_29">
    <path d="M 119.082959 66.159252 
L 149.916702 66.159252 
L 149.916702 66.805234 
L 119.082959 66.805234 
z
" clip-path="url(#p6bdaf04908)"/>
   </g>
   <g id="patch_30">
    <path d="M 119.082959 68.312523 
L 151.378647 68.312523 
L 151.378647 68.958505 
L 119.082959 68.958505 
z
" clip-path="url(#p6bdaf04908)"/>
   </g>
   <g id="patch_31">
    <path d="M 119.082959 70.465794 
L 151.112839 70.465794 
L 151.112839 71.111776 
L 119.082959 71.111776 
z
" clip-path="url(#p6bdaf04908)"/>
   </g>
   <g id="patch_32">
    <path d="M 119.082959 72.619065 
L 152.176072 72.619065 
L 152.176072 73.265047 
L 119.082959 73.265047 
z
" clip-path="url(#p6bdaf04908)"/>
   </g>
   <g id="patch_33">
    <path d="M 119.082959 74.772336 
L 153.372208 74.772336 
L 153.372208 75.418318 
L 119.082959 75.418318 
z
" clip-path="url(#p6bdaf04908)"/>
   </g>
   <g id="patch_34">
    <path d="M 119.082959 76.925607 
L 152.973496 76.925607 
L 152.973496 77.571589 
L 119.082959 77.571589 
z
" clip-path="url(#p6bdaf04908)"/>
   </g>
   <g id="patch_35">
    <path d="M 119.082959 79.078879 
L 147.790237 79.078879 
L 147.790237 79.72486 
L 119.082959 79.72486 
z
" clip-path="url(#p6bdaf04908)"/>
   </g>
   <g id="patch_36">
    <path d="M 119.082959 81.23215 
L 156.561906 81.23215 
L 156.561906 81.878131 
L 119.082959 81.878131 
z
" clip-path="url(#p6bdaf04908)"/>
   </g>
   <g id="patch_37">
    <path d="M 119.082959 83.385421 
L 154.834153 83.385421 
L 154.834153 84.031402 
L 119.082959 84.031402 
z
" clip-path="url(#p6bdaf04908)"/>
   </g>
   <g id="patch_38">
    <path d="M 119.082959 85.538692 
L 155.498673 85.538692 
L 155.498673 86.184673 
L 119.082959 86.184673 
z
" clip-path="url(#p6bdaf04908)"/>
   </g>
   <g id="patch_39">
    <path d="M 119.082959 87.691963 
L 156.960618 87.691963 
L 156.960618 88.337944 
L 119.082959 88.337944 
z
" clip-path="url(#p6bdaf04908)"/>
   </g>
   <g id="patch_40">
    <path d="M 119.082959 89.845234 
L 156.030289 89.845234 
L 156.030289 90.491215 
L 119.082959 90.491215 
z
" clip-path="url(#p6bdaf04908)"/>
   </g>
   <g id="patch_41">
    <path d="M 119.082959 91.998505 
L 155.365769 91.998505 
L 155.365769 92.644486 
L 119.082959 92.644486 
z
" clip-path="url(#p6bdaf04908)"/>
   </g>
   <g id="patch_42">
    <path d="M 119.082959 94.151776 
L 149.916702 94.151776 
L 149.916702 94.797757 
L 119.082959 94.797757 
z
" clip-path="url(#p6bdaf04908)"/>
   </g>
   <g id="patch_43">
    <path d="M 119.082959 96.305047 
L 144.334732 96.305047 
L 144.334732 96.951028 
L 119.082959 96.951028 
z
" clip-path="url(#p6bdaf04908)"/>
   </g>
   <g id="patch_44">
    <path d="M 119.082959 98.458318 
L 130.379805 98.458318 
L 130.379805 99.104299 
L 119.082959 99.104299 
z
" clip-path="url(#p6bdaf04908)"/>
   </g>
   <g id="patch_45">
    <path d="M 119.082959 100.611589 
L 146.062485 100.611589 
L 146.062485 101.25757 
L 119.082959 101.25757 
z
" clip-path="url(#p6bdaf04908)"/>
   </g>
   <g id="patch_46">
    <path d="M 119.082959 102.76486 
L 145.530868 102.76486 
L 145.530868 103.410841 
L 119.082959 103.410841 
z
" clip-path="url(#p6bdaf04908)"/>
   </g>
   <g id="patch_47">
    <path d="M 119.082959 104.918131 
L 145.132156 104.918131 
L 145.132156 105.564112 
L 119.082959 105.564112 
z
" clip-path="url(#p6bdaf04908)"/>
   </g>
   <g id="patch_48">
    <path d="M 119.082959 107.071402 
L 145.530868 107.071402 
L 145.530868 107.717383 
L 119.082959 107.717383 
z
" clip-path="url(#p6bdaf04908)"/>
   </g>
   <g id="patch_49">
    <path d="M 119.082959 109.224673 
L 145.132156 109.224673 
L 145.132156 109.870654 
L 119.082959 109.870654 
z
" clip-path="url(#p6bdaf04908)"/>
   </g>
   <g id="patch_50">
    <path d="M 119.082959 111.377944 
L 144.999252 111.377944 
L 144.999252 112.023925 
L 119.082959 112.023925 
z
" clip-path="url(#p6bdaf04908)"/>
   </g>
   <g id="patch_51">
    <path d="M 119.082959 113.531215 
L 135.828871 113.531215 
L 135.828871 114.177196 
L 119.082959 114.177196 
z
" clip-path="url(#p6bdaf04908)"/>
   </g>
   <g id="patch_52">
    <path d="M 119.082959 115.684486 
L 139.683089 115.684486 
L 139.683089 116.330467 
L 119.082959 116.330467 
z
" clip-path="url(#p6bdaf04908)"/>
   </g>
   <g id="patch_53">
    <path d="M 119.082959 117.837757 
L 136.360488 117.837757 
L 136.360488 118.483738 
L 119.082959 118.483738 
z
" clip-path="url(#p6bdaf04908)"/>
   </g>
   <g id="patch_54">
    <path d="M 119.082959 119.991028 
L 135.695967 119.991028 
L 135.695967 120.637009 
L 119.082959 120.637009 
z
" clip-path="url(#p6bdaf04908)"/>
   </g>
   <g id="patch_55">
    <path d="M 119.082959 122.144299 
L 137.290816 122.144299 
L 137.290816 122.79028 
L 119.082959 122.79028 
z
" clip-path="url(#p6bdaf04908)"/>
   </g>
   <g id="patch_56">
    <path d="M 119.082959 124.29757 
L 155.764481 124.29757 
L 155.764481 124.943551 
L 119.082959 124.943551 
z
" clip-path="url(#p6bdaf04908)"/>
   </g>
   <g id="patch_57">
    <path d="M 119.082959 126.450841 
L 154.169632 126.450841 
L 154.169632 127.096822 
L 119.082959 127.096822 
z
" clip-path="url(#p6bdaf04908)"/>
   </g>
   <g id="patch_58">
    <path d="M 119.082959 128.604112 
L 154.435441 128.604112 
L 154.435441 129.250093 
L 119.082959 129.250093 
z
" clip-path="url(#p6bdaf04908)"/>
   </g>
   <g id="patch_59">
    <path d="M 119.082959 130.757383 
L 155.099961 130.757383 
L 155.099961 131.403364 
L 119.082959 131.403364 
z
" clip-path="url(#p6bdaf04908)"/>
   </g>
   <g id="patch_60">
    <path d="M 119.082959 132.910654 
L 154.169632 132.910654 
L 154.169632 133.556636 
L 119.082959 133.556636 
z
" clip-path="url(#p6bdaf04908)"/>
   </g>
   <g id="patch_61">
    <path d="M 119.082959 135.063925 
L 135.961776 135.063925 
L 135.961776 135.709907 
L 119.082959 135.709907 
z
" clip-path="url(#p6bdaf04908)"/>
   </g>
   <g id="patch_62">
    <path d="M 119.082959 137.217196 
L 135.828871 137.217196 
L 135.828871 137.863178 
L 119.082959 137.863178 
z
" clip-path="url(#p6bdaf04908)"/>
   </g>
   <g id="patch_63">
    <path d="M 119.082959 139.370467 
L 122.671369 139.370467 
L 122.671369 140.016449 
L 119.082959 140.016449 
z
" clip-path="url(#p6bdaf04908)"/>
   </g>
   <g id="patch_64">
    <path d="M 119.082959 141.523738 
L 123.734602 141.523738 
L 123.734602 142.16972 
L 119.082959 142.16972 
z
" clip-path="url(#p6bdaf04908)"/>
   </g>
   <g id="patch_65">
    <path d="M 119.082959 143.677009 
L 123.202985 143.677009 
L 123.202985 144.322991 
L 119.082959 144.322991 
z
" clip-path="url(#p6bdaf04908)"/>
   </g>
   <g id="patch_66">
    <path d="M 119.082959 145.83028 
L 137.290816 145.83028 
L 137.290816 146.476262 
L 119.082959 146.476262 
z
" clip-path="url(#p6bdaf04908)"/>
   </g>
   <g id="patch_67">
    <path d="M 119.082959 147.983551 
L 119.082959 147.983551 
L 119.082959 148.629533 
L 119.082959 148.629533 
z
" clip-path="url(#p6bdaf04908)"/>
   </g>
   <g id="patch_68">
    <path d="M 119.082959 150.136822 
L 124.399122 150.136822 
L 124.399122 150.782804 
L 119.082959 150.782804 
z
" clip-path="url(#p6bdaf04908)"/>
   </g>
   <g id="patch_69">
    <path d="M 119.082959 152.290093 
L 124.399122 152.290093 
L 124.399122 152.936075 
L 119.082959 152.936075 
z
" clip-path="url(#p6bdaf04908)"/>
   </g>
   <g id="patch_70">
    <path d="M 119.082959 154.443364 
L 123.601697 154.443364 
L 123.601697 155.089346 
L 119.082959 155.089346 
z
" clip-path="url(#p6bdaf04908)"/>
   </g>
   <g id="patch_71">
    <path d="M 119.082959 156.596636 
L 123.468793 156.596636 
L 123.468793 157.242617 
L 119.082959 157.242617 
z
" clip-path="url(#p6bdaf04908)"/>
   </g>
   <g id="patch_72">
    <path d="M 119.082959 158.749907 
L 162.409685 158.749907 
L 162.409685 159.395888 
L 119.082959 159.395888 
z
" clip-path="url(#p6bdaf04908)"/>
   </g>
   <g id="patch_73">
    <path d="M 119.082959 160.903178 
L 162.808397 160.903178 
L 162.808397 161.549159 
L 119.082959 161.549159 
z
" clip-path="url(#p6bdaf04908)"/>
   </g>
   <g id="patch_74">
    <path d="M 119.082959 163.056449 
L 161.878068 163.056449 
L 161.878068 163.70243 
L 119.082959 163.70243 
z
" clip-path="url(#p6bdaf04908)"/>
   </g>
   <g id="patch_75">
    <path d="M 119.082959 165.20972 
L 162.409685 165.20972 
L 162.409685 165.855701 
L 119.082959 165.855701 
z
" clip-path="url(#p6bdaf04908)"/>
   </g>
   <g id="patch_76">
    <path d="M 119.082959 167.362991 
L 162.941301 167.362991 
L 162.941301 168.008972 
L 119.082959 168.008972 
z
" clip-path="url(#p6bdaf04908)"/>
   </g>
   <g id="patch_77">
    <path d="M 119.082959 169.516262 
L 158.954179 169.516262 
L 158.954179 170.162243 
L 119.082959 170.162243 
z
" clip-path="url(#p6bdaf04908)"/>
   </g>
   <g id="patch_78">
    <path d="M 119.082959 171.669533 
L 168.523272 171.669533 
L 168.523272 172.315514 
L 119.082959 172.315514 
z
" clip-path="url(#p6bdaf04908)"/>
   </g>
   <g id="patch_79">
    <path d="M 119.082959 173.822804 
L 164.53615 173.822804 
L 164.53615 174.468785 
L 119.082959 174.468785 
z
" clip-path="url(#p6bdaf04908)"/>
   </g>
   <g id="patch_80">
    <path d="M 119.082959 175.976075 
L 151.378647 175.976075 
L 151.378647 176.622056 
L 119.082959 176.622056 
z
" clip-path="url(#p6bdaf04908)"/>
   </g>
   <g id="patch_81">
    <path d="M 119.082959 178.129346 
L 162.542589 178.129346 
L 162.542589 178.775327 
L 119.082959 178.775327 
z
" clip-path="url(#p6bdaf04908)"/>
   </g>
   <g id="patch_82">
    <path d="M 119.082959 180.282617 
L 167.592943 180.282617 
L 167.592943 180.928598 
L 119.082959 180.928598 
z
" clip-path="url(#p6bdaf04908)"/>
   </g>
   <g id="patch_83">
    <path d="M 119.082959 182.435888 
L 166.529711 182.435888 
L 166.529711 183.081869 
L 119.082959 183.081869 
z
" clip-path="url(#p6bdaf04908)"/>
   </g>
   <g id="patch_84">
    <path d="M 119.082959 184.589159 
L 165.86519 184.589159 
L 165.86519 185.23514 
L 119.082959 185.23514 
z
" clip-path="url(#p6bdaf04908)"/>
   </g>
   <g id="patch_85">
    <path d="M 119.082959 186.74243 
L 164.53615 186.74243 
L 164.53615 187.388411 
L 119.082959 187.388411 
z
" clip-path="url(#p6bdaf04908)"/>
   </g>
   <g id="patch_86">
    <path d="M 119.082959 188.895701 
L 156.561906 188.895701 
L 156.561906 189.541682 
L 119.082959 189.541682 
z
" clip-path="url(#p6bdaf04908)"/>
   </g>
   <g id="patch_87">
    <path d="M 119.082959 191.048972 
L 162.808397 191.048972 
L 162.808397 191.694953 
L 119.082959 191.694953 
z
" clip-path="url(#p6bdaf04908)"/>
   </g>
   <g id="patch_88">
    <path d="M 119.082959 193.202243 
L 158.688371 193.202243 
L 158.688371 193.848224 
L 119.082959 193.848224 
z
" clip-path="url(#p6bdaf04908)"/>
   </g>
   <g id="patch_89">
    <path d="M 119.082959 195.355514 
L 162.542589 195.355514 
L 162.542589 196.001495 
L 119.082959 196.001495 
z
" clip-path="url(#p6bdaf04908)"/>
   </g>
   <g id="patch_90">
    <path d="M 119.082959 197.508785 
L 156.561906 197.508785 
L 156.561906 198.154766 
L 119.082959 198.154766 
z
" clip-path="url(#p6bdaf04908)"/>
   </g>
   <g id="patch_91">
    <path d="M 119.082959 199.662056 
L 161.213548 199.662056 
L 161.213548 200.308037 
L 119.082959 200.308037 
z
" clip-path="url(#p6bdaf04908)"/>
   </g>
   <g id="patch_92">
    <path d="M 119.082959 201.815327 
L 156.827714 201.815327 
L 156.827714 202.461308 
L 119.082959 202.461308 
z
" clip-path="url(#p6bdaf04908)"/>
   </g>
   <g id="patch_93">
    <path d="M 119.082959 203.968598 
L 159.219987 203.968598 
L 159.219987 204.614579 
L 119.082959 204.614579 
z
" clip-path="url(#p6bdaf04908)"/>
   </g>
   <g id="patch_94">
    <path d="M 119.082959 206.121869 
L 159.219987 206.121869 
L 159.219987 206.76785 
L 119.082959 206.76785 
z
" clip-path="url(#p6bdaf04908)"/>
   </g>
   <g id="patch_95">
    <path d="M 119.082959 208.27514 
L 161.346452 208.27514 
L 161.346452 208.921121 
L 119.082959 208.921121 
z
" clip-path="url(#p6bdaf04908)"/>
   </g>
   <g id="patch_96">
    <path d="M 119.082959 210.428411 
L 157.492234 210.428411 
L 157.492234 211.074393 
L 119.082959 211.074393 
z
" clip-path="url(#p6bdaf04908)"/>
   </g>
   <g id="patch_97">
    <path d="M 119.082959 212.581682 
L 157.492234 212.581682 
L 157.492234 213.227664 
L 119.082959 213.227664 
z
" clip-path="url(#p6bdaf04908)"/>
   </g>
   <g id="patch_98">
    <path d="M 119.082959 214.734953 
L 162.143876 214.734953 
L 162.143876 215.380935 
L 119.082959 215.380935 
z
" clip-path="url(#p6bdaf04908)"/>
   </g>
   <g id="patch_99">
    <path d="M 119.082959 216.888224 
L 152.44188 216.888224 
L 152.44188 217.534206 
L 119.082959 217.534206 
z
" clip-path="url(#p6bdaf04908)"/>
   </g>
   <g id="patch_100">
    <path d="M 119.082959 219.041495 
L 162.27678 219.041495 
L 162.27678 219.687477 
L 119.082959 219.687477 
z
" clip-path="url(#p6bdaf04908)"/>
   </g>
   <g id="patch_101">
    <path d="M 119.082959 221.194766 
L 155.365769 221.194766 
L 155.365769 221.840748 
L 119.082959 221.840748 
z
" clip-path="url(#p6bdaf04908)"/>
   </g>
   <g id="patch_102">
    <path d="M 119.082959 223.348037 
L 169.719408 223.348037 
L 169.719408 223.994019 
L 119.082959 223.994019 
z
" clip-path="url(#p6bdaf04908)"/>
   </g>
   <g id="patch_103">
    <path d="M 119.082959 225.501308 
L 162.143876 225.501308 
L 162.143876 226.14729 
L 119.082959 226.14729 
z
" clip-path="url(#p6bdaf04908)"/>
   </g>
   <g id="patch_104">
    <path d="M 119.082959 227.654579 
L 156.030289 227.654579 
L 156.030289 228.300561 
L 119.082959 228.300561 
z
" clip-path="url(#p6bdaf04908)"/>
   </g>
   <g id="patch_105">
    <path d="M 119.082959 229.80785 
L 161.213548 229.80785 
L 161.213548 230.453832 
L 119.082959 230.453832 
z
" clip-path="url(#p6bdaf04908)"/>
   </g>
   <g id="patch_106">
    <path d="M 119.082959 231.961121 
L 163.605821 231.961121 
L 163.605821 232.607103 
L 119.082959 232.607103 
z
" clip-path="url(#p6bdaf04908)"/>
   </g>
   <g id="patch_107">
    <path d="M 119.082959 234.114393 
L 162.143876 234.114393 
L 162.143876 234.760374 
L 119.082959 234.760374 
z
" clip-path="url(#p6bdaf04908)"/>
   </g>
   <g id="patch_108">
    <path d="M 119.082959 236.267664 
L 157.492234 236.267664 
L 157.492234 236.913645 
L 119.082959 236.913645 
z
" clip-path="url(#p6bdaf04908)"/>
   </g>
   <g id="patch_109">
    <path d="M 119.082959 238.420935 
L 162.941301 238.420935 
L 162.941301 239.066916 
L 119.082959 239.066916 
z
" clip-path="url(#p6bdaf04908)"/>
   </g>
   <g id="patch_110">
    <path d="M 119.082959 240.574206 
L 163.074205 240.574206 
L 163.074205 241.220187 
L 119.082959 241.220187 
z
" clip-path="url(#p6bdaf04908)"/>
   </g>
   <g id="patch_111">
    <path d="M 119.082959 242.727477 
L 161.745164 242.727477 
L 161.745164 243.373458 
L 119.082959 243.373458 
z
" clip-path="url(#p6bdaf04908)"/>
   </g>
   <g id="patch_112">
    <path d="M 119.082959 244.880748 
L 157.492234 244.880748 
L 157.492234 245.526729 
L 119.082959 245.526729 
z
" clip-path="url(#p6bdaf04908)"/>
   </g>
   <g id="patch_113">
    <path d="M 119.082959 247.034019 
L 157.35933 247.034019 
L 157.35933 247.68 
L 119.082959 247.68 
z
" clip-path="url(#p6bdaf04908)"/>
   </g>
   <g id="patch_114">
    <path d="M 119.082959 249.18729 
L 156.296098 249.18729 
L 156.296098 249.833271 
L 119.082959 249.833271 
z
" clip-path="url(#p6bdaf04908)"/>
   </g>
   <g id="patch_115">
    <path d="M 119.082959 251.340561 
L 129.58238 251.340561 
L 129.58238 251.986542 
L 119.082959 251.986542 
z
" clip-path="url(#p6bdaf04908)"/>
   </g>
   <g id="patch_116">
    <path d="M 119.082959 253.493832 
L 157.226426 253.493832 
L 157.226426 254.139813 
L 119.082959 254.139813 
z
" clip-path="url(#p6bdaf04908)"/>
   </g>
   <g id="patch_117">
    <path d="M 119.082959 255.647103 
L 162.675493 255.647103 
L 162.675493 256.293084 
L 119.082959 256.293084 
z
" clip-path="url(#p6bdaf04908)"/>
   </g>
   <g id="patch_118">
    <path d="M 119.082959 257.800374 
L 161.878068 257.800374 
L 161.878068 258.446355 
L 119.082959 258.446355 
z
" clip-path="url(#p6bdaf04908)"/>
   </g>
  </g>
  <g id="axes_3">
   <g id="patch_119">
    <path d="M 172.40947 259.2 
L 189.288286 259.2 
L 189.288286 28.8 
L 172.40947 28.8 
z
" style="fill: #ffffff"/>
   </g>
   <g id="patch_120">
    <path d="M 174.097351 227.439252 
L 174.097351 227.439252 
L 180.426907 227.439252 
L 180.426907 258.661682 
L 167.767795 258.661682 
L 167.767795 227.439252 
L 174.097351 227.439252 
z
" clip-path="url(#p5a138d08f7)" style="fill: #ff7f0e; stroke: #ff7f0e; stroke-linejoin: miter"/>
   </g>
   <g id="patch_121">
    <path d="M 174.097351 223.13271 
L 174.097351 223.13271 
L 180.426907 223.13271 
L 180.426907 226.362617 
L 167.767795 226.362617 
L 167.767795 223.13271 
L 174.097351 223.13271 
z
" clip-path="url(#p5a138d08f7)" style="fill: #2ca02c; stroke: #2ca02c; stroke-linejoin: miter"/>
   </g>
   <g id="patch_122">
    <path d="M 174.097351 218.826168 
L 174.097351 218.826168 
L 180.426907 218.826168 
L 180.426907 222.056075 
L 167.767795 222.056075 
L 167.767795 218.826168 
L 174.097351 218.826168 
z
" clip-path="url(#p5a138d08f7)" style="fill: #d62728; stroke: #d62728; stroke-linejoin: miter"/>
   </g>
   <g id="patch_123">
    <path d="M 174.097351 199.446729 
L 174.097351 199.446729 
L 180.426907 199.446729 
L 180.426907 217.749533 
L 167.767795 217.749533 
L 167.767795 199.446729 
L 174.097351 199.446729 
z
" clip-path="url(#p5a138d08f7)" style="fill: #9467bd; stroke: #9467bd; stroke-linejoin: miter"/>
   </g>
   <g id="patch_124">
    <path d="M 174.097351 195.140187 
L 174.097351 195.140187 
L 180.426907 195.140187 
L 180.426907 198.370093 
L 167.767795 198.370093 
L 167.767795 195.140187 
L 174.097351 195.140187 
z
" clip-path="url(#p5a138d08f7)" style="fill: #8c564b; stroke: #8c564b; stroke-linejoin: miter"/>
   </g>
   <g id="patch_125">
    <path d="M 174.097351 158.534579 
L 174.097351 158.534579 
L 180.426907 158.534579 
L 180.426907 194.063551 
L 167.767795 194.063551 
L 167.767795 158.534579 
L 174.097351 158.534579 
z
" clip-path="url(#p5a138d08f7)" style="fill: #e377c2; stroke: #e377c2; stroke-linejoin: miter"/>
   </g>
   <g id="patch_126">
    <path d="M 174.097351 147.768224 
L 174.097351 147.768224 
L 180.426907 147.768224 
L 180.426907 157.457944 
L 167.767795 157.457944 
L 167.767795 147.768224 
L 174.097351 147.768224 
z
" clip-path="url(#p5a138d08f7)" style="fill: #7f7f7f; stroke: #7f7f7f; stroke-linejoin: miter"/>
   </g>
   <g id="patch_127">
    <path d="M 174.097351 145.614953 
L 174.097351 145.614953 
L 180.426907 145.614953 
L 180.426907 146.691589 
L 167.767795 146.691589 
L 167.767795 145.614953 
L 174.097351 145.614953 
z
" clip-path="url(#p5a138d08f7)" style="fill: #1f77b4; stroke: #1f77b4; stroke-linejoin: miter"/>
   </g>
   <g id="patch_128">
    <path d="M 174.097351 139.15514 
L 174.097351 139.15514 
L 180.426907 139.15514 
L 180.426907 144.538318 
L 167.767795 144.538318 
L 167.767795 139.15514 
L 174.097351 139.15514 
z
" clip-path="url(#p5a138d08f7)" style="fill: #bcbd22; stroke: #bcbd22; stroke-linejoin: miter"/>
   </g>
   <g id="patch_129">
    <path d="M 174.097351 134.848598 
L 174.097351 134.848598 
L 180.426907 134.848598 
L 180.426907 138.078505 
L 167.767795 138.078505 
L 167.767795 134.848598 
L 174.097351 134.848598 
z
" clip-path="url(#p5a138d08f7)" style="fill: #17becf; stroke: #17becf; stroke-linejoin: miter"/>
   </g>
   <g id="patch_130">
    <path d="M 174.097351 61.637383 
L 174.097351 61.637383 
L 180.426907 61.637383 
L 180.426907 133.771963 
L 167.767795 133.771963 
L 167.767795 61.637383 
L 174.097351 61.637383 
z
" clip-path="url(#p5a138d08f7)" style="fill: #a1c9f4; stroke: #a1c9f4; stroke-linejoin: miter"/>
   </g>
   <g id="patch_131">
    <path d="M 174.097351 53.024299 
L 174.097351 53.024299 
L 180.426907 53.024299 
L 180.426907 60.560748 
L 167.767795 60.560748 
L 167.767795 53.024299 
L 174.097351 53.024299 
z
" clip-path="url(#p5a138d08f7)" style="fill: #ffb482; stroke: #ffb482; stroke-linejoin: miter"/>
   </g>
   <g id="patch_132">
    <path d="M 174.097351 48.717757 
L 174.097351 48.717757 
L 180.426907 48.717757 
L 180.426907 51.947664 
L 167.767795 51.947664 
L 167.767795 48.717757 
L 174.097351 48.717757 
z
" clip-path="url(#p5a138d08f7)" style="fill: #8de5a1; stroke: #8de5a1; stroke-linejoin: miter"/>
   </g>
   <g id="patch_133">
    <path d="M 174.097351 40.104673 
L 174.097351 40.104673 
L 180.426907 40.104673 
L 180.426907 47.641121 
L 167.767795 47.641121 
L 167.767795 40.104673 
L 174.097351 40.104673 
z
" clip-path="url(#p5a138d08f7)" style="fill: #ff9f9b; stroke: #ff9f9b; stroke-linejoin: miter"/>
   </g>
   <g id="patch_134">
    <path d="M 174.097351 33.64486 
L 174.097351 33.64486 
L 180.426907 33.64486 
L 180.426907 39.028037 
L 167.767795 39.028037 
L 167.767795 33.64486 
L 174.097351 33.64486 
z
" clip-path="url(#p5a138d08f7)" style="fill: #d0bbff; stroke: #d0bbff; stroke-linejoin: miter"/>
   </g>
   <g id="patch_135">
    <path d="M 174.097351 31.491589 
L 174.097351 31.491589 
L 180.426907 31.491589 
L 180.426907 32.568224 
L 167.767795 32.568224 
L 167.767795 31.491589 
L 174.097351 31.491589 
z
" clip-path="url(#p5a138d08f7)" style="fill: #1f77b4; stroke: #1f77b4; stroke-linejoin: miter"/>
   </g>
   <g id="patch_136">
    <path d="M 174.097351 29.338318 
L 174.097351 29.338318 
L 180.426907 29.338318 
L 180.426907 30.414953 
L 167.767795 30.414953 
L 167.767795 29.338318 
L 174.097351 29.338318 
z
" clip-path="url(#p5a138d08f7)" style="fill: #1f77b4; stroke: #1f77b4; stroke-linejoin: miter"/>
   </g>
   <g id="patch_137">
    <path d="M 174.097351 27.185047 
L 174.097351 27.185047 
L 180.426907 27.185047 
L 180.426907 28.261682 
L 167.767795 28.261682 
L 167.767795 27.185047 
L 174.097351 27.185047 
z
" clip-path="url(#p5a138d08f7)" style="fill: #1f77b4; stroke: #1f77b4; stroke-linejoin: miter"/>
   </g>
   <g id="patch_138">
    <path d="M 172.40947 259.2 
L 172.40947 28.8 
" style="fill: none; stroke: #000000; stroke-width: 0.5; stroke-linejoin: miter; stroke-linecap: square"/>
   </g>
   <g id="patch_139">
    <path d="M 189.288286 259.2 
L 189.288286 28.8 
" style="fill: none; stroke: #000000; stroke-width: 0.5; stroke-linejoin: miter; stroke-linecap: square"/>
   </g>
   <g id="patch_140">
    <path d="M 172.40947 259.2 
L 189.288286 259.2 
" style="fill: none; stroke: #000000; stroke-width: 0.5; stroke-linejoin: miter; stroke-linecap: square"/>
   </g>
   <g id="patch_141">
    <path d="M 172.40947 28.8 
L 189.288286 28.8 
" style="fill: none; stroke: #000000; stroke-width: 0.5; stroke-linejoin: miter; stroke-linecap: square"/>
   </g>
   <g id="text_14">
    <!-- Cluster -->
    <g transform="translate(168.179503 14.3385)scale(0.08 -0.08)">
     <use xlink:href="#ArialMT-43"/>
     <use xlink:href="#ArialMT-6c" x="72.216797"/>
     <use xlink:href="#ArialMT-75" x="94.433594"/>
     <use xlink:href="#ArialMT-73" x="150.048828"/>
     <use xlink:href="#ArialMT-74" x="200.048828"/>
     <use xlink:href="#ArialMT-65" x="227.832031"/>
     <use xlink:href="#ArialMT-72" x="283.447266"/>
    </g>
    <!-- ID -->
    <g transform="translate(176.848878 22.8)scale(0.08 -0.08)">
     <defs>
      <path id="ArialMT-49" d="M 597 0 
L 597 4581 
L 1203 4581 
L 1203 0 
L 597 0 
z
" transform="scale(0.015625)"/>
     </defs>
     <use xlink:href="#ArialMT-49"/>
     <use xlink:href="#ArialMT-44" x="27.783203"/>
    </g>
   </g>
  </g>
  <g id="axes_4">
   <g id="patch_142">
    <path d="M 191.978347 259.2 
L 453.6 259.2 
L 453.6 28.8 
L 191.978347 28.8 
z
" style="fill: #ffffff"/>
   </g>
   <g id="text_15">
    <!-- Maximum Common Substructure -->
    <g transform="translate(264.331674 18.6528)scale(0.08 -0.08)">
     <defs>
      <path id="ArialMT-4d" d="M 475 0 
L 475 4581 
L 1388 4581 
L 2472 1338 
Q 2622 884 2691 659 
Q 2769 909 2934 1394 
L 4031 4581 
L 4847 4581 
L 4847 0 
L 4263 0 
L 4263 3834 
L 2931 0 
L 2384 0 
L 1059 3900 
L 1059 0 
L 475 0 
z
" transform="scale(0.015625)"/>
      <path id="ArialMT-78" d="M 47 0 
L 1259 1725 
L 138 3319 
L 841 3319 
L 1350 2541 
Q 1494 2319 1581 2169 
Q 1719 2375 1834 2534 
L 2394 3319 
L 3066 3319 
L 1919 1756 
L 3153 0 
L 2463 0 
L 1781 1031 
L 1600 1309 
L 728 0 
L 47 0 
z
" transform="scale(0.015625)"/>
      <path id="ArialMT-62" d="M 941 0 
L 419 0 
L 419 4581 
L 981 4581 
L 981 2947 
Q 1338 3394 1891 3394 
Q 2197 3394 2470 3270 
Q 2744 3147 2920 2923 
Q 3097 2700 3197 2384 
Q 3297 2069 3297 1709 
Q 3297 856 2875 390 
Q 2453 -75 1863 -75 
Q 1275 -75 941 416 
L 941 0 
z
M 934 1684 
Q 934 1088 1097 822 
Q 1363 388 1816 388 
Q 2184 388 2453 708 
Q 2722 1028 2722 1663 
Q 2722 2313 2464 2622 
Q 2206 2931 1841 2931 
Q 1472 2931 1203 2611 
Q 934 2291 934 1684 
z
" transform="scale(0.015625)"/>
     </defs>
     <use xlink:href="#ArialMT-4d"/>
     <use xlink:href="#ArialMT-61" x="83.300781"/>
     <use xlink:href="#ArialMT-78" x="138.916016"/>
     <use xlink:href="#ArialMT-69" x="188.916016"/>
     <use xlink:href="#ArialMT-6d" x="211.132812"/>
     <use xlink:href="#ArialMT-75" x="294.433594"/>
     <use xlink:href="#ArialMT-6d" x="350.048828"/>
     <use xlink:href="#ArialMT-20" x="433.349609"/>
     <use xlink:href="#ArialMT-43" x="461.132812"/>
     <use xlink:href="#ArialMT-6f" x="533.349609"/>
     <use xlink:href="#ArialMT-6d" x="588.964844"/>
     <use xlink:href="#ArialMT-6d" x="672.265625"/>
     <use xlink:href="#ArialMT-6f" x="755.566406"/>
     <use xlink:href="#ArialMT-6e" x="811.181641"/>
     <use xlink:href="#ArialMT-20" x="866.796875"/>
     <use xlink:href="#ArialMT-53" x="894.580078"/>
     <use xlink:href="#ArialMT-75" x="961.279297"/>
     <use xlink:href="#ArialMT-62" x="1016.894531"/>
     <use xlink:href="#ArialMT-73" x="1072.509766"/>
     <use xlink:href="#ArialMT-74" x="1122.509766"/>
     <use xlink:href="#ArialMT-72" x="1150.292969"/>
     <use xlink:href="#ArialMT-75" x="1183.59375"/>
     <use xlink:href="#ArialMT-63" x="1239.208984"/>
     <use xlink:href="#ArialMT-74" x="1289.208984"/>
     <use xlink:href="#ArialMT-75" x="1316.992188"/>
     <use xlink:href="#ArialMT-72" x="1372.607422"/>
     <use xlink:href="#ArialMT-65" x="1405.908203"/>
    </g>
   </g>
  </g>
 </g>
 <defs>
  <clipPath id="pa401c07623">
   <rect x="15.12" y="28.8" width="101.272898" height="230.4"/>
  </clipPath>
  <clipPath id="p6bdaf04908">
   <rect x="119.082959" y="28.8" width="50.636449" height="230.4"/>
  </clipPath>
  <clipPath id="p5a138d08f7">
   <rect x="172.40947" y="28.8" width="16.878816" height="230.4"/>
  </clipPath>
 </defs>
</svg>
