<?xml version="1.0" encoding="utf-8" standalone="no"?>
<!DOCTYPE svg PUBLIC "-//W3C//DTD SVG 1.1//EN"
  "http://www.w3.org/Graphics/SVG/1.1/DTD/svg11.dtd">
<!-- Created with matplotlib (https://matplotlib.org/) -->
<svg height="288pt" version="1.1" viewBox="0 0 504 288" width="504pt" xmlns="http://www.w3.org/2000/svg" xmlns:xlink="http://www.w3.org/1999/xlink">
 <defs>
  <style type="text/css">
*{stroke-linecap:butt;stroke-linejoin:round;}
  </style>
 </defs>
 <g id="figure_1">
  <g id="patch_1">
   <path d="M 0 288 
L 504 288 
L 504 0 
L 0 0 
z
" style="fill:#ffffff;"/>
  </g>
  <g id="axes_1">
   <g id="patch_2">
    <path d="M 15.12 259.2 
L 110.766626 259.2 
L 110.766626 28.8 
L 15.12 28.8 
z
" style="fill:#ffffff;"/>
   </g>
   <g id="matplotlib.axis_1">
    <g id="xtick_1">
     <g id="line2d_1">
      <defs>
       <path d="M 0 0 
L 0 1.5 
" id="m4af75dd8a3" style="stroke:#000000;stroke-width:0.5;"/>
      </defs>
      <g>
       <use style="stroke:#000000;stroke-width:0.5;" x="91.876735" xlink:href="#m4af75dd8a3" y="259.2"/>
      </g>
     </g>
     <g id="text_1">
      <!-- 0.3 -->
      <defs>
       <path d="M 31.78125 66.40625 
Q 24.171875 66.40625 20.328125 58.90625 
Q 16.5 51.421875 16.5 36.375 
Q 16.5 21.390625 20.328125 13.890625 
Q 24.171875 6.390625 31.78125 6.390625 
Q 39.453125 6.390625 43.28125 13.890625 
Q 47.125 21.390625 47.125 36.375 
Q 47.125 51.421875 43.28125 58.90625 
Q 39.453125 66.40625 31.78125 66.40625 
z
M 31.78125 74.21875 
Q 44.046875 74.21875 50.515625 64.515625 
Q 56.984375 54.828125 56.984375 36.375 
Q 56.984375 17.96875 50.515625 8.265625 
Q 44.046875 -1.421875 31.78125 -1.421875 
Q 19.53125 -1.421875 13.0625 8.265625 
Q 6.59375 17.96875 6.59375 36.375 
Q 6.59375 54.828125 13.0625 64.515625 
Q 19.53125 74.21875 31.78125 74.21875 
z
" id="DejaVuSans-48"/>
       <path d="M 10.6875 12.40625 
L 21 12.40625 
L 21 0 
L 10.6875 0 
z
" id="DejaVuSans-46"/>
       <path d="M 40.578125 39.3125 
Q 47.65625 37.796875 51.625 33 
Q 55.609375 28.21875 55.609375 21.1875 
Q 55.609375 10.40625 48.1875 4.484375 
Q 40.765625 -1.421875 27.09375 -1.421875 
Q 22.515625 -1.421875 17.65625 -0.515625 
Q 12.796875 0.390625 7.625 2.203125 
L 7.625 11.71875 
Q 11.71875 9.328125 16.59375 8.109375 
Q 21.484375 6.890625 26.8125 6.890625 
Q 36.078125 6.890625 40.9375 10.546875 
Q 45.796875 14.203125 45.796875 21.1875 
Q 45.796875 27.640625 41.28125 31.265625 
Q 36.765625 34.90625 28.71875 34.90625 
L 20.21875 34.90625 
L 20.21875 43.015625 
L 29.109375 43.015625 
Q 36.375 43.015625 40.234375 45.921875 
Q 44.09375 48.828125 44.09375 54.296875 
Q 44.09375 59.90625 40.109375 62.90625 
Q 36.140625 65.921875 28.71875 65.921875 
Q 24.65625 65.921875 20.015625 65.03125 
Q 15.375 64.15625 9.8125 62.3125 
L 9.8125 71.09375 
Q 15.4375 72.65625 20.34375 73.4375 
Q 25.25 74.21875 29.59375 74.21875 
Q 40.828125 74.21875 47.359375 69.109375 
Q 53.90625 64.015625 53.90625 55.328125 
Q 53.90625 49.265625 50.4375 45.09375 
Q 46.96875 40.921875 40.578125 39.3125 
z
" id="DejaVuSans-51"/>
      </defs>
      <g transform="translate(87.503376 268.379141)scale(0.055 -0.055)">
       <use xlink:href="#DejaVuSans-48"/>
       <use x="63.623047" xlink:href="#DejaVuSans-46"/>
       <use x="95.410156" xlink:href="#DejaVuSans-51"/>
      </g>
     </g>
    </g>
    <g id="xtick_2">
     <g id="line2d_2">
      <g>
       <use style="stroke:#000000;stroke-width:0.5;" x="72.986845" xlink:href="#m4af75dd8a3" y="259.2"/>
      </g>
     </g>
     <g id="text_2">
      <!-- 0.6 -->
      <defs>
       <path d="M 33.015625 40.375 
Q 26.375 40.375 22.484375 35.828125 
Q 18.609375 31.296875 18.609375 23.390625 
Q 18.609375 15.53125 22.484375 10.953125 
Q 26.375 6.390625 33.015625 6.390625 
Q 39.65625 6.390625 43.53125 10.953125 
Q 47.40625 15.53125 47.40625 23.390625 
Q 47.40625 31.296875 43.53125 35.828125 
Q 39.65625 40.375 33.015625 40.375 
z
M 52.59375 71.296875 
L 52.59375 62.3125 
Q 48.875 64.0625 45.09375 64.984375 
Q 41.3125 65.921875 37.59375 65.921875 
Q 27.828125 65.921875 22.671875 59.328125 
Q 17.53125 52.734375 16.796875 39.40625 
Q 19.671875 43.65625 24.015625 45.921875 
Q 28.375 48.1875 33.59375 48.1875 
Q 44.578125 48.1875 50.953125 41.515625 
Q 57.328125 34.859375 57.328125 23.390625 
Q 57.328125 12.15625 50.6875 5.359375 
Q 44.046875 -1.421875 33.015625 -1.421875 
Q 20.359375 -1.421875 13.671875 8.265625 
Q 6.984375 17.96875 6.984375 36.375 
Q 6.984375 53.65625 15.1875 63.9375 
Q 23.390625 74.21875 37.203125 74.21875 
Q 40.921875 74.21875 44.703125 73.484375 
Q 48.484375 72.75 52.59375 71.296875 
z
" id="DejaVuSans-54"/>
      </defs>
      <g transform="translate(68.613485 268.379141)scale(0.055 -0.055)">
       <use xlink:href="#DejaVuSans-48"/>
       <use x="63.623047" xlink:href="#DejaVuSans-46"/>
       <use x="95.410156" xlink:href="#DejaVuSans-54"/>
      </g>
     </g>
    </g>
    <g id="xtick_3">
     <g id="line2d_3">
      <g>
       <use style="stroke:#000000;stroke-width:0.5;" x="54.096954" xlink:href="#m4af75dd8a3" y="259.2"/>
      </g>
     </g>
     <g id="text_3">
      <!-- 0.9 -->
      <defs>
       <path d="M 10.984375 1.515625 
L 10.984375 10.5 
Q 14.703125 8.734375 18.5 7.8125 
Q 22.3125 6.890625 25.984375 6.890625 
Q 35.75 6.890625 40.890625 13.453125 
Q 46.046875 20.015625 46.78125 33.40625 
Q 43.953125 29.203125 39.59375 26.953125 
Q 35.25 24.703125 29.984375 24.703125 
Q 19.046875 24.703125 12.671875 31.3125 
Q 6.296875 37.9375 6.296875 49.421875 
Q 6.296875 60.640625 12.9375 67.421875 
Q 19.578125 74.21875 30.609375 74.21875 
Q 43.265625 74.21875 49.921875 64.515625 
Q 56.59375 54.828125 56.59375 36.375 
Q 56.59375 19.140625 48.40625 8.859375 
Q 40.234375 -1.421875 26.421875 -1.421875 
Q 22.703125 -1.421875 18.890625 -0.6875 
Q 15.09375 0.046875 10.984375 1.515625 
z
M 30.609375 32.421875 
Q 37.25 32.421875 41.125 36.953125 
Q 45.015625 41.5 45.015625 49.421875 
Q 45.015625 57.28125 41.125 61.84375 
Q 37.25 66.40625 30.609375 66.40625 
Q 23.96875 66.40625 20.09375 61.84375 
Q 16.21875 57.28125 16.21875 49.421875 
Q 16.21875 41.5 20.09375 36.953125 
Q 23.96875 32.421875 30.609375 32.421875 
z
" id="DejaVuSans-57"/>
      </defs>
      <g transform="translate(49.723595 268.379141)scale(0.055 -0.055)">
       <use xlink:href="#DejaVuSans-48"/>
       <use x="63.623047" xlink:href="#DejaVuSans-46"/>
       <use x="95.410156" xlink:href="#DejaVuSans-57"/>
      </g>
     </g>
    </g>
    <g id="xtick_4">
     <g id="line2d_4">
      <g>
       <use style="stroke:#000000;stroke-width:0.5;" x="35.207063" xlink:href="#m4af75dd8a3" y="259.2"/>
      </g>
     </g>
     <g id="text_4">
      <!-- 1.2 -->
      <defs>
       <path d="M 12.40625 8.296875 
L 28.515625 8.296875 
L 28.515625 63.921875 
L 10.984375 60.40625 
L 10.984375 69.390625 
L 28.421875 72.90625 
L 38.28125 72.90625 
L 38.28125 8.296875 
L 54.390625 8.296875 
L 54.390625 0 
L 12.40625 0 
z
" id="DejaVuSans-49"/>
       <path d="M 19.1875 8.296875 
L 53.609375 8.296875 
L 53.609375 0 
L 7.328125 0 
L 7.328125 8.296875 
Q 12.9375 14.109375 22.625 23.890625 
Q 32.328125 33.6875 34.8125 36.53125 
Q 39.546875 41.84375 41.421875 45.53125 
Q 43.3125 49.21875 43.3125 52.78125 
Q 43.3125 58.59375 39.234375 62.25 
Q 35.15625 65.921875 28.609375 65.921875 
Q 23.96875 65.921875 18.8125 64.3125 
Q 13.671875 62.703125 7.8125 59.421875 
L 7.8125 69.390625 
Q 13.765625 71.78125 18.9375 73 
Q 24.125 74.21875 28.421875 74.21875 
Q 39.75 74.21875 46.484375 68.546875 
Q 53.21875 62.890625 53.21875 53.421875 
Q 53.21875 48.921875 51.53125 44.890625 
Q 49.859375 40.875 45.40625 35.40625 
Q 44.1875 33.984375 37.640625 27.21875 
Q 31.109375 20.453125 19.1875 8.296875 
z
" id="DejaVuSans-50"/>
      </defs>
      <g transform="translate(30.833704 268.379141)scale(0.055 -0.055)">
       <use xlink:href="#DejaVuSans-49"/>
       <use x="63.623047" xlink:href="#DejaVuSans-46"/>
       <use x="95.410156" xlink:href="#DejaVuSans-50"/>
      </g>
     </g>
    </g>
    <g id="xtick_5">
     <g id="line2d_5">
      <g>
       <use style="stroke:#000000;stroke-width:0.5;" x="16.317173" xlink:href="#m4af75dd8a3" y="259.2"/>
      </g>
     </g>
     <g id="text_5">
      <!-- 1.5 -->
      <defs>
       <path d="M 10.796875 72.90625 
L 49.515625 72.90625 
L 49.515625 64.59375 
L 19.828125 64.59375 
L 19.828125 46.734375 
Q 21.96875 47.46875 24.109375 47.828125 
Q 26.265625 48.1875 28.421875 48.1875 
Q 40.625 48.1875 47.75 41.5 
Q 54.890625 34.8125 54.890625 23.390625 
Q 54.890625 11.625 47.5625 5.09375 
Q 40.234375 -1.421875 26.90625 -1.421875 
Q 22.3125 -1.421875 17.546875 -0.640625 
Q 12.796875 0.140625 7.71875 1.703125 
L 7.71875 11.625 
Q 12.109375 9.234375 16.796875 8.0625 
Q 21.484375 6.890625 26.703125 6.890625 
Q 35.15625 6.890625 40.078125 11.328125 
Q 45.015625 15.765625 45.015625 23.390625 
Q 45.015625 31 40.078125 35.4375 
Q 35.15625 39.890625 26.703125 39.890625 
Q 22.75 39.890625 18.8125 39.015625 
Q 14.890625 38.140625 10.796875 36.28125 
z
" id="DejaVuSans-53"/>
      </defs>
      <g transform="translate(11.943813 268.379141)scale(0.055 -0.055)">
       <use xlink:href="#DejaVuSans-49"/>
       <use x="63.623047" xlink:href="#DejaVuSans-46"/>
       <use x="95.410156" xlink:href="#DejaVuSans-53"/>
      </g>
     </g>
    </g>
    <g id="text_6">
     <!-- Distance -->
     <defs>
      <path d="M 19.671875 64.796875 
L 19.671875 8.109375 
L 31.59375 8.109375 
Q 46.6875 8.109375 53.6875 14.9375 
Q 60.6875 21.78125 60.6875 36.53125 
Q 60.6875 51.171875 53.6875 57.984375 
Q 46.6875 64.796875 31.59375 64.796875 
z
M 9.8125 72.90625 
L 30.078125 72.90625 
Q 51.265625 72.90625 61.171875 64.09375 
Q 71.09375 55.28125 71.09375 36.53125 
Q 71.09375 17.671875 61.125 8.828125 
Q 51.171875 0 30.078125 0 
L 9.8125 0 
z
" id="DejaVuSans-68"/>
      <path d="M 9.421875 54.6875 
L 18.40625 54.6875 
L 18.40625 0 
L 9.421875 0 
z
M 9.421875 75.984375 
L 18.40625 75.984375 
L 18.40625 64.59375 
L 9.421875 64.59375 
z
" id="DejaVuSans-105"/>
      <path d="M 44.28125 53.078125 
L 44.28125 44.578125 
Q 40.484375 46.53125 36.375 47.5 
Q 32.28125 48.484375 27.875 48.484375 
Q 21.1875 48.484375 17.84375 46.4375 
Q 14.5 44.390625 14.5 40.28125 
Q 14.5 37.15625 16.890625 35.375 
Q 19.28125 33.59375 26.515625 31.984375 
L 29.59375 31.296875 
Q 39.15625 29.25 43.1875 25.515625 
Q 47.21875 21.78125 47.21875 15.09375 
Q 47.21875 7.46875 41.1875 3.015625 
Q 35.15625 -1.421875 24.609375 -1.421875 
Q 20.21875 -1.421875 15.453125 -0.5625 
Q 10.6875 0.296875 5.421875 2 
L 5.421875 11.28125 
Q 10.40625 8.6875 15.234375 7.390625 
Q 20.0625 6.109375 24.8125 6.109375 
Q 31.15625 6.109375 34.5625 8.28125 
Q 37.984375 10.453125 37.984375 14.40625 
Q 37.984375 18.0625 35.515625 20.015625 
Q 33.0625 21.96875 24.703125 23.78125 
L 21.578125 24.515625 
Q 13.234375 26.265625 9.515625 29.90625 
Q 5.8125 33.546875 5.8125 39.890625 
Q 5.8125 47.609375 11.28125 51.796875 
Q 16.75 56 26.8125 56 
Q 31.78125 56 36.171875 55.265625 
Q 40.578125 54.546875 44.28125 53.078125 
z
" id="DejaVuSans-115"/>
      <path d="M 18.3125 70.21875 
L 18.3125 54.6875 
L 36.8125 54.6875 
L 36.8125 47.703125 
L 18.3125 47.703125 
L 18.3125 18.015625 
Q 18.3125 11.328125 20.140625 9.421875 
Q 21.96875 7.515625 27.59375 7.515625 
L 36.8125 7.515625 
L 36.8125 0 
L 27.59375 0 
Q 17.1875 0 13.234375 3.875 
Q 9.28125 7.765625 9.28125 18.015625 
L 9.28125 47.703125 
L 2.6875 47.703125 
L 2.6875 54.6875 
L 9.28125 54.6875 
L 9.28125 70.21875 
z
" id="DejaVuSans-116"/>
      <path d="M 34.28125 27.484375 
Q 23.390625 27.484375 19.1875 25 
Q 14.984375 22.515625 14.984375 16.5 
Q 14.984375 11.71875 18.140625 8.90625 
Q 21.296875 6.109375 26.703125 6.109375 
Q 34.1875 6.109375 38.703125 11.40625 
Q 43.21875 16.703125 43.21875 25.484375 
L 43.21875 27.484375 
z
M 52.203125 31.203125 
L 52.203125 0 
L 43.21875 0 
L 43.21875 8.296875 
Q 40.140625 3.328125 35.546875 0.953125 
Q 30.953125 -1.421875 24.3125 -1.421875 
Q 15.921875 -1.421875 10.953125 3.296875 
Q 6 8.015625 6 15.921875 
Q 6 25.140625 12.171875 29.828125 
Q 18.359375 34.515625 30.609375 34.515625 
L 43.21875 34.515625 
L 43.21875 35.40625 
Q 43.21875 41.609375 39.140625 45 
Q 35.0625 48.390625 27.6875 48.390625 
Q 23 48.390625 18.546875 47.265625 
Q 14.109375 46.140625 10.015625 43.890625 
L 10.015625 52.203125 
Q 14.9375 54.109375 19.578125 55.046875 
Q 24.21875 56 28.609375 56 
Q 40.484375 56 46.34375 49.84375 
Q 52.203125 43.703125 52.203125 31.203125 
z
" id="DejaVuSans-97"/>
      <path d="M 54.890625 33.015625 
L 54.890625 0 
L 45.90625 0 
L 45.90625 32.71875 
Q 45.90625 40.484375 42.875 44.328125 
Q 39.84375 48.1875 33.796875 48.1875 
Q 26.515625 48.1875 22.3125 43.546875 
Q 18.109375 38.921875 18.109375 30.90625 
L 18.109375 0 
L 9.078125 0 
L 9.078125 54.6875 
L 18.109375 54.6875 
L 18.109375 46.1875 
Q 21.34375 51.125 25.703125 53.5625 
Q 30.078125 56 35.796875 56 
Q 45.21875 56 50.046875 50.171875 
Q 54.890625 44.34375 54.890625 33.015625 
z
" id="DejaVuSans-110"/>
      <path d="M 48.78125 52.59375 
L 48.78125 44.1875 
Q 44.96875 46.296875 41.140625 47.34375 
Q 37.3125 48.390625 33.40625 48.390625 
Q 24.65625 48.390625 19.8125 42.84375 
Q 14.984375 37.3125 14.984375 27.296875 
Q 14.984375 17.28125 19.8125 11.734375 
Q 24.65625 6.203125 33.40625 6.203125 
Q 37.3125 6.203125 41.140625 7.25 
Q 44.96875 8.296875 48.78125 10.40625 
L 48.78125 2.09375 
Q 45.015625 0.34375 40.984375 -0.53125 
Q 36.96875 -1.421875 32.421875 -1.421875 
Q 20.0625 -1.421875 12.78125 6.34375 
Q 5.515625 14.109375 5.515625 27.296875 
Q 5.515625 40.671875 12.859375 48.328125 
Q 20.21875 56 33.015625 56 
Q 37.15625 56 41.109375 55.140625 
Q 45.0625 54.296875 48.78125 52.59375 
z
" id="DejaVuSans-99"/>
      <path d="M 56.203125 29.59375 
L 56.203125 25.203125 
L 14.890625 25.203125 
Q 15.484375 15.921875 20.484375 11.0625 
Q 25.484375 6.203125 34.421875 6.203125 
Q 39.59375 6.203125 44.453125 7.46875 
Q 49.3125 8.734375 54.109375 11.28125 
L 54.109375 2.78125 
Q 49.265625 0.734375 44.1875 -0.34375 
Q 39.109375 -1.421875 33.890625 -1.421875 
Q 20.796875 -1.421875 13.15625 6.1875 
Q 5.515625 13.8125 5.515625 26.8125 
Q 5.515625 40.234375 12.765625 48.109375 
Q 20.015625 56 32.328125 56 
Q 43.359375 56 49.78125 48.890625 
Q 56.203125 41.796875 56.203125 29.59375 
z
M 47.21875 32.234375 
Q 47.125 39.59375 43.09375 43.984375 
Q 39.0625 48.390625 32.421875 48.390625 
Q 24.90625 48.390625 20.390625 44.140625 
Q 15.875 39.890625 15.1875 32.171875 
z
" id="DejaVuSans-101"/>
     </defs>
     <g transform="translate(48.732688 278.461953)scale(0.065 -0.065)">
      <use xlink:href="#DejaVuSans-68"/>
      <use x="77.001953" xlink:href="#DejaVuSans-105"/>
      <use x="104.785156" xlink:href="#DejaVuSans-115"/>
      <use x="156.884766" xlink:href="#DejaVuSans-116"/>
      <use x="196.09375" xlink:href="#DejaVuSans-97"/>
      <use x="257.373047" xlink:href="#DejaVuSans-110"/>
      <use x="320.751953" xlink:href="#DejaVuSans-99"/>
      <use x="375.732422" xlink:href="#DejaVuSans-101"/>
     </g>
    </g>
   </g>
   <g id="matplotlib.axis_2">
    <g id="text_7">
     <!-- Evolved Ligands from Final Populations -->
     <defs>
      <path d="M 9.8125 72.90625 
L 55.90625 72.90625 
L 55.90625 64.59375 
L 19.671875 64.59375 
L 19.671875 43.015625 
L 54.390625 43.015625 
L 54.390625 34.71875 
L 19.671875 34.71875 
L 19.671875 8.296875 
L 56.78125 8.296875 
L 56.78125 0 
L 9.8125 0 
z
" id="DejaVuSans-69"/>
      <path d="M 2.984375 54.6875 
L 12.5 54.6875 
L 29.59375 8.796875 
L 46.6875 54.6875 
L 56.203125 54.6875 
L 35.6875 0 
L 23.484375 0 
z
" id="DejaVuSans-118"/>
      <path d="M 30.609375 48.390625 
Q 23.390625 48.390625 19.1875 42.75 
Q 14.984375 37.109375 14.984375 27.296875 
Q 14.984375 17.484375 19.15625 11.84375 
Q 23.34375 6.203125 30.609375 6.203125 
Q 37.796875 6.203125 41.984375 11.859375 
Q 46.1875 17.53125 46.1875 27.296875 
Q 46.1875 37.015625 41.984375 42.703125 
Q 37.796875 48.390625 30.609375 48.390625 
z
M 30.609375 56 
Q 42.328125 56 49.015625 48.375 
Q 55.71875 40.765625 55.71875 27.296875 
Q 55.71875 13.875 49.015625 6.21875 
Q 42.328125 -1.421875 30.609375 -1.421875 
Q 18.84375 -1.421875 12.171875 6.21875 
Q 5.515625 13.875 5.515625 27.296875 
Q 5.515625 40.765625 12.171875 48.375 
Q 18.84375 56 30.609375 56 
z
" id="DejaVuSans-111"/>
      <path d="M 9.421875 75.984375 
L 18.40625 75.984375 
L 18.40625 0 
L 9.421875 0 
z
" id="DejaVuSans-108"/>
      <path d="M 45.40625 46.390625 
L 45.40625 75.984375 
L 54.390625 75.984375 
L 54.390625 0 
L 45.40625 0 
L 45.40625 8.203125 
Q 42.578125 3.328125 38.25 0.953125 
Q 33.9375 -1.421875 27.875 -1.421875 
Q 17.96875 -1.421875 11.734375 6.484375 
Q 5.515625 14.40625 5.515625 27.296875 
Q 5.515625 40.1875 11.734375 48.09375 
Q 17.96875 56 27.875 56 
Q 33.9375 56 38.25 53.625 
Q 42.578125 51.265625 45.40625 46.390625 
z
M 14.796875 27.296875 
Q 14.796875 17.390625 18.875 11.75 
Q 22.953125 6.109375 30.078125 6.109375 
Q 37.203125 6.109375 41.296875 11.75 
Q 45.40625 17.390625 45.40625 27.296875 
Q 45.40625 37.203125 41.296875 42.84375 
Q 37.203125 48.484375 30.078125 48.484375 
Q 22.953125 48.484375 18.875 42.84375 
Q 14.796875 37.203125 14.796875 27.296875 
z
" id="DejaVuSans-100"/>
      <path id="DejaVuSans-32"/>
      <path d="M 9.8125 72.90625 
L 19.671875 72.90625 
L 19.671875 8.296875 
L 55.171875 8.296875 
L 55.171875 0 
L 9.8125 0 
z
" id="DejaVuSans-76"/>
      <path d="M 45.40625 27.984375 
Q 45.40625 37.75 41.375 43.109375 
Q 37.359375 48.484375 30.078125 48.484375 
Q 22.859375 48.484375 18.828125 43.109375 
Q 14.796875 37.75 14.796875 27.984375 
Q 14.796875 18.265625 18.828125 12.890625 
Q 22.859375 7.515625 30.078125 7.515625 
Q 37.359375 7.515625 41.375 12.890625 
Q 45.40625 18.265625 45.40625 27.984375 
z
M 54.390625 6.78125 
Q 54.390625 -7.171875 48.1875 -13.984375 
Q 42 -20.796875 29.203125 -20.796875 
Q 24.46875 -20.796875 20.265625 -20.09375 
Q 16.0625 -19.390625 12.109375 -17.921875 
L 12.109375 -9.1875 
Q 16.0625 -11.328125 19.921875 -12.34375 
Q 23.78125 -13.375 27.78125 -13.375 
Q 36.625 -13.375 41.015625 -8.765625 
Q 45.40625 -4.15625 45.40625 5.171875 
L 45.40625 9.625 
Q 42.625 4.78125 38.28125 2.390625 
Q 33.9375 0 27.875 0 
Q 17.828125 0 11.671875 7.65625 
Q 5.515625 15.328125 5.515625 27.984375 
Q 5.515625 40.671875 11.671875 48.328125 
Q 17.828125 56 27.875 56 
Q 33.9375 56 38.28125 53.609375 
Q 42.625 51.21875 45.40625 46.390625 
L 45.40625 54.6875 
L 54.390625 54.6875 
z
" id="DejaVuSans-103"/>
      <path d="M 37.109375 75.984375 
L 37.109375 68.5 
L 28.515625 68.5 
Q 23.6875 68.5 21.796875 66.546875 
Q 19.921875 64.59375 19.921875 59.515625 
L 19.921875 54.6875 
L 34.71875 54.6875 
L 34.71875 47.703125 
L 19.921875 47.703125 
L 19.921875 0 
L 10.890625 0 
L 10.890625 47.703125 
L 2.296875 47.703125 
L 2.296875 54.6875 
L 10.890625 54.6875 
L 10.890625 58.5 
Q 10.890625 67.625 15.140625 71.796875 
Q 19.390625 75.984375 28.609375 75.984375 
z
" id="DejaVuSans-102"/>
      <path d="M 41.109375 46.296875 
Q 39.59375 47.171875 37.8125 47.578125 
Q 36.03125 48 33.890625 48 
Q 26.265625 48 22.1875 43.046875 
Q 18.109375 38.09375 18.109375 28.8125 
L 18.109375 0 
L 9.078125 0 
L 9.078125 54.6875 
L 18.109375 54.6875 
L 18.109375 46.1875 
Q 20.953125 51.171875 25.484375 53.578125 
Q 30.03125 56 36.53125 56 
Q 37.453125 56 38.578125 55.875 
Q 39.703125 55.765625 41.0625 55.515625 
z
" id="DejaVuSans-114"/>
      <path d="M 52 44.1875 
Q 55.375 50.25 60.0625 53.125 
Q 64.75 56 71.09375 56 
Q 79.640625 56 84.28125 50.015625 
Q 88.921875 44.046875 88.921875 33.015625 
L 88.921875 0 
L 79.890625 0 
L 79.890625 32.71875 
Q 79.890625 40.578125 77.09375 44.375 
Q 74.3125 48.1875 68.609375 48.1875 
Q 61.625 48.1875 57.5625 43.546875 
Q 53.515625 38.921875 53.515625 30.90625 
L 53.515625 0 
L 44.484375 0 
L 44.484375 32.71875 
Q 44.484375 40.625 41.703125 44.40625 
Q 38.921875 48.1875 33.109375 48.1875 
Q 26.21875 48.1875 22.15625 43.53125 
Q 18.109375 38.875 18.109375 30.90625 
L 18.109375 0 
L 9.078125 0 
L 9.078125 54.6875 
L 18.109375 54.6875 
L 18.109375 46.1875 
Q 21.1875 51.21875 25.484375 53.609375 
Q 29.78125 56 35.6875 56 
Q 41.65625 56 45.828125 52.96875 
Q 50 49.953125 52 44.1875 
z
" id="DejaVuSans-109"/>
      <path d="M 9.8125 72.90625 
L 51.703125 72.90625 
L 51.703125 64.59375 
L 19.671875 64.59375 
L 19.671875 43.109375 
L 48.578125 43.109375 
L 48.578125 34.8125 
L 19.671875 34.8125 
L 19.671875 0 
L 9.8125 0 
z
" id="DejaVuSans-70"/>
      <path d="M 19.671875 64.796875 
L 19.671875 37.40625 
L 32.078125 37.40625 
Q 38.96875 37.40625 42.71875 40.96875 
Q 46.484375 44.53125 46.484375 51.125 
Q 46.484375 57.671875 42.71875 61.234375 
Q 38.96875 64.796875 32.078125 64.796875 
z
M 9.8125 72.90625 
L 32.078125 72.90625 
Q 44.34375 72.90625 50.609375 67.359375 
Q 56.890625 61.8125 56.890625 51.125 
Q 56.890625 40.328125 50.609375 34.8125 
Q 44.34375 29.296875 32.078125 29.296875 
L 19.671875 29.296875 
L 19.671875 0 
L 9.8125 0 
z
" id="DejaVuSans-80"/>
      <path d="M 18.109375 8.203125 
L 18.109375 -20.796875 
L 9.078125 -20.796875 
L 9.078125 54.6875 
L 18.109375 54.6875 
L 18.109375 46.390625 
Q 20.953125 51.265625 25.265625 53.625 
Q 29.59375 56 35.59375 56 
Q 45.5625 56 51.78125 48.09375 
Q 58.015625 40.1875 58.015625 27.296875 
Q 58.015625 14.40625 51.78125 6.484375 
Q 45.5625 -1.421875 35.59375 -1.421875 
Q 29.59375 -1.421875 25.265625 0.953125 
Q 20.953125 3.328125 18.109375 8.203125 
z
M 48.6875 27.296875 
Q 48.6875 37.203125 44.609375 42.84375 
Q 40.53125 48.484375 33.40625 48.484375 
Q 26.265625 48.484375 22.1875 42.84375 
Q 18.109375 37.203125 18.109375 27.296875 
Q 18.109375 17.390625 22.1875 11.75 
Q 26.265625 6.109375 33.40625 6.109375 
Q 40.53125 6.109375 44.609375 11.75 
Q 48.6875 17.390625 48.6875 27.296875 
z
" id="DejaVuSans-112"/>
      <path d="M 8.5 21.578125 
L 8.5 54.6875 
L 17.484375 54.6875 
L 17.484375 21.921875 
Q 17.484375 14.15625 20.5 10.265625 
Q 23.53125 6.390625 29.59375 6.390625 
Q 36.859375 6.390625 41.078125 11.03125 
Q 45.3125 15.671875 45.3125 23.6875 
L 45.3125 54.6875 
L 54.296875 54.6875 
L 54.296875 0 
L 45.3125 0 
L 45.3125 8.40625 
Q 42.046875 3.421875 37.71875 1 
Q 33.40625 -1.421875 27.6875 -1.421875 
Q 18.265625 -1.421875 13.375 4.4375 
Q 8.5 10.296875 8.5 21.578125 
z
M 31.109375 56 
z
" id="DejaVuSans-117"/>
     </defs>
     <g transform="translate(9.768203 207.389727)rotate(-90)scale(0.065 -0.065)">
      <use xlink:href="#DejaVuSans-69"/>
      <use x="63.183594" xlink:href="#DejaVuSans-118"/>
      <use x="122.363281" xlink:href="#DejaVuSans-111"/>
      <use x="183.544922" xlink:href="#DejaVuSans-108"/>
      <use x="211.328125" xlink:href="#DejaVuSans-118"/>
      <use x="270.507812" xlink:href="#DejaVuSans-101"/>
      <use x="332.03125" xlink:href="#DejaVuSans-100"/>
      <use x="395.507812" xlink:href="#DejaVuSans-32"/>
      <use x="427.294922" xlink:href="#DejaVuSans-76"/>
      <use x="483.007812" xlink:href="#DejaVuSans-105"/>
      <use x="510.791016" xlink:href="#DejaVuSans-103"/>
      <use x="574.267578" xlink:href="#DejaVuSans-97"/>
      <use x="635.546875" xlink:href="#DejaVuSans-110"/>
      <use x="698.925781" xlink:href="#DejaVuSans-100"/>
      <use x="762.402344" xlink:href="#DejaVuSans-115"/>
      <use x="814.501953" xlink:href="#DejaVuSans-32"/>
      <use x="846.289062" xlink:href="#DejaVuSans-102"/>
      <use x="881.494141" xlink:href="#DejaVuSans-114"/>
      <use x="920.357422" xlink:href="#DejaVuSans-111"/>
      <use x="981.539062" xlink:href="#DejaVuSans-109"/>
      <use x="1078.951172" xlink:href="#DejaVuSans-32"/>
      <use x="1110.738281" xlink:href="#DejaVuSans-70"/>
      <use x="1161.007812" xlink:href="#DejaVuSans-105"/>
      <use x="1188.791016" xlink:href="#DejaVuSans-110"/>
      <use x="1252.169922" xlink:href="#DejaVuSans-97"/>
      <use x="1313.449219" xlink:href="#DejaVuSans-108"/>
      <use x="1341.232422" xlink:href="#DejaVuSans-32"/>
      <use x="1373.019531" xlink:href="#DejaVuSans-80"/>
      <use x="1429.697266" xlink:href="#DejaVuSans-111"/>
      <use x="1490.878906" xlink:href="#DejaVuSans-112"/>
      <use x="1554.355469" xlink:href="#DejaVuSans-117"/>
      <use x="1617.734375" xlink:href="#DejaVuSans-108"/>
      <use x="1645.517578" xlink:href="#DejaVuSans-97"/>
      <use x="1706.796875" xlink:href="#DejaVuSans-116"/>
      <use x="1746.005859" xlink:href="#DejaVuSans-105"/>
      <use x="1773.789062" xlink:href="#DejaVuSans-111"/>
      <use x="1834.970703" xlink:href="#DejaVuSans-110"/>
      <use x="1898.349609" xlink:href="#DejaVuSans-115"/>
     </g>
    </g>
   </g>
   <g id="LineCollection_1">
    <path clip-path="url(#p4cd7b1326e)" d="M 110.766626 258.123364 
L 108.580545 258.123364 
L 108.580545 255.970093 
L 110.766626 255.970093 
" style="fill:none;stroke:#ff7f0e;"/>
    <path clip-path="url(#p4cd7b1326e)" d="M 108.580545 257.046729 
L 96.621668 257.046729 
L 96.621668 253.816822 
L 110.766626 253.816822 
" style="fill:none;stroke:#ff7f0e;"/>
    <path clip-path="url(#p4cd7b1326e)" d="M 110.766626 251.663551 
L 96.883533 251.663551 
L 96.883533 249.51028 
L 110.766626 249.51028 
" style="fill:none;stroke:#ff7f0e;"/>
    <path clip-path="url(#p4cd7b1326e)" d="M 96.621668 255.431776 
L 95.523527 255.431776 
L 95.523527 250.586916 
L 96.883533 250.586916 
" style="fill:none;stroke:#ff7f0e;"/>
    <path clip-path="url(#p4cd7b1326e)" d="M 110.766626 247.357009 
L 100.222611 247.357009 
L 100.222611 245.203738 
L 110.766626 245.203738 
" style="fill:none;stroke:#ff7f0e;"/>
    <path clip-path="url(#p4cd7b1326e)" d="M 95.523527 253.009346 
L 87.492945 253.009346 
L 87.492945 246.280374 
L 100.222611 246.280374 
" style="fill:none;stroke:#ff7f0e;"/>
    <path clip-path="url(#p4cd7b1326e)" d="M 110.766626 243.050467 
L 107.956656 243.050467 
L 107.956656 240.897196 
L 110.766626 240.897196 
" style="fill:none;stroke:#ff7f0e;"/>
    <path clip-path="url(#p4cd7b1326e)" d="M 107.956656 241.973832 
L 102.707886 241.973832 
L 102.707886 238.743925 
L 110.766626 238.743925 
" style="fill:none;stroke:#ff7f0e;"/>
    <path clip-path="url(#p4cd7b1326e)" d="M 102.707886 240.358879 
L 99.75957 240.358879 
L 99.75957 236.590654 
L 110.766626 236.590654 
" style="fill:none;stroke:#ff7f0e;"/>
    <path clip-path="url(#p4cd7b1326e)" d="M 110.766626 234.437383 
L 108.533105 234.437383 
L 108.533105 232.284112 
L 110.766626 232.284112 
" style="fill:none;stroke:#ff7f0e;"/>
    <path clip-path="url(#p4cd7b1326e)" d="M 108.533105 233.360748 
L 105.642987 233.360748 
L 105.642987 230.130841 
L 110.766626 230.130841 
" style="fill:none;stroke:#ff7f0e;"/>
    <path clip-path="url(#p4cd7b1326e)" d="M 99.75957 238.474766 
L 99.531359 238.474766 
L 99.531359 231.745794 
L 105.642987 231.745794 
" style="fill:none;stroke:#ff7f0e;"/>
    <path clip-path="url(#p4cd7b1326e)" d="M 99.531359 235.11028 
L 92.969485 235.11028 
L 92.969485 227.97757 
L 110.766626 227.97757 
" style="fill:none;stroke:#ff7f0e;"/>
    <path clip-path="url(#p4cd7b1326e)" d="M 87.492945 249.64486 
L 86.516917 249.64486 
L 86.516917 231.543925 
L 92.969485 231.543925 
" style="fill:none;stroke:#ff7f0e;"/>
    <path clip-path="url(#p4cd7b1326e)" d="M 110.766626 133.233645 
L 110.309863 133.233645 
L 110.309863 131.080374 
L 110.766626 131.080374 
" style="fill:none;stroke:#ff7f0e;"/>
    <path clip-path="url(#p4cd7b1326e)" d="M 110.309863 132.157009 
L 108.380524 132.157009 
L 108.380524 128.927103 
L 110.766626 128.927103 
" style="fill:none;stroke:#ff7f0e;"/>
    <path clip-path="url(#p4cd7b1326e)" d="M 108.380524 130.542056 
L 106.398115 130.542056 
L 106.398115 126.773832 
L 110.766626 126.773832 
" style="fill:none;stroke:#ff7f0e;"/>
    <path clip-path="url(#p4cd7b1326e)" d="M 106.398115 128.657944 
L 103.896263 128.657944 
L 103.896263 124.620561 
L 110.766626 124.620561 
" style="fill:none;stroke:#ff7f0e;"/>
    <path clip-path="url(#p4cd7b1326e)" d="M 103.896263 126.639252 
L 100.737513 126.639252 
L 100.737513 122.46729 
L 110.766626 122.46729 
" style="fill:none;stroke:#ff7f0e;"/>
    <path clip-path="url(#p4cd7b1326e)" d="M 110.766626 120.314019 
L 107.658529 120.314019 
L 107.658529 118.160748 
L 110.766626 118.160748 
" style="fill:none;stroke:#ff7f0e;"/>
    <path clip-path="url(#p4cd7b1326e)" d="M 107.658529 119.237383 
L 105.679181 119.237383 
L 105.679181 116.007477 
L 110.766626 116.007477 
" style="fill:none;stroke:#ff7f0e;"/>
    <path clip-path="url(#p4cd7b1326e)" d="M 105.679181 117.62243 
L 103.302355 117.62243 
L 103.302355 113.854206 
L 110.766626 113.854206 
" style="fill:none;stroke:#ff7f0e;"/>
    <path clip-path="url(#p4cd7b1326e)" d="M 100.737513 124.553271 
L 96.733852 124.553271 
L 96.733852 115.738318 
L 103.302355 115.738318 
" style="fill:none;stroke:#ff7f0e;"/>
    <path clip-path="url(#p4cd7b1326e)" d="M 110.766626 111.700935 
L 107.811608 111.700935 
L 107.811608 109.547664 
L 110.766626 109.547664 
" style="fill:none;stroke:#ff7f0e;"/>
    <path clip-path="url(#p4cd7b1326e)" d="M 107.811608 110.624299 
L 105.830109 110.624299 
L 105.830109 107.394393 
L 110.766626 107.394393 
" style="fill:none;stroke:#ff7f0e;"/>
    <path clip-path="url(#p4cd7b1326e)" d="M 105.830109 109.009346 
L 102.594071 109.009346 
L 102.594071 105.241121 
L 110.766626 105.241121 
" style="fill:none;stroke:#ff7f0e;"/>
    <path clip-path="url(#p4cd7b1326e)" d="M 110.766626 103.08785 
L 106.293093 103.08785 
L 106.293093 100.934579 
L 110.766626 100.934579 
" style="fill:none;stroke:#ff7f0e;"/>
    <path clip-path="url(#p4cd7b1326e)" d="M 102.594071 107.125234 
L 98.483936 107.125234 
L 98.483936 102.011215 
L 106.293093 102.011215 
" style="fill:none;stroke:#ff7f0e;"/>
    <path clip-path="url(#p4cd7b1326e)" d="M 96.733852 120.145794 
L 93.538395 120.145794 
L 93.538395 104.568224 
L 98.483936 104.568224 
" style="fill:none;stroke:#ff7f0e;"/>
    <path clip-path="url(#p4cd7b1326e)" d="M 93.538395 112.357009 
L 89.486285 112.357009 
L 89.486285 98.781308 
L 110.766626 98.781308 
" style="fill:none;stroke:#ff7f0e;"/>
    <path clip-path="url(#p4cd7b1326e)" d="M 110.766626 96.628037 
L 102.031037 96.628037 
L 102.031037 94.474766 
L 110.766626 94.474766 
" style="fill:none;stroke:#ff7f0e;"/>
    <path clip-path="url(#p4cd7b1326e)" d="M 110.766626 92.321495 
L 110.317608 92.321495 
L 110.317608 90.168224 
L 110.766626 90.168224 
" style="fill:none;stroke:#ff7f0e;"/>
    <path clip-path="url(#p4cd7b1326e)" d="M 110.317608 91.24486 
L 109.214745 91.24486 
L 109.214745 88.014953 
L 110.766626 88.014953 
" style="fill:none;stroke:#ff7f0e;"/>
    <path clip-path="url(#p4cd7b1326e)" d="M 109.214745 89.629907 
L 108.802459 89.629907 
L 108.802459 85.861682 
L 110.766626 85.861682 
" style="fill:none;stroke:#ff7f0e;"/>
    <path clip-path="url(#p4cd7b1326e)" d="M 108.802459 87.745794 
L 106.472206 87.745794 
L 106.472206 83.708411 
L 110.766626 83.708411 
" style="fill:none;stroke:#ff7f0e;"/>
    <path clip-path="url(#p4cd7b1326e)" d="M 106.472206 85.727103 
L 104.45445 85.727103 
L 104.45445 81.55514 
L 110.766626 81.55514 
" style="fill:none;stroke:#ff7f0e;"/>
    <path clip-path="url(#p4cd7b1326e)" d="M 102.031037 95.551402 
L 99.4734 95.551402 
L 99.4734 83.641121 
L 104.45445 83.641121 
" style="fill:none;stroke:#ff7f0e;"/>
    <path clip-path="url(#p4cd7b1326e)" d="M 99.4734 89.596262 
L 95.015687 89.596262 
L 95.015687 79.401869 
L 110.766626 79.401869 
" style="fill:none;stroke:#ff7f0e;"/>
    <path clip-path="url(#p4cd7b1326e)" d="M 110.766626 77.248598 
L 109.134124 77.248598 
L 109.134124 75.095327 
L 110.766626 75.095327 
" style="fill:none;stroke:#ff7f0e;"/>
    <path clip-path="url(#p4cd7b1326e)" d="M 109.134124 76.171963 
L 97.483909 76.171963 
L 97.483909 72.942056 
L 110.766626 72.942056 
" style="fill:none;stroke:#ff7f0e;"/>
    <path clip-path="url(#p4cd7b1326e)" d="M 95.015687 84.499065 
L 93.524769 84.499065 
L 93.524769 74.557009 
L 97.483909 74.557009 
" style="fill:none;stroke:#ff7f0e;"/>
    <path clip-path="url(#p4cd7b1326e)" d="M 110.766626 70.788785 
L 109.231923 70.788785 
L 109.231923 68.635514 
L 110.766626 68.635514 
" style="fill:none;stroke:#ff7f0e;"/>
    <path clip-path="url(#p4cd7b1326e)" d="M 109.231923 69.71215 
L 98.568019 69.71215 
L 98.568019 66.482243 
L 110.766626 66.482243 
" style="fill:none;stroke:#ff7f0e;"/>
    <path clip-path="url(#p4cd7b1326e)" d="M 110.766626 64.328972 
L 99.059801 64.328972 
L 99.059801 62.175701 
L 110.766626 62.175701 
" style="fill:none;stroke:#ff7f0e;"/>
    <path clip-path="url(#p4cd7b1326e)" d="M 98.568019 68.097196 
L 94.98028 68.097196 
L 94.98028 63.252336 
L 99.059801 63.252336 
" style="fill:none;stroke:#ff7f0e;"/>
    <path clip-path="url(#p4cd7b1326e)" d="M 93.524769 79.528037 
L 91.402879 79.528037 
L 91.402879 65.674766 
L 94.98028 65.674766 
" style="fill:none;stroke:#ff7f0e;"/>
    <path clip-path="url(#p4cd7b1326e)" d="M 89.486285 105.569159 
L 86.046078 105.569159 
L 86.046078 72.601402 
L 91.402879 72.601402 
" style="fill:none;stroke:#ff7f0e;"/>
   </g>
   <g id="LineCollection_2">
    <path clip-path="url(#p4cd7b1326e)" d="M 110.766626 225.824299 
L 91.835719 225.824299 
L 91.835719 223.671028 
L 110.766626 223.671028 
" style="fill:none;stroke:#2ca02c;"/>
    <path clip-path="url(#p4cd7b1326e)" d="M 110.766626 60.02243 
L 108.900266 60.02243 
L 108.900266 57.869159 
L 110.766626 57.869159 
" style="fill:none;stroke:#2ca02c;"/>
    <path clip-path="url(#p4cd7b1326e)" d="M 110.766626 55.715888 
L 109.588092 55.715888 
L 109.588092 53.562617 
L 110.766626 53.562617 
" style="fill:none;stroke:#2ca02c;"/>
    <path clip-path="url(#p4cd7b1326e)" d="M 108.900266 58.945794 
L 104.908589 58.945794 
L 104.908589 54.639252 
L 109.588092 54.639252 
" style="fill:none;stroke:#2ca02c;"/>
   </g>
   <g id="LineCollection_3">
    <path clip-path="url(#p4cd7b1326e)" d="M 110.766626 221.517757 
L 92.446434 221.517757 
L 92.446434 219.364486 
L 110.766626 219.364486 
" style="fill:none;stroke:#d62728;"/>
    <path clip-path="url(#p4cd7b1326e)" d="M 110.766626 51.409346 
L 98.920629 51.409346 
L 98.920629 49.256075 
L 110.766626 49.256075 
" style="fill:none;stroke:#d62728;"/>
   </g>
   <g id="LineCollection_4">
    <path clip-path="url(#p4cd7b1326e)" d="M 110.766626 217.211215 
L 103.966997 217.211215 
L 103.966997 215.057944 
L 110.766626 215.057944 
" style="fill:none;stroke:#9467bd;"/>
    <path clip-path="url(#p4cd7b1326e)" d="M 103.966997 216.134579 
L 99.048959 216.134579 
L 99.048959 212.904673 
L 110.766626 212.904673 
" style="fill:none;stroke:#9467bd;"/>
    <path clip-path="url(#p4cd7b1326e)" d="M 110.766626 210.751402 
L 106.798375 210.751402 
L 106.798375 208.598131 
L 110.766626 208.598131 
" style="fill:none;stroke:#9467bd;"/>
    <path clip-path="url(#p4cd7b1326e)" d="M 106.798375 209.674766 
L 102.457924 209.674766 
L 102.457924 206.44486 
L 110.766626 206.44486 
" style="fill:none;stroke:#9467bd;"/>
    <path clip-path="url(#p4cd7b1326e)" d="M 99.048959 214.519626 
L 97.078136 214.519626 
L 97.078136 208.059813 
L 102.457924 208.059813 
" style="fill:none;stroke:#9467bd;"/>
    <path clip-path="url(#p4cd7b1326e)" d="M 97.078136 211.28972 
L 93.191339 211.28972 
L 93.191339 204.291589 
L 110.766626 204.291589 
" style="fill:none;stroke:#9467bd;"/>
    <path clip-path="url(#p4cd7b1326e)" d="M 110.766626 202.138318 
L 107.394618 202.138318 
L 107.394618 199.985047 
L 110.766626 199.985047 
" style="fill:none;stroke:#9467bd;"/>
    <path clip-path="url(#p4cd7b1326e)" d="M 93.191339 207.790654 
L 86.906349 207.790654 
L 86.906349 201.061682 
L 107.394618 201.061682 
" style="fill:none;stroke:#9467bd;"/>
    <path clip-path="url(#p4cd7b1326e)" d="M 110.766626 47.102804 
L 109.238213 47.102804 
L 109.238213 44.949533 
L 110.766626 44.949533 
" style="fill:none;stroke:#9467bd;"/>
    <path clip-path="url(#p4cd7b1326e)" d="M 109.238213 46.026168 
L 98.4179 46.026168 
L 98.4179 42.796262 
L 110.766626 42.796262 
" style="fill:none;stroke:#9467bd;"/>
    <path clip-path="url(#p4cd7b1326e)" d="M 98.4179 44.411215 
L 87.085549 44.411215 
L 87.085549 40.642991 
L 110.766626 40.642991 
" style="fill:none;stroke:#9467bd;"/>
   </g>
   <g id="LineCollection_5">
    <path clip-path="url(#p4cd7b1326e)" d="M 110.766626 197.831776 
L 91.828764 197.831776 
L 91.828764 195.678505 
L 110.766626 195.678505 
" style="fill:none;stroke:#8c564b;"/>
    <path clip-path="url(#p4cd7b1326e)" d="M 110.766626 38.48972 
L 100.311834 38.48972 
L 100.311834 36.336449 
L 110.766626 36.336449 
" style="fill:none;stroke:#8c564b;"/>
    <path clip-path="url(#p4cd7b1326e)" d="M 100.311834 37.413084 
L 88.625397 37.413084 
L 88.625397 34.183178 
L 110.766626 34.183178 
" style="fill:none;stroke:#8c564b;"/>
   </g>
   <g id="LineCollection_6">
    <path clip-path="url(#p4cd7b1326e)" d="M 110.766626 193.525234 
L 105.366688 193.525234 
L 105.366688 191.371963 
L 110.766626 191.371963 
" style="fill:none;stroke:#e377c2;"/>
    <path clip-path="url(#p4cd7b1326e)" d="M 110.766626 189.218692 
L 107.509063 189.218692 
L 107.509063 187.065421 
L 110.766626 187.065421 
" style="fill:none;stroke:#e377c2;"/>
    <path clip-path="url(#p4cd7b1326e)" d="M 105.366688 192.448598 
L 103.02907 192.448598 
L 103.02907 188.142056 
L 107.509063 188.142056 
" style="fill:none;stroke:#e377c2;"/>
    <path clip-path="url(#p4cd7b1326e)" d="M 110.766626 184.91215 
L 109.058937 184.91215 
L 109.058937 182.758879 
L 110.766626 182.758879 
" style="fill:none;stroke:#e377c2;"/>
    <path clip-path="url(#p4cd7b1326e)" d="M 109.058937 183.835514 
L 105.775853 183.835514 
L 105.775853 180.605607 
L 110.766626 180.605607 
" style="fill:none;stroke:#e377c2;"/>
    <path clip-path="url(#p4cd7b1326e)" d="M 105.775853 182.220561 
L 104.237971 182.220561 
L 104.237971 178.452336 
L 110.766626 178.452336 
" style="fill:none;stroke:#e377c2;"/>
    <path clip-path="url(#p4cd7b1326e)" d="M 103.02907 190.295327 
L 98.267737 190.295327 
L 98.267737 180.336449 
L 104.237971 180.336449 
" style="fill:none;stroke:#e377c2;"/>
    <path clip-path="url(#p4cd7b1326e)" d="M 110.766626 176.299065 
L 102.703628 176.299065 
L 102.703628 174.145794 
L 110.766626 174.145794 
" style="fill:none;stroke:#e377c2;"/>
    <path clip-path="url(#p4cd7b1326e)" d="M 102.703628 175.22243 
L 98.567244 175.22243 
L 98.567244 171.992523 
L 110.766626 171.992523 
" style="fill:none;stroke:#e377c2;"/>
    <path clip-path="url(#p4cd7b1326e)" d="M 98.267737 185.315888 
L 92.364942 185.315888 
L 92.364942 173.607477 
L 98.567244 173.607477 
" style="fill:none;stroke:#e377c2;"/>
    <path clip-path="url(#p4cd7b1326e)" d="M 110.766626 169.839252 
L 99.705532 169.839252 
L 99.705532 167.685981 
L 110.766626 167.685981 
" style="fill:none;stroke:#e377c2;"/>
    <path clip-path="url(#p4cd7b1326e)" d="M 99.705532 168.762617 
L 98.829787 168.762617 
L 98.829787 165.53271 
L 110.766626 165.53271 
" style="fill:none;stroke:#e377c2;"/>
    <path clip-path="url(#p4cd7b1326e)" d="M 92.364942 179.461682 
L 87.91518 179.461682 
L 87.91518 167.147664 
L 98.829787 167.147664 
" style="fill:none;stroke:#e377c2;"/>
    <path clip-path="url(#p4cd7b1326e)" d="M 110.766626 163.379439 
L 100.1764 163.379439 
L 100.1764 161.226168 
L 110.766626 161.226168 
" style="fill:none;stroke:#e377c2;"/>
    <path clip-path="url(#p4cd7b1326e)" d="M 100.1764 162.302804 
L 96.188493 162.302804 
L 96.188493 159.072897 
L 110.766626 159.072897 
" style="fill:none;stroke:#e377c2;"/>
    <path clip-path="url(#p4cd7b1326e)" d="M 87.91518 173.304673 
L 87.127848 173.304673 
L 87.127848 160.68785 
L 96.188493 160.68785 
" style="fill:none;stroke:#e377c2;"/>
   </g>
   <g id="LineCollection_7">
    <path clip-path="url(#p4cd7b1326e)" d="M 110.766626 156.919626 
L 110.766626 156.919626 
L 110.766626 154.766355 
L 110.766626 154.766355 
" style="fill:none;stroke:#7f7f7f;"/>
    <path clip-path="url(#p4cd7b1326e)" d="M 110.766626 155.842991 
L 107.65582 155.842991 
L 107.65582 152.613084 
L 110.766626 152.613084 
" style="fill:none;stroke:#7f7f7f;"/>
    <path clip-path="url(#p4cd7b1326e)" d="M 107.65582 154.228037 
L 94.700806 154.228037 
L 94.700806 150.459813 
L 110.766626 150.459813 
" style="fill:none;stroke:#7f7f7f;"/>
    <path clip-path="url(#p4cd7b1326e)" d="M 94.700806 152.343925 
L 89.700442 152.343925 
L 89.700442 148.306542 
L 110.766626 148.306542 
" style="fill:none;stroke:#7f7f7f;"/>
   </g>
   <g id="LineCollection_8">
    <path clip-path="url(#p4cd7b1326e)" d="M 110.766626 144 
L 97.366287 144 
L 97.366287 141.846729 
L 110.766626 141.846729 
" style="fill:none;stroke:#bcbd22;"/>
    <path clip-path="url(#p4cd7b1326e)" d="M 97.366287 142.923364 
L 89.592719 142.923364 
L 89.592719 139.693458 
L 110.766626 139.693458 
" style="fill:none;stroke:#bcbd22;"/>
   </g>
   <g id="LineCollection_9">
    <path clip-path="url(#p4cd7b1326e)" d="M 110.766626 137.540187 
L 103.019808 137.540187 
L 103.019808 135.386916 
L 110.766626 135.386916 
" style="fill:none;stroke:#17becf;"/>
   </g>
   <g id="LineCollection_10">
    <path clip-path="url(#p4cd7b1326e)" d="M 86.516917 240.594393 
L 82.827215 240.594393 
L 82.827215 224.747664 
L 91.835719 224.747664 
" style="fill:none;stroke:#1f77b4;"/>
    <path clip-path="url(#p4cd7b1326e)" d="M 82.827215 232.671028 
L 80.704609 232.671028 
L 80.704609 220.441121 
L 92.446434 220.441121 
" style="fill:none;stroke:#1f77b4;"/>
    <path clip-path="url(#p4cd7b1326e)" d="M 80.704609 226.556075 
L 76.797402 226.556075 
L 76.797402 204.426168 
L 86.906349 204.426168 
" style="fill:none;stroke:#1f77b4;"/>
    <path clip-path="url(#p4cd7b1326e)" d="M 76.797402 215.491121 
L 69.256043 215.491121 
L 69.256043 196.75514 
L 91.828764 196.75514 
" style="fill:none;stroke:#1f77b4;"/>
    <path clip-path="url(#p4cd7b1326e)" d="M 69.256043 206.123131 
L 62.81912 206.123131 
L 62.81912 166.996262 
L 87.127848 166.996262 
" style="fill:none;stroke:#1f77b4;"/>
    <path clip-path="url(#p4cd7b1326e)" d="M 89.700442 150.325234 
L 83.273785 150.325234 
L 83.273785 146.153271 
L 110.766626 146.153271 
" style="fill:none;stroke:#1f77b4;"/>
    <path clip-path="url(#p4cd7b1326e)" d="M 83.273785 148.239252 
L 78.899417 148.239252 
L 78.899417 141.308411 
L 89.592719 141.308411 
" style="fill:none;stroke:#1f77b4;"/>
    <path clip-path="url(#p4cd7b1326e)" d="M 78.899417 144.773832 
L 67.687213 144.773832 
L 67.687213 136.463551 
L 103.019808 136.463551 
" style="fill:none;stroke:#1f77b4;"/>
    <path clip-path="url(#p4cd7b1326e)" d="M 86.046078 89.08528 
L 83.803288 89.08528 
L 83.803288 56.792523 
L 104.908589 56.792523 
" style="fill:none;stroke:#1f77b4;"/>
    <path clip-path="url(#p4cd7b1326e)" d="M 83.803288 72.938902 
L 78.844194 72.938902 
L 78.844194 50.33271 
L 98.920629 50.33271 
" style="fill:none;stroke:#1f77b4;"/>
    <path clip-path="url(#p4cd7b1326e)" d="M 78.844194 61.635806 
L 76.815015 61.635806 
L 76.815015 42.527103 
L 87.085549 42.527103 
" style="fill:none;stroke:#1f77b4;"/>
    <path clip-path="url(#p4cd7b1326e)" d="M 76.815015 52.081454 
L 72.599003 52.081454 
L 72.599003 35.798131 
L 88.625397 35.798131 
" style="fill:none;stroke:#1f77b4;"/>
    <path clip-path="url(#p4cd7b1326e)" d="M 67.687213 140.618692 
L 63.474494 140.618692 
L 63.474494 43.939793 
L 72.599003 43.939793 
" style="fill:none;stroke:#1f77b4;"/>
    <path clip-path="url(#p4cd7b1326e)" d="M 62.81912 186.559696 
L 47.083298 186.559696 
L 47.083298 92.279242 
L 63.474494 92.279242 
" style="fill:none;stroke:#1f77b4;"/>
    <path clip-path="url(#p4cd7b1326e)" d="M 110.766626 32.029907 
L 53.68981 32.029907 
L 53.68981 29.876636 
L 110.766626 29.876636 
" style="fill:none;stroke:#1f77b4;"/>
    <path clip-path="url(#p4cd7b1326e)" d="M 47.083298 139.419469 
L 19.674601 139.419469 
L 19.674601 30.953271 
L 53.68981 30.953271 
" style="fill:none;stroke:#1f77b4;"/>
   </g>
   <g id="patch_3">
    <path d="M 15.12 259.2 
L 15.12 28.8 
" style="fill:none;stroke:#000000;stroke-linecap:square;stroke-linejoin:miter;stroke-width:0.5;"/>
   </g>
   <g id="patch_4">
    <path d="M 15.12 259.2 
L 110.766626 259.2 
" style="fill:none;stroke:#000000;stroke-linecap:square;stroke-linejoin:miter;stroke-width:0.5;"/>
   </g>
   <g id="text_8">
    <!-- a) Similarity-Based -->
    <defs>
     <path d="M 8.015625 75.875 
L 15.828125 75.875 
Q 23.140625 64.359375 26.78125 53.3125 
Q 30.421875 42.28125 30.421875 31.390625 
Q 30.421875 20.453125 26.78125 9.375 
Q 23.140625 -1.703125 15.828125 -13.1875 
L 8.015625 -13.1875 
Q 14.5 -2 17.703125 9.0625 
Q 20.90625 20.125 20.90625 31.390625 
Q 20.90625 42.671875 17.703125 53.65625 
Q 14.5 64.65625 8.015625 75.875 
z
" id="DejaVuSans-41"/>
     <path d="M 53.515625 70.515625 
L 53.515625 60.890625 
Q 47.90625 63.578125 42.921875 64.890625 
Q 37.9375 66.21875 33.296875 66.21875 
Q 25.25 66.21875 20.875 63.09375 
Q 16.5 59.96875 16.5 54.203125 
Q 16.5 49.359375 19.40625 46.890625 
Q 22.3125 44.4375 30.421875 42.921875 
L 36.375 41.703125 
Q 47.40625 39.59375 52.65625 34.296875 
Q 57.90625 29 57.90625 20.125 
Q 57.90625 9.515625 50.796875 4.046875 
Q 43.703125 -1.421875 29.984375 -1.421875 
Q 24.8125 -1.421875 18.96875 -0.25 
Q 13.140625 0.921875 6.890625 3.21875 
L 6.890625 13.375 
Q 12.890625 10.015625 18.65625 8.296875 
Q 24.421875 6.59375 29.984375 6.59375 
Q 38.421875 6.59375 43.015625 9.90625 
Q 47.609375 13.234375 47.609375 19.390625 
Q 47.609375 24.75 44.3125 27.78125 
Q 41.015625 30.8125 33.5 32.328125 
L 27.484375 33.5 
Q 16.453125 35.6875 11.515625 40.375 
Q 6.59375 45.0625 6.59375 53.421875 
Q 6.59375 63.09375 13.40625 68.65625 
Q 20.21875 74.21875 32.171875 74.21875 
Q 37.3125 74.21875 42.625 73.28125 
Q 47.953125 72.359375 53.515625 70.515625 
z
" id="DejaVuSans-83"/>
     <path d="M 32.171875 -5.078125 
Q 28.375 -14.84375 24.75 -17.8125 
Q 21.140625 -20.796875 15.09375 -20.796875 
L 7.90625 -20.796875 
L 7.90625 -13.28125 
L 13.1875 -13.28125 
Q 16.890625 -13.28125 18.9375 -11.515625 
Q 21 -9.765625 23.484375 -3.21875 
L 25.09375 0.875 
L 2.984375 54.6875 
L 12.5 54.6875 
L 29.59375 11.921875 
L 46.6875 54.6875 
L 56.203125 54.6875 
z
" id="DejaVuSans-121"/>
     <path d="M 4.890625 31.390625 
L 31.203125 31.390625 
L 31.203125 23.390625 
L 4.890625 23.390625 
z
" id="DejaVuSans-45"/>
     <path d="M 19.671875 34.8125 
L 19.671875 8.109375 
L 35.5 8.109375 
Q 43.453125 8.109375 47.28125 11.40625 
Q 51.125 14.703125 51.125 21.484375 
Q 51.125 28.328125 47.28125 31.5625 
Q 43.453125 34.8125 35.5 34.8125 
z
M 19.671875 64.796875 
L 19.671875 42.828125 
L 34.28125 42.828125 
Q 41.5 42.828125 45.03125 45.53125 
Q 48.578125 48.25 48.578125 53.8125 
Q 48.578125 59.328125 45.03125 62.0625 
Q 41.5 64.796875 34.28125 64.796875 
z
M 9.8125 72.90625 
L 35.015625 72.90625 
Q 46.296875 72.90625 52.390625 68.21875 
Q 58.5 63.53125 58.5 54.890625 
Q 58.5 48.1875 55.375 44.234375 
Q 52.25 40.28125 46.1875 39.3125 
Q 53.46875 37.75 57.5 32.78125 
Q 61.53125 27.828125 61.53125 20.40625 
Q 61.53125 10.640625 54.890625 5.3125 
Q 48.25 0 35.984375 0 
L 9.8125 0 
z
" id="DejaVuSans-66"/>
    </defs>
    <g transform="translate(27.596633 14.401641)scale(0.075 -0.075)">
     <use xlink:href="#DejaVuSans-97"/>
     <use x="61.279297" xlink:href="#DejaVuSans-41"/>
     <use x="100.292969" xlink:href="#DejaVuSans-32"/>
     <use x="132.080078" xlink:href="#DejaVuSans-83"/>
     <use x="195.556641" xlink:href="#DejaVuSans-105"/>
     <use x="223.339844" xlink:href="#DejaVuSans-109"/>
     <use x="320.751953" xlink:href="#DejaVuSans-105"/>
     <use x="348.535156" xlink:href="#DejaVuSans-108"/>
     <use x="376.318359" xlink:href="#DejaVuSans-97"/>
     <use x="437.597656" xlink:href="#DejaVuSans-114"/>
     <use x="478.710938" xlink:href="#DejaVuSans-105"/>
     <use x="506.494141" xlink:href="#DejaVuSans-116"/>
     <use x="545.703125" xlink:href="#DejaVuSans-121"/>
     <use x="603.132812" xlink:href="#DejaVuSans-45"/>
     <use x="635.591797" xlink:href="#DejaVuSans-66"/>
     <use x="704.195312" xlink:href="#DejaVuSans-97"/>
     <use x="765.474609" xlink:href="#DejaVuSans-115"/>
     <use x="817.574219" xlink:href="#DejaVuSans-101"/>
     <use x="879.097656" xlink:href="#DejaVuSans-100"/>
    </g>
    <!-- clustering -->
    <g transform="translate(44.39136 22.8)scale(0.075 -0.075)">
     <use xlink:href="#DejaVuSans-99"/>
     <use x="54.980469" xlink:href="#DejaVuSans-108"/>
     <use x="82.763672" xlink:href="#DejaVuSans-117"/>
     <use x="146.142578" xlink:href="#DejaVuSans-115"/>
     <use x="198.242188" xlink:href="#DejaVuSans-116"/>
     <use x="237.451172" xlink:href="#DejaVuSans-101"/>
     <use x="298.974609" xlink:href="#DejaVuSans-114"/>
     <use x="340.087891" xlink:href="#DejaVuSans-105"/>
     <use x="367.871094" xlink:href="#DejaVuSans-110"/>
     <use x="431.25" xlink:href="#DejaVuSans-103"/>
    </g>
   </g>
  </g>
  <g id="axes_2">
   <g id="patch_5">
    <path d="M 113.456687 259.2 
L 185.191656 259.2 
L 185.191656 28.8 
L 113.456687 28.8 
z
" style="fill:#ffffff;"/>
   </g>
   <g id="matplotlib.axis_3">
    <g id="xtick_6">
     <g id="line2d_6">
      <path clip-path="url(#pb7cc6cb69e)" d="M 113.456687 259.2 
L 113.456687 28.8 
" style="fill:none;stroke:#b0b0b0;stroke-linecap:square;stroke-width:0.8;"/>
     </g>
     <g id="line2d_7">
      <g>
       <use style="stroke:#000000;stroke-width:0.5;" x="113.456687" xlink:href="#m4af75dd8a3" y="259.2"/>
      </g>
     </g>
     <g id="text_9">
      <!-- 0.0 -->
      <g transform="translate(109.083328 268.379141)scale(0.055 -0.055)">
       <use xlink:href="#DejaVuSans-48"/>
       <use x="63.623047" xlink:href="#DejaVuSans-46"/>
       <use x="95.410156" xlink:href="#DejaVuSans-48"/>
      </g>
     </g>
    </g>
    <g id="xtick_7">
     <g id="line2d_8">
      <path clip-path="url(#pb7cc6cb69e)" d="M 127.803681 259.2 
L 127.803681 28.8 
" style="fill:none;stroke:#b0b0b0;stroke-linecap:square;stroke-width:0.8;"/>
     </g>
     <g id="line2d_9">
      <g>
       <use style="stroke:#000000;stroke-width:0.5;" x="127.803681" xlink:href="#m4af75dd8a3" y="259.2"/>
      </g>
     </g>
     <g id="text_10">
      <!-- 0.2 -->
      <g transform="translate(123.430322 268.379141)scale(0.055 -0.055)">
       <use xlink:href="#DejaVuSans-48"/>
       <use x="63.623047" xlink:href="#DejaVuSans-46"/>
       <use x="95.410156" xlink:href="#DejaVuSans-50"/>
      </g>
     </g>
    </g>
    <g id="xtick_8">
     <g id="line2d_10">
      <path clip-path="url(#pb7cc6cb69e)" d="M 142.150675 259.2 
L 142.150675 28.8 
" style="fill:none;stroke:#b0b0b0;stroke-linecap:square;stroke-width:0.8;"/>
     </g>
     <g id="line2d_11">
      <g>
       <use style="stroke:#000000;stroke-width:0.5;" x="142.150675" xlink:href="#m4af75dd8a3" y="259.2"/>
      </g>
     </g>
     <g id="text_11">
      <!-- 0.4 -->
      <defs>
       <path d="M 37.796875 64.3125 
L 12.890625 25.390625 
L 37.796875 25.390625 
z
M 35.203125 72.90625 
L 47.609375 72.90625 
L 47.609375 25.390625 
L 58.015625 25.390625 
L 58.015625 17.1875 
L 47.609375 17.1875 
L 47.609375 0 
L 37.796875 0 
L 37.796875 17.1875 
L 4.890625 17.1875 
L 4.890625 26.703125 
z
" id="DejaVuSans-52"/>
      </defs>
      <g transform="translate(137.777315 268.379141)scale(0.055 -0.055)">
       <use xlink:href="#DejaVuSans-48"/>
       <use x="63.623047" xlink:href="#DejaVuSans-46"/>
       <use x="95.410156" xlink:href="#DejaVuSans-52"/>
      </g>
     </g>
    </g>
    <g id="xtick_9">
     <g id="line2d_12">
      <path clip-path="url(#pb7cc6cb69e)" d="M 156.497669 259.2 
L 156.497669 28.8 
" style="fill:none;stroke:#b0b0b0;stroke-linecap:square;stroke-width:0.8;"/>
     </g>
     <g id="line2d_13">
      <g>
       <use style="stroke:#000000;stroke-width:0.5;" x="156.497669" xlink:href="#m4af75dd8a3" y="259.2"/>
      </g>
     </g>
     <g id="text_12">
      <!-- 0.6 -->
      <g transform="translate(152.124309 268.379141)scale(0.055 -0.055)">
       <use xlink:href="#DejaVuSans-48"/>
       <use x="63.623047" xlink:href="#DejaVuSans-46"/>
       <use x="95.410156" xlink:href="#DejaVuSans-54"/>
      </g>
     </g>
    </g>
    <g id="xtick_10">
     <g id="line2d_14">
      <path clip-path="url(#pb7cc6cb69e)" d="M 170.844663 259.2 
L 170.844663 28.8 
" style="fill:none;stroke:#b0b0b0;stroke-linecap:square;stroke-width:0.8;"/>
     </g>
     <g id="line2d_15">
      <g>
       <use style="stroke:#000000;stroke-width:0.5;" x="170.844663" xlink:href="#m4af75dd8a3" y="259.2"/>
      </g>
     </g>
     <g id="text_13">
      <!-- 0.8 -->
      <defs>
       <path d="M 31.78125 34.625 
Q 24.75 34.625 20.71875 30.859375 
Q 16.703125 27.09375 16.703125 20.515625 
Q 16.703125 13.921875 20.71875 10.15625 
Q 24.75 6.390625 31.78125 6.390625 
Q 38.8125 6.390625 42.859375 10.171875 
Q 46.921875 13.96875 46.921875 20.515625 
Q 46.921875 27.09375 42.890625 30.859375 
Q 38.875 34.625 31.78125 34.625 
z
M 21.921875 38.8125 
Q 15.578125 40.375 12.03125 44.71875 
Q 8.5 49.078125 8.5 55.328125 
Q 8.5 64.0625 14.71875 69.140625 
Q 20.953125 74.21875 31.78125 74.21875 
Q 42.671875 74.21875 48.875 69.140625 
Q 55.078125 64.0625 55.078125 55.328125 
Q 55.078125 49.078125 51.53125 44.71875 
Q 48 40.375 41.703125 38.8125 
Q 48.828125 37.15625 52.796875 32.3125 
Q 56.78125 27.484375 56.78125 20.515625 
Q 56.78125 9.90625 50.3125 4.234375 
Q 43.84375 -1.421875 31.78125 -1.421875 
Q 19.734375 -1.421875 13.25 4.234375 
Q 6.78125 9.90625 6.78125 20.515625 
Q 6.78125 27.484375 10.78125 32.3125 
Q 14.796875 37.15625 21.921875 38.8125 
z
M 18.3125 54.390625 
Q 18.3125 48.734375 21.84375 45.5625 
Q 25.390625 42.390625 31.78125 42.390625 
Q 38.140625 42.390625 41.71875 45.5625 
Q 45.3125 48.734375 45.3125 54.390625 
Q 45.3125 60.0625 41.71875 63.234375 
Q 38.140625 66.40625 31.78125 66.40625 
Q 25.390625 66.40625 21.84375 63.234375 
Q 18.3125 60.0625 18.3125 54.390625 
z
" id="DejaVuSans-56"/>
      </defs>
      <g transform="translate(166.471303 268.379141)scale(0.055 -0.055)">
       <use xlink:href="#DejaVuSans-48"/>
       <use x="63.623047" xlink:href="#DejaVuSans-46"/>
       <use x="95.410156" xlink:href="#DejaVuSans-56"/>
      </g>
     </g>
    </g>
    <g id="xtick_11">
     <g id="line2d_16">
      <path clip-path="url(#pb7cc6cb69e)" d="M 185.191656 259.2 
L 185.191656 28.8 
" style="fill:none;stroke:#b0b0b0;stroke-linecap:square;stroke-width:0.8;"/>
     </g>
     <g id="line2d_17">
      <g>
       <use style="stroke:#000000;stroke-width:0.5;" x="185.191656" xlink:href="#m4af75dd8a3" y="259.2"/>
      </g>
     </g>
     <g id="text_14">
      <!-- 1.0 -->
      <g transform="translate(180.818297 268.379141)scale(0.055 -0.055)">
       <use xlink:href="#DejaVuSans-49"/>
       <use x="63.623047" xlink:href="#DejaVuSans-46"/>
       <use x="95.410156" xlink:href="#DejaVuSans-48"/>
      </g>
     </g>
    </g>
    <g id="text_15">
     <!-- Fitness -->
     <g transform="translate(138.068 278.461953)scale(0.065 -0.065)">
      <use xlink:href="#DejaVuSans-70"/>
      <use x="50.269531" xlink:href="#DejaVuSans-105"/>
      <use x="78.052734" xlink:href="#DejaVuSans-116"/>
      <use x="117.261719" xlink:href="#DejaVuSans-110"/>
      <use x="180.640625" xlink:href="#DejaVuSans-101"/>
      <use x="242.164062" xlink:href="#DejaVuSans-115"/>
      <use x="294.263672" xlink:href="#DejaVuSans-115"/>
     </g>
    </g>
   </g>
   <g id="patch_6">
    <path d="M 113.456687 259.2 
L 113.456687 28.8 
" style="fill:none;stroke:#000000;stroke-linecap:square;stroke-linejoin:miter;stroke-width:0.5;"/>
   </g>
   <g id="patch_7">
    <path d="M 185.191656 259.2 
L 185.191656 28.8 
" style="fill:none;stroke:#000000;stroke-linecap:square;stroke-linejoin:miter;stroke-width:0.5;"/>
   </g>
   <g id="patch_8">
    <path d="M 113.456687 259.2 
L 185.191656 259.2 
" style="fill:none;stroke:#000000;stroke-linecap:square;stroke-linejoin:miter;stroke-width:0.5;"/>
   </g>
   <g id="text_16">
    <!-- b) Relative -->
    <defs>
     <path d="M 48.6875 27.296875 
Q 48.6875 37.203125 44.609375 42.84375 
Q 40.53125 48.484375 33.40625 48.484375 
Q 26.265625 48.484375 22.1875 42.84375 
Q 18.109375 37.203125 18.109375 27.296875 
Q 18.109375 17.390625 22.1875 11.75 
Q 26.265625 6.109375 33.40625 6.109375 
Q 40.53125 6.109375 44.609375 11.75 
Q 48.6875 17.390625 48.6875 27.296875 
z
M 18.109375 46.390625 
Q 20.953125 51.265625 25.265625 53.625 
Q 29.59375 56 35.59375 56 
Q 45.5625 56 51.78125 48.09375 
Q 58.015625 40.1875 58.015625 27.296875 
Q 58.015625 14.40625 51.78125 6.484375 
Q 45.5625 -1.421875 35.59375 -1.421875 
Q 29.59375 -1.421875 25.265625 0.953125 
Q 20.953125 3.328125 18.109375 8.203125 
L 18.109375 0 
L 9.078125 0 
L 9.078125 75.984375 
L 18.109375 75.984375 
z
" id="DejaVuSans-98"/>
     <path d="M 44.390625 34.1875 
Q 47.5625 33.109375 50.5625 29.59375 
Q 53.5625 26.078125 56.59375 19.921875 
L 66.609375 0 
L 56 0 
L 46.6875 18.703125 
Q 43.0625 26.03125 39.671875 28.421875 
Q 36.28125 30.8125 30.421875 30.8125 
L 19.671875 30.8125 
L 19.671875 0 
L 9.8125 0 
L 9.8125 72.90625 
L 32.078125 72.90625 
Q 44.578125 72.90625 50.734375 67.671875 
Q 56.890625 62.453125 56.890625 51.90625 
Q 56.890625 45.015625 53.6875 40.46875 
Q 50.484375 35.9375 44.390625 34.1875 
z
M 19.671875 64.796875 
L 19.671875 38.921875 
L 32.078125 38.921875 
Q 39.203125 38.921875 42.84375 42.21875 
Q 46.484375 45.515625 46.484375 51.90625 
Q 46.484375 58.296875 42.84375 61.546875 
Q 39.203125 64.796875 32.078125 64.796875 
z
" id="DejaVuSans-82"/>
    </defs>
    <g transform="translate(129.165578 14.401641)scale(0.075 -0.075)">
     <use xlink:href="#DejaVuSans-98"/>
     <use x="63.476562" xlink:href="#DejaVuSans-41"/>
     <use x="102.490234" xlink:href="#DejaVuSans-32"/>
     <use x="134.277344" xlink:href="#DejaVuSans-82"/>
     <use x="199.259766" xlink:href="#DejaVuSans-101"/>
     <use x="260.783203" xlink:href="#DejaVuSans-108"/>
     <use x="288.566406" xlink:href="#DejaVuSans-97"/>
     <use x="349.845703" xlink:href="#DejaVuSans-116"/>
     <use x="389.054688" xlink:href="#DejaVuSans-105"/>
     <use x="416.837891" xlink:href="#DejaVuSans-118"/>
     <use x="476.017578" xlink:href="#DejaVuSans-101"/>
    </g>
    <!-- Fitness -->
    <g transform="translate(136.336281 22.8)scale(0.075 -0.075)">
     <use xlink:href="#DejaVuSans-70"/>
     <use x="50.269531" xlink:href="#DejaVuSans-105"/>
     <use x="78.052734" xlink:href="#DejaVuSans-116"/>
     <use x="117.261719" xlink:href="#DejaVuSans-110"/>
     <use x="180.640625" xlink:href="#DejaVuSans-101"/>
     <use x="242.164062" xlink:href="#DejaVuSans-115"/>
     <use x="294.263672" xlink:href="#DejaVuSans-115"/>
    </g>
   </g>
   <g id="patch_9">
    <path clip-path="url(#pb7cc6cb69e)" d="M 113.456687 29.553645 
L 139.627713 29.553645 
L 139.627713 30.199626 
L 113.456687 30.199626 
z
"/>
   </g>
   <g id="patch_10">
    <path clip-path="url(#pb7cc6cb69e)" d="M 113.456687 31.706916 
L 121.364479 31.706916 
L 121.364479 32.352897 
L 113.456687 32.352897 
z
"/>
   </g>
   <g id="patch_11">
    <path clip-path="url(#pb7cc6cb69e)" d="M 113.456687 33.860187 
L 133.414448 33.860187 
L 133.414448 34.506168 
L 113.456687 34.506168 
z
"/>
   </g>
   <g id="patch_12">
    <path clip-path="url(#pb7cc6cb69e)" d="M 113.456687 36.013458 
L 143.581609 36.013458 
L 143.581609 36.659439 
L 113.456687 36.659439 
z
"/>
   </g>
   <g id="patch_13">
    <path clip-path="url(#pb7cc6cb69e)" d="M 113.456687 38.166729 
L 141.887082 38.166729 
L 141.887082 38.81271 
L 113.456687 38.81271 
z
"/>
   </g>
   <g id="patch_14">
    <path clip-path="url(#pb7cc6cb69e)" d="M 113.456687 40.32 
L 122.870725 40.32 
L 122.870725 40.965981 
L 113.456687 40.965981 
z
"/>
   </g>
   <g id="patch_15">
    <path clip-path="url(#pb7cc6cb69e)" d="M 113.456687 42.473271 
L 129.272271 42.473271 
L 129.272271 43.119252 
L 113.456687 43.119252 
z
"/>
   </g>
   <g id="patch_16">
    <path clip-path="url(#pb7cc6cb69e)" d="M 113.456687 44.626542 
L 129.837113 44.626542 
L 129.837113 45.272523 
L 113.456687 45.272523 
z
"/>
   </g>
   <g id="patch_17">
    <path clip-path="url(#pb7cc6cb69e)" d="M 113.456687 46.779813 
L 129.837113 46.779813 
L 129.837113 47.425794 
L 113.456687 47.425794 
z
"/>
   </g>
   <g id="patch_18">
    <path clip-path="url(#pb7cc6cb69e)" d="M 113.456687 48.933084 
L 150.359716 48.933084 
L 150.359716 49.579065 
L 113.456687 49.579065 
z
"/>
   </g>
   <g id="patch_19">
    <path clip-path="url(#pb7cc6cb69e)" d="M 113.456687 51.086355 
L 148.665189 51.086355 
L 148.665189 51.732336 
L 113.456687 51.732336 
z
"/>
   </g>
   <g id="patch_20">
    <path clip-path="url(#pb7cc6cb69e)" d="M 113.456687 53.239626 
L 149.606593 53.239626 
L 149.606593 53.885607 
L 113.456687 53.885607 
z
"/>
   </g>
   <g id="patch_21">
    <path clip-path="url(#pb7cc6cb69e)" d="M 113.456687 55.392897 
L 149.041751 55.392897 
L 149.041751 56.038879 
L 113.456687 56.038879 
z
"/>
   </g>
   <g id="patch_22">
    <path clip-path="url(#pb7cc6cb69e)" d="M 113.456687 57.546168 
L 149.794874 57.546168 
L 149.794874 58.19215 
L 113.456687 58.19215 
z
"/>
   </g>
   <g id="patch_23">
    <path clip-path="url(#pb7cc6cb69e)" d="M 113.456687 59.699439 
L 149.418312 59.699439 
L 149.418312 60.345421 
L 113.456687 60.345421 
z
"/>
   </g>
   <g id="patch_24">
    <path clip-path="url(#pb7cc6cb69e)" d="M 113.456687 61.85271 
L 168.434669 61.85271 
L 168.434669 62.498692 
L 113.456687 62.498692 
z
"/>
   </g>
   <g id="patch_25">
    <path clip-path="url(#pb7cc6cb69e)" d="M 113.456687 64.005981 
L 166.551861 64.005981 
L 166.551861 64.651963 
L 113.456687 64.651963 
z
"/>
   </g>
   <g id="patch_26">
    <path clip-path="url(#pb7cc6cb69e)" d="M 113.456687 66.159252 
L 157.137823 66.159252 
L 157.137823 66.805234 
L 113.456687 66.805234 
z
"/>
   </g>
   <g id="patch_27">
    <path clip-path="url(#pb7cc6cb69e)" d="M 113.456687 68.312523 
L 159.208912 68.312523 
L 159.208912 68.958505 
L 113.456687 68.958505 
z
"/>
   </g>
   <g id="patch_28">
    <path clip-path="url(#pb7cc6cb69e)" d="M 113.456687 70.465794 
L 158.83235 70.465794 
L 158.83235 71.111776 
L 113.456687 71.111776 
z
"/>
   </g>
   <g id="patch_29">
    <path clip-path="url(#pb7cc6cb69e)" d="M 113.456687 72.619065 
L 160.338596 72.619065 
L 160.338596 73.265047 
L 113.456687 73.265047 
z
"/>
   </g>
   <g id="patch_30">
    <path clip-path="url(#pb7cc6cb69e)" d="M 113.456687 74.772336 
L 162.033123 74.772336 
L 162.033123 75.418318 
L 113.456687 75.418318 
z
"/>
   </g>
   <g id="patch_31">
    <path clip-path="url(#pb7cc6cb69e)" d="M 113.456687 76.925607 
L 161.468281 76.925607 
L 161.468281 77.571589 
L 113.456687 77.571589 
z
"/>
   </g>
   <g id="patch_32">
    <path clip-path="url(#pb7cc6cb69e)" d="M 113.456687 79.078879 
L 154.125331 79.078879 
L 154.125331 79.72486 
L 113.456687 79.72486 
z
"/>
   </g>
   <g id="patch_33">
    <path clip-path="url(#pb7cc6cb69e)" d="M 113.456687 81.23215 
L 166.551861 81.23215 
L 166.551861 81.878131 
L 113.456687 81.878131 
z
"/>
   </g>
   <g id="patch_34">
    <path clip-path="url(#pb7cc6cb69e)" d="M 113.456687 83.385421 
L 164.104211 83.385421 
L 164.104211 84.031402 
L 113.456687 84.031402 
z
"/>
   </g>
   <g id="patch_35">
    <path clip-path="url(#pb7cc6cb69e)" d="M 113.456687 85.538692 
L 165.045615 85.538692 
L 165.045615 86.184673 
L 113.456687 86.184673 
z
"/>
   </g>
   <g id="patch_36">
    <path clip-path="url(#pb7cc6cb69e)" d="M 113.456687 87.691963 
L 167.116704 87.691963 
L 167.116704 88.337944 
L 113.456687 88.337944 
z
"/>
   </g>
   <g id="patch_37">
    <path clip-path="url(#pb7cc6cb69e)" d="M 113.456687 89.845234 
L 165.798738 89.845234 
L 165.798738 90.491215 
L 113.456687 90.491215 
z
"/>
   </g>
   <g id="patch_38">
    <path clip-path="url(#pb7cc6cb69e)" d="M 113.456687 91.998505 
L 164.857334 91.998505 
L 164.857334 92.644486 
L 113.456687 92.644486 
z
"/>
   </g>
   <g id="patch_39">
    <path clip-path="url(#pb7cc6cb69e)" d="M 113.456687 94.151776 
L 157.137823 94.151776 
L 157.137823 94.797757 
L 113.456687 94.797757 
z
"/>
   </g>
   <g id="patch_40">
    <path clip-path="url(#pb7cc6cb69e)" d="M 113.456687 96.305047 
L 149.230031 96.305047 
L 149.230031 96.951028 
L 113.456687 96.951028 
z
"/>
   </g>
   <g id="patch_41">
    <path clip-path="url(#pb7cc6cb69e)" d="M 113.456687 98.458318 
L 129.460552 98.458318 
L 129.460552 99.104299 
L 113.456687 99.104299 
z
"/>
   </g>
   <g id="patch_42">
    <path clip-path="url(#pb7cc6cb69e)" d="M 113.456687 100.611589 
L 151.677681 100.611589 
L 151.677681 101.25757 
L 113.456687 101.25757 
z
"/>
   </g>
   <g id="patch_43">
    <path clip-path="url(#pb7cc6cb69e)" d="M 113.456687 102.76486 
L 150.924558 102.76486 
L 150.924558 103.410841 
L 113.456687 103.410841 
z
"/>
   </g>
   <g id="patch_44">
    <path clip-path="url(#pb7cc6cb69e)" d="M 113.456687 104.918131 
L 150.359716 104.918131 
L 150.359716 105.564112 
L 113.456687 105.564112 
z
"/>
   </g>
   <g id="patch_45">
    <path clip-path="url(#pb7cc6cb69e)" d="M 113.456687 107.071402 
L 150.924558 107.071402 
L 150.924558 107.717383 
L 113.456687 107.717383 
z
"/>
   </g>
   <g id="patch_46">
    <path clip-path="url(#pb7cc6cb69e)" d="M 113.456687 109.224673 
L 150.359716 109.224673 
L 150.359716 109.870654 
L 113.456687 109.870654 
z
"/>
   </g>
   <g id="patch_47">
    <path clip-path="url(#pb7cc6cb69e)" d="M 113.456687 111.377944 
L 150.171435 111.377944 
L 150.171435 112.023925 
L 113.456687 112.023925 
z
"/>
   </g>
   <g id="patch_48">
    <path clip-path="url(#pb7cc6cb69e)" d="M 113.456687 113.531215 
L 137.180063 113.531215 
L 137.180063 114.177196 
L 113.456687 114.177196 
z
"/>
   </g>
   <g id="patch_49">
    <path clip-path="url(#pb7cc6cb69e)" d="M 113.456687 115.684486 
L 142.640205 115.684486 
L 142.640205 116.330467 
L 113.456687 116.330467 
z
"/>
   </g>
   <g id="patch_50">
    <path clip-path="url(#pb7cc6cb69e)" d="M 113.456687 117.837757 
L 137.933186 117.837757 
L 137.933186 118.483738 
L 113.456687 118.483738 
z
"/>
   </g>
   <g id="patch_51">
    <path clip-path="url(#pb7cc6cb69e)" d="M 113.456687 119.991028 
L 136.991782 119.991028 
L 136.991782 120.637009 
L 113.456687 120.637009 
z
"/>
   </g>
   <g id="patch_52">
    <path clip-path="url(#pb7cc6cb69e)" d="M 113.456687 122.144299 
L 139.251151 122.144299 
L 139.251151 122.79028 
L 113.456687 122.79028 
z
"/>
   </g>
   <g id="patch_53">
    <path clip-path="url(#pb7cc6cb69e)" d="M 113.456687 124.29757 
L 165.422177 124.29757 
L 165.422177 124.943551 
L 113.456687 124.943551 
z
"/>
   </g>
   <g id="patch_54">
    <path clip-path="url(#pb7cc6cb69e)" d="M 113.456687 126.450841 
L 163.162808 126.450841 
L 163.162808 127.096822 
L 113.456687 127.096822 
z
"/>
   </g>
   <g id="patch_55">
    <path clip-path="url(#pb7cc6cb69e)" d="M 113.456687 128.604112 
L 163.539369 128.604112 
L 163.539369 129.250093 
L 113.456687 129.250093 
z
"/>
   </g>
   <g id="patch_56">
    <path clip-path="url(#pb7cc6cb69e)" d="M 113.456687 130.757383 
L 164.480773 130.757383 
L 164.480773 131.403364 
L 113.456687 131.403364 
z
"/>
   </g>
   <g id="patch_57">
    <path clip-path="url(#pb7cc6cb69e)" d="M 113.456687 132.910654 
L 163.162808 132.910654 
L 163.162808 133.556636 
L 113.456687 133.556636 
z
"/>
   </g>
   <g id="patch_58">
    <path clip-path="url(#pb7cc6cb69e)" d="M 113.456687 135.063925 
L 137.368344 135.063925 
L 137.368344 135.709907 
L 113.456687 135.709907 
z
"/>
   </g>
   <g id="patch_59">
    <path clip-path="url(#pb7cc6cb69e)" d="M 113.456687 137.217196 
L 137.180063 137.217196 
L 137.180063 137.863178 
L 113.456687 137.863178 
z
"/>
   </g>
   <g id="patch_60">
    <path clip-path="url(#pb7cc6cb69e)" d="M 113.456687 139.370467 
L 118.540268 139.370467 
L 118.540268 140.016449 
L 113.456687 140.016449 
z
"/>
   </g>
   <g id="patch_61">
    <path clip-path="url(#pb7cc6cb69e)" d="M 113.456687 141.523738 
L 120.046514 141.523738 
L 120.046514 142.16972 
L 113.456687 142.16972 
z
"/>
   </g>
   <g id="patch_62">
    <path clip-path="url(#pb7cc6cb69e)" d="M 113.456687 143.677009 
L 119.293391 143.677009 
L 119.293391 144.322991 
L 113.456687 144.322991 
z
"/>
   </g>
   <g id="patch_63">
    <path clip-path="url(#pb7cc6cb69e)" d="M 113.456687 145.83028 
L 139.251151 145.83028 
L 139.251151 146.476262 
L 113.456687 146.476262 
z
"/>
   </g>
   <g id="patch_64">
    <path clip-path="url(#pb7cc6cb69e)" d="M 113.456687 147.983551 
L 113.456687 147.983551 
L 113.456687 148.629533 
L 113.456687 148.629533 
z
"/>
   </g>
   <g id="patch_65">
    <path clip-path="url(#pb7cc6cb69e)" d="M 113.456687 150.136822 
L 120.987917 150.136822 
L 120.987917 150.782804 
L 113.456687 150.782804 
z
"/>
   </g>
   <g id="patch_66">
    <path clip-path="url(#pb7cc6cb69e)" d="M 113.456687 152.290093 
L 120.987917 152.290093 
L 120.987917 152.936075 
L 113.456687 152.936075 
z
"/>
   </g>
   <g id="patch_67">
    <path clip-path="url(#pb7cc6cb69e)" d="M 113.456687 154.443364 
L 119.858233 154.443364 
L 119.858233 155.089346 
L 113.456687 155.089346 
z
"/>
   </g>
   <g id="patch_68">
    <path clip-path="url(#pb7cc6cb69e)" d="M 113.456687 156.596636 
L 119.669952 156.596636 
L 119.669952 157.242617 
L 113.456687 157.242617 
z
"/>
   </g>
   <g id="patch_69">
    <path clip-path="url(#pb7cc6cb69e)" d="M 113.456687 158.749907 
L 174.836215 158.749907 
L 174.836215 159.395888 
L 113.456687 159.395888 
z
"/>
   </g>
   <g id="patch_70">
    <path clip-path="url(#pb7cc6cb69e)" d="M 113.456687 160.903178 
L 175.401057 160.903178 
L 175.401057 161.549159 
L 113.456687 161.549159 
z
"/>
   </g>
   <g id="patch_71">
    <path clip-path="url(#pb7cc6cb69e)" d="M 113.456687 163.056449 
L 174.083092 163.056449 
L 174.083092 163.70243 
L 113.456687 163.70243 
z
"/>
   </g>
   <g id="patch_72">
    <path clip-path="url(#pb7cc6cb69e)" d="M 113.456687 165.20972 
L 174.836215 165.20972 
L 174.836215 165.855701 
L 113.456687 165.855701 
z
"/>
   </g>
   <g id="patch_73">
    <path clip-path="url(#pb7cc6cb69e)" d="M 113.456687 167.362991 
L 175.589338 167.362991 
L 175.589338 168.008972 
L 113.456687 168.008972 
z
"/>
   </g>
   <g id="patch_74">
    <path clip-path="url(#pb7cc6cb69e)" d="M 113.456687 169.516262 
L 169.940915 169.516262 
L 169.940915 170.162243 
L 113.456687 170.162243 
z
"/>
   </g>
   <g id="patch_75">
    <path clip-path="url(#pb7cc6cb69e)" d="M 113.456687 171.669533 
L 183.49713 171.669533 
L 183.49713 172.315514 
L 113.456687 172.315514 
z
"/>
   </g>
   <g id="patch_76">
    <path clip-path="url(#pb7cc6cb69e)" d="M 113.456687 173.822804 
L 177.848707 173.822804 
L 177.848707 174.468785 
L 113.456687 174.468785 
z
"/>
   </g>
   <g id="patch_77">
    <path clip-path="url(#pb7cc6cb69e)" d="M 113.456687 175.976075 
L 159.208912 175.976075 
L 159.208912 176.622056 
L 113.456687 176.622056 
z
"/>
   </g>
   <g id="patch_78">
    <path clip-path="url(#pb7cc6cb69e)" d="M 113.456687 178.129346 
L 175.024495 178.129346 
L 175.024495 178.775327 
L 113.456687 178.775327 
z
"/>
   </g>
   <g id="patch_79">
    <path clip-path="url(#pb7cc6cb69e)" d="M 113.456687 180.282617 
L 182.179164 180.282617 
L 182.179164 180.928598 
L 113.456687 180.928598 
z
"/>
   </g>
   <g id="patch_80">
    <path clip-path="url(#pb7cc6cb69e)" d="M 113.456687 182.435888 
L 180.672918 182.435888 
L 180.672918 183.081869 
L 113.456687 183.081869 
z
"/>
   </g>
   <g id="patch_81">
    <path clip-path="url(#pb7cc6cb69e)" d="M 113.456687 184.589159 
L 179.731514 184.589159 
L 179.731514 185.23514 
L 113.456687 185.23514 
z
"/>
   </g>
   <g id="patch_82">
    <path clip-path="url(#pb7cc6cb69e)" d="M 113.456687 186.74243 
L 177.848707 186.74243 
L 177.848707 187.388411 
L 113.456687 187.388411 
z
"/>
   </g>
   <g id="patch_83">
    <path clip-path="url(#pb7cc6cb69e)" d="M 113.456687 188.895701 
L 166.551861 188.895701 
L 166.551861 189.541682 
L 113.456687 189.541682 
z
"/>
   </g>
   <g id="patch_84">
    <path clip-path="url(#pb7cc6cb69e)" d="M 113.456687 191.048972 
L 175.401057 191.048972 
L 175.401057 191.694953 
L 113.456687 191.694953 
z
"/>
   </g>
   <g id="patch_85">
    <path clip-path="url(#pb7cc6cb69e)" d="M 113.456687 193.202243 
L 169.564353 193.202243 
L 169.564353 193.848224 
L 113.456687 193.848224 
z
"/>
   </g>
   <g id="patch_86">
    <path clip-path="url(#pb7cc6cb69e)" d="M 113.456687 195.355514 
L 175.024495 195.355514 
L 175.024495 196.001495 
L 113.456687 196.001495 
z
"/>
   </g>
   <g id="patch_87">
    <path clip-path="url(#pb7cc6cb69e)" d="M 113.456687 197.508785 
L 166.551861 197.508785 
L 166.551861 198.154766 
L 113.456687 198.154766 
z
"/>
   </g>
   <g id="patch_88">
    <path clip-path="url(#pb7cc6cb69e)" d="M 113.456687 199.662056 
L 173.141688 199.662056 
L 173.141688 200.308037 
L 113.456687 200.308037 
z
"/>
   </g>
   <g id="patch_89">
    <path clip-path="url(#pb7cc6cb69e)" d="M 113.456687 201.815327 
L 166.928423 201.815327 
L 166.928423 202.461308 
L 113.456687 202.461308 
z
"/>
   </g>
   <g id="patch_90">
    <path clip-path="url(#pb7cc6cb69e)" d="M 113.456687 203.968598 
L 170.317476 203.968598 
L 170.317476 204.614579 
L 113.456687 204.614579 
z
"/>
   </g>
   <g id="patch_91">
    <path clip-path="url(#pb7cc6cb69e)" d="M 113.456687 206.121869 
L 170.317476 206.121869 
L 170.317476 206.76785 
L 113.456687 206.76785 
z
"/>
   </g>
   <g id="patch_92">
    <path clip-path="url(#pb7cc6cb69e)" d="M 113.456687 208.27514 
L 173.329969 208.27514 
L 173.329969 208.921121 
L 113.456687 208.921121 
z
"/>
   </g>
   <g id="patch_93">
    <path clip-path="url(#pb7cc6cb69e)" d="M 113.456687 210.428411 
L 167.869827 210.428411 
L 167.869827 211.074393 
L 113.456687 211.074393 
z
"/>
   </g>
   <g id="patch_94">
    <path clip-path="url(#pb7cc6cb69e)" d="M 113.456687 212.581682 
L 167.869827 212.581682 
L 167.869827 213.227664 
L 113.456687 213.227664 
z
"/>
   </g>
   <g id="patch_95">
    <path clip-path="url(#pb7cc6cb69e)" d="M 113.456687 214.734953 
L 174.459653 214.734953 
L 174.459653 215.380935 
L 113.456687 215.380935 
z
"/>
   </g>
   <g id="patch_96">
    <path clip-path="url(#pb7cc6cb69e)" d="M 113.456687 216.888224 
L 160.715158 216.888224 
L 160.715158 217.534206 
L 113.456687 217.534206 
z
"/>
   </g>
   <g id="patch_97">
    <path clip-path="url(#pb7cc6cb69e)" d="M 113.456687 219.041495 
L 174.647934 219.041495 
L 174.647934 219.687477 
L 113.456687 219.687477 
z
"/>
   </g>
   <g id="patch_98">
    <path clip-path="url(#pb7cc6cb69e)" d="M 113.456687 221.194766 
L 164.857334 221.194766 
L 164.857334 221.840748 
L 113.456687 221.840748 
z
"/>
   </g>
   <g id="patch_99">
    <path clip-path="url(#pb7cc6cb69e)" d="M 113.456687 223.348037 
L 185.191656 223.348037 
L 185.191656 223.994019 
L 113.456687 223.994019 
z
"/>
   </g>
   <g id="patch_100">
    <path clip-path="url(#pb7cc6cb69e)" d="M 113.456687 225.501308 
L 174.459653 225.501308 
L 174.459653 226.14729 
L 113.456687 226.14729 
z
"/>
   </g>
   <g id="patch_101">
    <path clip-path="url(#pb7cc6cb69e)" d="M 113.456687 227.654579 
L 165.798738 227.654579 
L 165.798738 228.300561 
L 113.456687 228.300561 
z
"/>
   </g>
   <g id="patch_102">
    <path clip-path="url(#pb7cc6cb69e)" d="M 113.456687 229.80785 
L 173.141688 229.80785 
L 173.141688 230.453832 
L 113.456687 230.453832 
z
"/>
   </g>
   <g id="patch_103">
    <path clip-path="url(#pb7cc6cb69e)" d="M 113.456687 231.961121 
L 176.530742 231.961121 
L 176.530742 232.607103 
L 113.456687 232.607103 
z
"/>
   </g>
   <g id="patch_104">
    <path clip-path="url(#pb7cc6cb69e)" d="M 113.456687 234.114393 
L 174.459653 234.114393 
L 174.459653 234.760374 
L 113.456687 234.760374 
z
"/>
   </g>
   <g id="patch_105">
    <path clip-path="url(#pb7cc6cb69e)" d="M 113.456687 236.267664 
L 167.869827 236.267664 
L 167.869827 236.913645 
L 113.456687 236.913645 
z
"/>
   </g>
   <g id="patch_106">
    <path clip-path="url(#pb7cc6cb69e)" d="M 113.456687 238.420935 
L 175.589338 238.420935 
L 175.589338 239.066916 
L 113.456687 239.066916 
z
"/>
   </g>
   <g id="patch_107">
    <path clip-path="url(#pb7cc6cb69e)" d="M 113.456687 240.574206 
L 175.777618 240.574206 
L 175.777618 241.220187 
L 113.456687 241.220187 
z
"/>
   </g>
   <g id="patch_108">
    <path clip-path="url(#pb7cc6cb69e)" d="M 113.456687 242.727477 
L 173.894811 242.727477 
L 173.894811 243.373458 
L 113.456687 243.373458 
z
"/>
   </g>
   <g id="patch_109">
    <path clip-path="url(#pb7cc6cb69e)" d="M 113.456687 244.880748 
L 167.869827 244.880748 
L 167.869827 245.526729 
L 113.456687 245.526729 
z
"/>
   </g>
   <g id="patch_110">
    <path clip-path="url(#pb7cc6cb69e)" d="M 113.456687 247.034019 
L 167.681546 247.034019 
L 167.681546 247.68 
L 113.456687 247.68 
z
"/>
   </g>
   <g id="patch_111">
    <path clip-path="url(#pb7cc6cb69e)" d="M 113.456687 249.18729 
L 166.1753 249.18729 
L 166.1753 249.833271 
L 113.456687 249.833271 
z
"/>
   </g>
   <g id="patch_112">
    <path clip-path="url(#pb7cc6cb69e)" d="M 113.456687 251.340561 
L 128.330867 251.340561 
L 128.330867 251.986542 
L 113.456687 251.986542 
z
"/>
   </g>
   <g id="patch_113">
    <path clip-path="url(#pb7cc6cb69e)" d="M 113.456687 253.493832 
L 167.493265 253.493832 
L 167.493265 254.139813 
L 113.456687 254.139813 
z
"/>
   </g>
   <g id="patch_114">
    <path clip-path="url(#pb7cc6cb69e)" d="M 113.456687 255.647103 
L 175.212776 255.647103 
L 175.212776 256.293084 
L 113.456687 256.293084 
z
"/>
   </g>
   <g id="patch_115">
    <path clip-path="url(#pb7cc6cb69e)" d="M 113.456687 257.800374 
L 174.083092 257.800374 
L 174.083092 258.446355 
L 113.456687 258.446355 
z
"/>
   </g>
  </g>
  <g id="axes_3">
   <g id="patch_116">
    <path d="M 187.881718 259.2 
L 203.822822 259.2 
L 203.822822 28.8 
L 187.881718 28.8 
z
" style="fill:#ffffff;"/>
   </g>
   <g id="patch_117">
    <path clip-path="url(#pded1defee4)" d="M 188.678773 227.439252 
L 188.678773 227.439252 
L 191.66773 227.439252 
L 191.66773 258.661682 
L 185.689816 258.661682 
L 185.689816 227.439252 
L 188.678773 227.439252 
z
" style="fill:#ff7f0e;stroke:#ff7f0e;stroke-linejoin:miter;"/>
   </g>
   <g id="patch_118">
    <path clip-path="url(#pded1defee4)" d="M 188.678773 223.13271 
L 188.678773 223.13271 
L 191.66773 223.13271 
L 191.66773 226.362617 
L 185.689816 226.362617 
L 185.689816 223.13271 
L 188.678773 223.13271 
z
" style="fill:#2ca02c;stroke:#2ca02c;stroke-linejoin:miter;"/>
   </g>
   <g id="patch_119">
    <path clip-path="url(#pded1defee4)" d="M 188.678773 218.826168 
L 188.678773 218.826168 
L 191.66773 218.826168 
L 191.66773 222.056075 
L 185.689816 222.056075 
L 185.689816 218.826168 
L 188.678773 218.826168 
z
" style="fill:#d62728;stroke:#d62728;stroke-linejoin:miter;"/>
   </g>
   <g id="patch_120">
    <path clip-path="url(#pded1defee4)" d="M 188.678773 199.446729 
L 188.678773 199.446729 
L 191.66773 199.446729 
L 191.66773 217.749533 
L 185.689816 217.749533 
L 185.689816 199.446729 
L 188.678773 199.446729 
z
" style="fill:#9467bd;stroke:#9467bd;stroke-linejoin:miter;"/>
   </g>
   <g id="patch_121">
    <path clip-path="url(#pded1defee4)" d="M 188.678773 195.140187 
L 188.678773 195.140187 
L 191.66773 195.140187 
L 191.66773 198.370093 
L 185.689816 198.370093 
L 185.689816 195.140187 
L 188.678773 195.140187 
z
" style="fill:#8c564b;stroke:#8c564b;stroke-linejoin:miter;"/>
   </g>
   <g id="patch_122">
    <path clip-path="url(#pded1defee4)" d="M 188.678773 158.534579 
L 188.678773 158.534579 
L 191.66773 158.534579 
L 191.66773 194.063551 
L 185.689816 194.063551 
L 185.689816 158.534579 
L 188.678773 158.534579 
z
" style="fill:#e377c2;stroke:#e377c2;stroke-linejoin:miter;"/>
   </g>
   <g id="patch_123">
    <path clip-path="url(#pded1defee4)" d="M 188.678773 147.768224 
L 188.678773 147.768224 
L 191.66773 147.768224 
L 191.66773 157.457944 
L 185.689816 157.457944 
L 185.689816 147.768224 
L 188.678773 147.768224 
z
" style="fill:#7f7f7f;stroke:#7f7f7f;stroke-linejoin:miter;"/>
   </g>
   <g id="patch_124">
    <path clip-path="url(#pded1defee4)" d="M 188.678773 145.614953 
L 188.678773 145.614953 
L 191.66773 145.614953 
L 191.66773 146.691589 
L 185.689816 146.691589 
L 185.689816 145.614953 
L 188.678773 145.614953 
z
" style="fill:#1f77b4;stroke:#1f77b4;stroke-linejoin:miter;"/>
   </g>
   <g id="patch_125">
    <path clip-path="url(#pded1defee4)" d="M 188.678773 139.15514 
L 188.678773 139.15514 
L 191.66773 139.15514 
L 191.66773 144.538318 
L 185.689816 144.538318 
L 185.689816 139.15514 
L 188.678773 139.15514 
z
" style="fill:#bcbd22;stroke:#bcbd22;stroke-linejoin:miter;"/>
   </g>
   <g id="patch_126">
    <path clip-path="url(#pded1defee4)" d="M 188.678773 134.848598 
L 188.678773 134.848598 
L 191.66773 134.848598 
L 191.66773 138.078505 
L 185.689816 138.078505 
L 185.689816 134.848598 
L 188.678773 134.848598 
z
" style="fill:#17becf;stroke:#17becf;stroke-linejoin:miter;"/>
   </g>
   <g id="patch_127">
    <path clip-path="url(#pded1defee4)" d="M 188.678773 61.637383 
L 188.678773 61.637383 
L 191.66773 61.637383 
L 191.66773 133.771963 
L 185.689816 133.771963 
L 185.689816 61.637383 
L 188.678773 61.637383 
z
" style="fill:#ff7f0e;stroke:#ff7f0e;stroke-linejoin:miter;"/>
   </g>
   <g id="patch_128">
    <path clip-path="url(#pded1defee4)" d="M 188.678773 53.024299 
L 188.678773 53.024299 
L 191.66773 53.024299 
L 191.66773 60.560748 
L 185.689816 60.560748 
L 185.689816 53.024299 
L 188.678773 53.024299 
z
" style="fill:#2ca02c;stroke:#2ca02c;stroke-linejoin:miter;"/>
   </g>
   <g id="patch_129">
    <path clip-path="url(#pded1defee4)" d="M 188.678773 48.717757 
L 188.678773 48.717757 
L 191.66773 48.717757 
L 191.66773 51.947664 
L 185.689816 51.947664 
L 185.689816 48.717757 
L 188.678773 48.717757 
z
" style="fill:#d62728;stroke:#d62728;stroke-linejoin:miter;"/>
   </g>
   <g id="patch_130">
    <path clip-path="url(#pded1defee4)" d="M 188.678773 40.104673 
L 188.678773 40.104673 
L 191.66773 40.104673 
L 191.66773 47.641121 
L 185.689816 47.641121 
L 185.689816 40.104673 
L 188.678773 40.104673 
z
" style="fill:#9467bd;stroke:#9467bd;stroke-linejoin:miter;"/>
   </g>
   <g id="patch_131">
    <path clip-path="url(#pded1defee4)" d="M 188.678773 33.64486 
L 188.678773 33.64486 
L 191.66773 33.64486 
L 191.66773 39.028037 
L 185.689816 39.028037 
L 185.689816 33.64486 
L 188.678773 33.64486 
z
" style="fill:#8c564b;stroke:#8c564b;stroke-linejoin:miter;"/>
   </g>
   <g id="patch_132">
    <path clip-path="url(#pded1defee4)" d="M 188.678773 31.491589 
L 188.678773 31.491589 
L 191.66773 31.491589 
L 191.66773 32.568224 
L 185.689816 32.568224 
L 185.689816 31.491589 
L 188.678773 31.491589 
z
" style="fill:#1f77b4;stroke:#1f77b4;stroke-linejoin:miter;"/>
   </g>
   <g id="patch_133">
    <path clip-path="url(#pded1defee4)" d="M 188.678773 29.338318 
L 188.678773 29.338318 
L 191.66773 29.338318 
L 191.66773 30.414953 
L 185.689816 30.414953 
L 185.689816 29.338318 
L 188.678773 29.338318 
z
" style="fill:#1f77b4;stroke:#1f77b4;stroke-linejoin:miter;"/>
   </g>
   <g id="patch_134">
    <path clip-path="url(#pded1defee4)" d="M 188.678773 27.185047 
L 188.678773 27.185047 
L 191.66773 27.185047 
L 191.66773 28.261682 
L 185.689816 28.261682 
L 185.689816 27.185047 
L 188.678773 27.185047 
z
" style="fill:#1f77b4;stroke:#1f77b4;stroke-linejoin:miter;"/>
   </g>
   <g id="text_17">
    <!-- c) IDs -->
    <defs>
     <path d="M 9.8125 72.90625 
L 19.671875 72.90625 
L 19.671875 0 
L 9.8125 0 
z
" id="DejaVuSans-73"/>
    </defs>
    <g transform="translate(185.188207 18.6528)scale(0.075 -0.075)">
     <use xlink:href="#DejaVuSans-99"/>
     <use x="54.980469" xlink:href="#DejaVuSans-41"/>
     <use x="93.994141" xlink:href="#DejaVuSans-32"/>
     <use x="125.78125" xlink:href="#DejaVuSans-73"/>
     <use x="155.273438" xlink:href="#DejaVuSans-68"/>
     <use x="232.275391" xlink:href="#DejaVuSans-115"/>
    </g>
   </g>
  </g>
  <g id="axes_4">
   <g id="patch_135">
    <path d="M 206.512883 259.2 
L 453.6 259.2 
L 453.6 28.8 
L 206.512883 28.8 
z
" style="fill:#ffffff;"/>
   </g>
   <g id="text_18">
    <!-- d) Maximum Common Substructure -->
    <defs>
     <path d="M 9.8125 72.90625 
L 24.515625 72.90625 
L 43.109375 23.296875 
L 61.8125 72.90625 
L 76.515625 72.90625 
L 76.515625 0 
L 66.890625 0 
L 66.890625 64.015625 
L 48.09375 14.015625 
L 38.1875 14.015625 
L 19.390625 64.015625 
L 19.390625 0 
L 9.8125 0 
z
" id="DejaVuSans-77"/>
     <path d="M 54.890625 54.6875 
L 35.109375 28.078125 
L 55.90625 0 
L 45.3125 0 
L 29.390625 21.484375 
L 13.484375 0 
L 2.875 0 
L 24.125 28.609375 
L 4.6875 54.6875 
L 15.28125 54.6875 
L 29.78125 35.203125 
L 44.28125 54.6875 
z
" id="DejaVuSans-120"/>
     <path d="M 64.40625 67.28125 
L 64.40625 56.890625 
Q 59.421875 61.53125 53.78125 63.8125 
Q 48.140625 66.109375 41.796875 66.109375 
Q 29.296875 66.109375 22.65625 58.46875 
Q 16.015625 50.828125 16.015625 36.375 
Q 16.015625 21.96875 22.65625 14.328125 
Q 29.296875 6.6875 41.796875 6.6875 
Q 48.140625 6.6875 53.78125 8.984375 
Q 59.421875 11.28125 64.40625 15.921875 
L 64.40625 5.609375 
Q 59.234375 2.09375 53.4375 0.328125 
Q 47.65625 -1.421875 41.21875 -1.421875 
Q 24.65625 -1.421875 15.125 8.703125 
Q 5.609375 18.84375 5.609375 36.375 
Q 5.609375 53.953125 15.125 64.078125 
Q 24.65625 74.21875 41.21875 74.21875 
Q 47.75 74.21875 53.53125 72.484375 
Q 59.328125 70.75 64.40625 67.28125 
z
" id="DejaVuSans-67"/>
    </defs>
    <g transform="translate(263.11777 18.6528)scale(0.075 -0.075)">
     <use xlink:href="#DejaVuSans-100"/>
     <use x="63.476562" xlink:href="#DejaVuSans-41"/>
     <use x="102.490234" xlink:href="#DejaVuSans-32"/>
     <use x="134.277344" xlink:href="#DejaVuSans-77"/>
     <use x="220.556641" xlink:href="#DejaVuSans-97"/>
     <use x="281.835938" xlink:href="#DejaVuSans-120"/>
     <use x="341.015625" xlink:href="#DejaVuSans-105"/>
     <use x="368.798828" xlink:href="#DejaVuSans-109"/>
     <use x="466.210938" xlink:href="#DejaVuSans-117"/>
     <use x="529.589844" xlink:href="#DejaVuSans-109"/>
     <use x="627.001953" xlink:href="#DejaVuSans-32"/>
     <use x="658.789062" xlink:href="#DejaVuSans-67"/>
     <use x="728.613281" xlink:href="#DejaVuSans-111"/>
     <use x="789.794922" xlink:href="#DejaVuSans-109"/>
     <use x="887.207031" xlink:href="#DejaVuSans-109"/>
     <use x="984.619141" xlink:href="#DejaVuSans-111"/>
     <use x="1045.800781" xlink:href="#DejaVuSans-110"/>
     <use x="1109.179688" xlink:href="#DejaVuSans-32"/>
     <use x="1140.966797" xlink:href="#DejaVuSans-83"/>
     <use x="1204.443359" xlink:href="#DejaVuSans-117"/>
     <use x="1267.822266" xlink:href="#DejaVuSans-98"/>
     <use x="1331.298828" xlink:href="#DejaVuSans-115"/>
     <use x="1383.398438" xlink:href="#DejaVuSans-116"/>
     <use x="1422.607422" xlink:href="#DejaVuSans-114"/>
     <use x="1463.720703" xlink:href="#DejaVuSans-117"/>
     <use x="1527.099609" xlink:href="#DejaVuSans-99"/>
     <use x="1582.080078" xlink:href="#DejaVuSans-116"/>
     <use x="1621.289062" xlink:href="#DejaVuSans-117"/>
     <use x="1684.667969" xlink:href="#DejaVuSans-114"/>
     <use x="1723.53125" xlink:href="#DejaVuSans-101"/>
    </g>
   </g>
  </g>
 </g>
 <defs>
  <clipPath id="p4cd7b1326e">
   <rect height="230.4" width="95.646626" x="15.12" y="28.8"/>
  </clipPath>
  <clipPath id="pb7cc6cb69e">
   <rect height="230.4" width="71.734969" x="113.456687" y="28.8"/>
  </clipPath>
  <clipPath id="pded1defee4">
   <rect height="230.4" width="15.941104" x="187.881718" y="28.8"/>
  </clipPath>
 </defs>
</svg>
