<?xml version="1.0" standalone="no" ?>
<!DOCTYPE svg PUBLIC "-//W3C//DTD SVG 1.1//EN" "http://www.w3.org/Graphics/SVG/1.1/DTD/svg11.dtd">
<svg width="226px" height="156px" viewBox="0 0 226 156" style="background-color: #ffffff00" xmlns="http://www.w3.org/2000/svg" xmlns:xlink="http://www.w3.org/1999/xlink" version="1.1" >
<text x="0" y="0" stroke="none" fill="#000000" transform="matrix(0.05 0 0 0.05 175.48 50.86)" font-style="normal" font-weight="normal" font-size="400px" font-family="Helvetica" >
Alkyl</text>
<path stroke="none" fill="#000000" transform="matrix(0.05 0 0 0.05 -243 -121)" d="M 7416.61,3503.6 L 7422.2,3513.6 L 7414.93,3523.6 L 6829.47,3523.6 L 6814.93,3503.6 L 7416.61,3503.6 Z " />
<text x="0" y="0" stroke="none" fill="#000000" transform="matrix(0.05 0 0 0.05 81.6183 90.3828)" font-style="normal" font-weight="normal" font-size="400px" font-family="Helvetica" >
N</text>
<text x="0" y="0" stroke="none" fill="#000000" transform="matrix(0.05 0 0 0.05 130.158 90.3828)" font-style="normal" font-weight="normal" font-size="400px" font-family="Helvetica" >
N</text>
<path stroke="none" fill="#000000" transform="matrix(0.05 0 0 0.05 -243 -121)" d="M 6710.29,3890.38 L 6691.27,3884.2 L 6814.93,3503.6 L 6829.47,3523.6 L 6710.29,3890.38 Z " />
<path stroke="none" fill="#000000" transform="matrix(0.05 0 0 0.05 -243 -121)" d="M 7122.2,4424.44 L 7122.2,4449.16 L 6806.19,4219.6 L 6817.94,4203.42 L 7122.2,4424.44 Z " />
<path stroke="none" fill="#000000" transform="matrix(0.05 0 0 0.05 -243 -121)" d="M 7128.08,4339.73 L 7116.32,4355.91 L 7078.06,4328.11 L 7089.82,4311.93 L 7128.08,4339.73 Z " />
<path stroke="none" fill="#000000" transform="matrix(0.05 0 0 0.05 -243 -121)" d="M 7051.56,4284.14 L 7039.8,4300.32 L 7001.54,4272.53 L 7013.3,4256.35 L 7051.56,4284.14 Z " />
<path stroke="none" fill="#000000" transform="matrix(0.05 0 0 0.05 -243 -121)" d="M 6975.03,4228.55 L 6963.28,4244.74 L 6925.02,4216.94 L 6936.77,4200.76 L 6975.03,4228.55 Z " />
<path stroke="none" fill="#000000" transform="matrix(0.05 0 0 0.05 -243 -121)" d="M 6898.51,4172.97 L 6886.76,4189.15 L 6848.5,4161.36 L 6860.25,4145.17 L 6898.51,4172.97 Z " />
<path stroke="none" fill="#000000" transform="matrix(0.05 0 0 0.05 -243 -121)" d="M 7426.5,4203.39 L 7438.26,4219.57 L 7122.2,4449.16 L 7122.2,4424.44 L 7426.5,4203.39 Z " />
<path stroke="none" fill="#000000" transform="matrix(0.05 0 0 0.05 -243 -121)" d="M 7384.19,4145.14 L 7395.95,4161.32 L 7357.68,4189.12 L 7345.93,4172.94 L 7384.19,4145.14 Z " />
<path stroke="none" fill="#000000" transform="matrix(0.05 0 0 0.05 -243 -121)" d="M 7307.66,4200.74 L 7319.41,4216.92 L 7281.15,4244.72 L 7269.39,4228.53 L 7307.66,4200.74 Z " />
<path stroke="none" fill="#000000" transform="matrix(0.05 0 0 0.05 -243 -121)" d="M 7231.12,4256.33 L 7242.88,4272.51 L 7204.61,4300.31 L 7192.86,4284.13 L 7231.12,4256.33 Z " />
<path stroke="none" fill="#000000" transform="matrix(0.05 0 0 0.05 -243 -121)" d="M 7154.59,4311.93 L 7166.34,4328.11 L 7128.08,4355.91 L 7116.32,4339.73 L 7154.59,4311.93 Z " />
<path stroke="none" fill="#000000" transform="matrix(0.05 0 0 0.05 -243 -121)" d="M 7414.93,3523.6 L 7422.2,3513.6 L 7433.44,3515.83 L 7553.14,3884.22 L 7534.12,3890.4 L 7414.93,3523.6 Z " />
<path stroke="none" fill="#000000" transform="matrix(0.05 0 0 0.05 -243 -121)" d="M 6074.58,4277.33 L 6066,4269.6 L 6068.4,4258.31 L 6466.27,4129.08 L 6472.45,4148.1 L 6074.58,4277.33 Z " />
<path stroke="none" fill="#000000" transform="matrix(0.05 0 0 0.05 -243 -121)" d="M 8175.8,4258.31 L 8178.2,4269.6 L 8169.62,4277.33 L 7772.01,4148.14 L 7778.19,4129.11 L 8175.8,4258.31 Z " />
<path stroke="none" fill="#000000" transform="matrix(0.05 0 0 0.05 -243 -121)" d="M 5617.8,3879.49 L 5622.6,3856.91 L 6068.4,4258.31 L 6066,4269.6 L 6055.02,4273.17 L 5617.8,3879.49 Z " />
<path stroke="none" fill="#000000" transform="matrix(0.05 0 0 0.05 -243 -121)" d="M 5596.23,3956.94 L 5609.61,3942.07 L 5993.64,4287.86 L 5980.26,4302.72 L 5596.23,3956.94 Z " />
<path stroke="none" fill="#000000" transform="matrix(0.05 0 0 0.05 -243 -121)" d="M 5058.18,4061.33 L 5041.02,4045.87 L 5622.6,3856.91 L 5617.8,3879.49 L 5058.18,4061.33 Z " />
<path stroke="none" fill="#000000" transform="matrix(0.05 0 0 0.05 -243 -121)" d="M 4935.78,4636.83 L 4913.82,4643.97 L 5041.02,4045.87 L 5058.18,4061.33 L 4935.78,4636.83 Z " />
<path stroke="none" fill="#000000" transform="matrix(0.05 0 0 0.05 -243 -121)" d="M 5013.64,4616.8 L 4994.08,4612.64 L 5101.59,4107.14 L 5121.15,4111.31 L 5013.64,4616.8 Z " />
<path stroke="none" fill="#000000" transform="matrix(0.05 0 0 0.05 -243 -121)" d="M 5373,5030.51 L 5368.2,5053.09 L 4913.82,4643.97 L 4935.78,4636.83 L 5373,5030.51 Z " />
<path stroke="none" fill="#000000" transform="matrix(0.05 0 0 0.05 -243 -121)" d="M 5932.82,4848.67 L 5941.4,4856.4 L 5939,4867.69 L 5368.2,5053.09 L 5373,5030.51 L 5932.82,4848.67 Z " />
<path stroke="none" fill="#000000" transform="matrix(0.05 0 0 0.05 -243 -121)" d="M 5876.5,4791.24 L 5882.68,4810.26 L 5390.98,4969.97 L 5384.8,4950.95 L 5876.5,4791.24 Z " />
<path stroke="none" fill="#000000" transform="matrix(0.05 0 0 0.05 -243 -121)" d="M 6055.02,4273.17 L 6066,4269.6 L 6074.58,4277.33 L 5952.38,4852.83 L 5941.4,4856.4 L 5932.82,4848.67 L 6055.02,4273.17 Z " />
<path stroke="none" fill="#000000" transform="matrix(0.05 0 0 0.05 -243 -121)" d="M 8311.58,4848.67 L 8294.42,4864.13 L 8169.62,4277.33 L 8178.2,4269.6 L 8189.18,4273.17 L 8311.58,4848.67 Z " />
<path stroke="none" fill="#000000" transform="matrix(0.05 0 0 0.05 -243 -121)" d="M 8374.55,4798.69 L 8354.99,4802.85 L 8247.48,4297.36 L 8267.04,4293.2 L 8374.55,4798.69 Z " />
<path stroke="none" fill="#000000" transform="matrix(0.05 0 0 0.05 -243 -121)" d="M 8871.2,5030.51 L 8876,5053.09 L 8294.42,4864.13 L 8311.58,4848.67 L 8871.2,5030.51 Z " />
<path stroke="none" fill="#000000" transform="matrix(0.05 0 0 0.05 -243 -121)" d="M 9308.42,4636.83 L 9330.38,4643.97 L 8876,5053.09 L 8871.2,5030.51 L 9308.42,4636.83 Z " />
<path stroke="none" fill="#000000" transform="matrix(0.05 0 0 0.05 -243 -121)" d="M 9233.65,4607.29 L 9247.03,4622.15 L 8863.01,4967.93 L 8849.63,4953.06 L 9233.65,4607.29 Z " />
<path stroke="none" fill="#000000" transform="matrix(0.05 0 0 0.05 -243 -121)" d="M 9186.02,4061.33 L 9203.18,4045.87 L 9330.38,4643.97 L 9308.42,4636.83 L 9186.02,4061.33 Z " />
<path stroke="none" fill="#000000" transform="matrix(0.05 0 0 0.05 -243 -121)" d="M 8626.4,3879.49 L 8624,3868.2 L 8632.36,3860.4 L 9203.18,4045.87 L 9186.02,4061.33 L 8626.4,3879.49 Z " />
<path stroke="none" fill="#000000" transform="matrix(0.05 0 0 0.05 -243 -121)" d="M 8638.19,3959.03 L 8644.37,3940.01 L 9135.92,4099.72 L 9129.73,4118.74 L 8638.19,3959.03 Z " />
<path stroke="none" fill="#000000" transform="matrix(0.05 0 0 0.05 -243 -121)" d="M 8189.18,4273.17 L 8178.2,4269.6 L 8175.8,4258.31 L 8612.84,3864.79 L 8624,3868.2 L 8626.4,3879.49 L 8189.18,4273.17 Z " />
<path stroke="none" fill="#000000" transform="matrix(0.05 0 0 0.05 -243 -121)" d="M 6452.62,3107.16 L 6549.69,3036.61 L 6559.8,3053.98 L 6466.02,3122.15 L 6452.62,3107.16 Z " />
<path stroke="none" fill="#000000" transform="matrix(0.05 0 0 0.05 -243 -121)" d="M 6492.16,3151.37 L 6579.53,3087.87 L 6589.64,3105.24 L 6505.56,3166.35 L 6492.16,3151.37 Z " />
<path stroke="none" fill="#000000" transform="matrix(0.05 0 0 0.05 -243 -121)" d="M 6531.7,3195.57 L 6609.37,3139.12 L 6619.48,3156.5 L 6545.1,3210.56 L 6531.7,3195.57 Z " />
<path stroke="none" fill="#000000" transform="matrix(0.05 0 0 0.05 -243 -121)" d="M 6571.24,3239.78 L 6639.21,3190.38 L 6649.33,3207.75 L 6584.65,3254.76 L 6571.24,3239.78 Z " />
<path stroke="none" fill="#000000" transform="matrix(0.05 0 0 0.05 -243 -121)" d="M 6610.79,3283.99 L 6669.05,3241.64 L 6679.17,3259.01 L 6624.19,3298.97 L 6610.79,3283.99 Z " />
<path stroke="none" fill="#000000" transform="matrix(0.05 0 0 0.05 -243 -121)" d="M 6650.33,3328.19 L 6698.9,3292.89 L 6709.01,3310.27 L 6663.73,3343.18 L 6650.33,3328.19 Z " />
<path stroke="none" fill="#000000" transform="matrix(0.05 0 0 0.05 -243 -121)" d="M 6689.87,3372.4 L 6728.74,3344.15 L 6738.85,3361.52 L 6703.27,3387.38 L 6689.87,3372.4 Z " />
<path stroke="none" fill="#000000" transform="matrix(0.05 0 0 0.05 -243 -121)" d="M 6729.41,3416.6 L 6758.58,3395.41 L 6768.69,3412.78 L 6742.82,3431.59 L 6729.41,3416.6 Z " />
<path stroke="none" fill="#000000" transform="matrix(0.05 0 0 0.05 -243 -121)" d="M 6768.96,3460.81 L 6788.42,3446.66 L 6798.54,3464.03 L 6782.36,3475.79 L 6768.96,3460.81 Z " />
<path stroke="none" fill="#000000" transform="matrix(0.05 0 0 0.05 -243 -121)" d="M 7738.89,2972.11 L 7774.8,3028.2 L 7844.71,3038.67 L 7433.44,3515.83 L 7422.2,3513.6 L 7416.61,3503.6 L 7738.89,2972.11 Z " />
<path stroke="none" fill="#000000" transform="matrix(0.05 0 0 0.05 -243 -121)" d="M 6704.26,2475.93 L 6722.54,2484.07 L 6475.98,3038 L 6462.81,3018.4 L 6704.26,2475.93 Z " />
<path stroke="none" fill="#000000" transform="matrix(0.05 0 0 0.05 -243 -121)" d="M 5873.11,3056.99 L 5872.49,3037 L 6462.81,3018.4 L 6475.98,3038 L 5873.11,3056.99 Z " />
<path stroke="none" fill="#000000" transform="matrix(0.05 0 0 0.05 -243 -121)" d="M 7521.66,2484.07 L 7539.94,2475.93 L 7781.31,3018.24 L 7774.8,3028.2 L 7738.89,2972.11 L 7521.66,2484.07 Z " />
<path stroke="none" fill="#000000" transform="matrix(0.05 0 0 0.05 -243 -121)" d="M 8371.67,3022.2 L 8371.53,3042.2 L 7844.71,3038.67 L 7774.8,3028.2 L 7781.31,3018.24 L 8371.67,3022.2 Z " />
<text x="0" y="0" stroke="none" fill="#000000" transform="matrix(0.05 0 0 0.05 69.6901 149.073)" font-style="normal" font-weight="normal" font-size="400px" font-family="Helvetica" >
Alkyl</text>
<path stroke="none" fill="#000000" transform="matrix(0.05 0 0 0.05 -243 -121)" d="M 6293.5,5160.13 L 6280.11,5174.99 L 5939,4867.69 L 5941.4,4856.4 L 5952.38,4852.83 L 6293.5,5160.13 Z " />
<path stroke="none" fill="#000000" transform="matrix(0.05 0 0 0.05 -243 -121)" d="M 8509.9,3452.62 L 8529.3,3447.78 L 8632.36,3860.4 L 8624,3868.2 L 8612.84,3864.79 L 8509.9,3452.62 Z " />
<path stroke="none" fill="#000000" transform="matrix(0.05 0 0 0.05 -243 -121)" d="M 7012.53,4550.5 A 33.3333,33.3333 0 1 0 7079.2,4550.5A 33.3333,33.3333 0 1 0 7012.53,4550.5Z " />
<path stroke="none" fill="#000000" transform="matrix(0.05 0 0 0.05 -243 -121)" d="M 7162.53,4550.5 A 33.3333,33.3333 0 1 0 7229.2,4550.5A 33.3333,33.3333 0 1 0 7162.53,4550.5Z " />
</svg>
