<?xml version="1.0" standalone="no" ?>
<!DOCTYPE svg PUBLIC "-//W3C//DTD SVG 1.1//EN" "http://www.w3.org/Graphics/SVG/1.1/DTD/svg11.dtd">
<svg width="224px" height="154px" viewBox="0 0 224 154" style="background-color: #ffffff00" xmlns="http://www.w3.org/2000/svg" xmlns:xlink="http://www.w3.org/1999/xlink" version="1.1" >
<text x="0" y="0" stroke="none" fill="#000000" transform="matrix(0.05 0 0 0.05 178.46 53.23)" font-style="normal" font-weight="normal" font-size="400px" font-family="Helvetica" >
Alkyl</text>
<text x="0" y="0" stroke="none" fill="#000000" transform="matrix(0.05 0 0 0.05 81.6883 88.7928)" font-style="normal" font-weight="normal" font-size="400px" font-family="Helvetica" >
N</text>
<text x="0" y="0" stroke="none" fill="#000000" transform="matrix(0.05 0 0 0.05 130.228 88.7928)" font-style="normal" font-weight="normal" font-size="400px" font-family="Helvetica" >
N</text>
<path stroke="none" fill="#000000" transform="matrix(0.05 0 0 0.05 -76 -26)" d="M 3490.87,1591.8 L 3483.6,1581.8 L 3496.63,1571.8 L 4070.57,1571.8 L 4083.6,1581.8 L 4076.33,1591.8 L 3490.87,1591.8 Z " />
<path stroke="none" fill="#000000" transform="matrix(0.05 0 0 0.05 -76 -26)" d="M 3371.69,1958.58 L 3352.67,1952.4 L 3470.83,1588.73 L 3483.6,1581.8 L 3490.87,1591.8 L 3371.69,1958.58 Z " />
<path stroke="none" fill="#000000" transform="matrix(0.05 0 0 0.05 -76 -26)" d="M 3783.6,2492.84 L 3783.6,2517.56 L 3466.91,2287.38 L 3478.67,2271.2 L 3783.6,2492.84 Z " />
<path stroke="none" fill="#000000" transform="matrix(0.05 0 0 0.05 -76 -26)" d="M 3789.48,2408.09 L 3777.72,2424.27 L 3739.37,2396.39 L 3751.13,2380.22 L 3789.48,2408.09 Z " />
<path stroke="none" fill="#000000" transform="matrix(0.05 0 0 0.05 -76 -26)" d="M 3712.77,2352.34 L 3701.01,2368.52 L 3662.66,2340.64 L 3674.42,2324.46 L 3712.77,2352.34 Z " />
<path stroke="none" fill="#000000" transform="matrix(0.05 0 0 0.05 -76 -26)" d="M 3636.06,2296.59 L 3624.3,2312.76 L 3585.95,2284.89 L 3597.71,2268.71 L 3636.06,2296.59 Z " />
<path stroke="none" fill="#000000" transform="matrix(0.05 0 0 0.05 -76 -26)" d="M 3559.36,2240.83 L 3547.6,2257.01 L 3509.24,2229.13 L 3521,2212.96 L 3559.36,2240.83 Z " />
<path stroke="none" fill="#000000" transform="matrix(0.05 0 0 0.05 -76 -26)" d="M 4087.27,2272.12 L 4099.03,2288.3 L 3783.6,2517.56 L 3783.6,2492.84 L 4087.27,2272.12 Z " />
<path stroke="none" fill="#000000" transform="matrix(0.05 0 0 0.05 -76 -26)" d="M 4044.94,2213.87 L 4056.69,2230.05 L 4018.52,2257.8 L 4006.76,2241.62 L 4044.94,2213.87 Z " />
<path stroke="none" fill="#000000" transform="matrix(0.05 0 0 0.05 -76 -26)" d="M 3968.59,2269.36 L 3980.35,2285.54 L 3942.17,2313.29 L 3930.42,2297.11 L 3968.59,2269.36 Z " />
<path stroke="none" fill="#000000" transform="matrix(0.05 0 0 0.05 -76 -26)" d="M 3892.24,2324.86 L 3904,2341.03 L 3865.83,2368.78 L 3854.07,2352.6 L 3892.24,2324.86 Z " />
<path stroke="none" fill="#000000" transform="matrix(0.05 0 0 0.05 -76 -26)" d="M 3815.89,2380.35 L 3827.65,2396.52 L 3789.48,2424.27 L 3777.72,2408.09 L 3815.89,2380.35 Z " />
<path stroke="none" fill="#000000" transform="matrix(0.05 0 0 0.05 -76 -26)" d="M 4076.33,1591.8 L 4083.6,1581.8 L 4096.37,1588.73 L 4214.54,1952.42 L 4195.52,1958.6 L 4076.33,1591.8 Z " />
<path stroke="none" fill="#000000" transform="matrix(0.05 0 0 0.05 -76 -26)" d="M 4825.23,2388.06 L 4826.6,2399.6 L 4817.41,2406.46 L 4434.72,2236.81 L 4442.82,2218.52 L 4825.23,2388.06 Z " />
<path stroke="none" fill="#000000" transform="matrix(0.05 0 0 0.05 -76 -26)" d="M 2748.72,2321.41 L 2740.4,2313.4 L 2743.17,2302.19 L 3128.35,2191.02 L 3133.89,2210.23 L 2748.72,2321.41 Z " />
<path stroke="none" fill="#000000" transform="matrix(0.05 0 0 0.05 -76 -26)" d="M 4913.17,2987.58 L 4894.83,3001.62 L 4817.41,2406.46 L 4826.6,2399.6 L 4837.26,2404.03 L 4913.17,2987.58 Z " />
<path stroke="none" fill="#000000" transform="matrix(0.05 0 0 0.05 -76 -26)" d="M 4979.95,2942.77 L 4960.12,2945.35 L 4893.45,2432.82 L 4913.28,2430.24 L 4979.95,2942.77 Z " />
<path stroke="none" fill="#000000" transform="matrix(0.05 0 0 0.05 -76 -26)" d="M 5456.71,3213.35 L 5459.69,3236.25 L 4894.83,3001.62 L 4913.17,2987.58 L 5456.71,3213.35 Z " />
<path stroke="none" fill="#000000" transform="matrix(0.05 0 0 0.05 -76 -26)" d="M 5924.14,2855.77 L 5945.46,2864.63 L 5459.69,3236.25 L 5456.71,3213.35 L 5924.14,2855.77 Z " />
<path stroke="none" fill="#000000" transform="matrix(0.05 0 0 0.05 -76 -26)" d="M 5851.94,2820.33 L 5864.09,2836.22 L 5453.53,3150.3 L 5441.37,3134.42 L 5851.94,2820.33 Z " />
<path stroke="none" fill="#000000" transform="matrix(0.05 0 0 0.05 -76 -26)" d="M 5848.03,2272.22 L 5866.37,2258.18 L 5945.46,2864.63 L 5924.14,2855.77 L 5848.03,2272.22 Z " />
<path stroke="none" fill="#000000" transform="matrix(0.05 0 0 0.05 -76 -26)" d="M 5304.69,2046.45 L 5303.2,2035 L 5312.47,2028.02 L 5866.37,2258.18 L 5848.03,2272.22 L 5304.69,2046.45 Z " />
<path stroke="none" fill="#000000" transform="matrix(0.05 0 0 0.05 -76 -26)" d="M 5310.11,2126.66 L 5317.78,2108.19 L 5795.03,2306.49 L 5787.35,2324.96 L 5310.11,2126.66 Z " />
<path stroke="none" fill="#000000" transform="matrix(0.05 0 0 0.05 -76 -26)" d="M 4837.26,2404.03 L 4826.6,2399.6 L 4825.23,2388.06 L 5292.62,2030.5 L 5303.2,2035 L 5304.69,2046.45 L 4837.26,2404.03 Z " />
<path stroke="none" fill="#000000" transform="matrix(0.05 0 0 0.05 -76 -26)" d="M 2305.23,1908.61 L 2310.77,1886.19 L 2743.17,2302.19 L 2740.4,2313.4 L 2729.3,2316.6 L 2305.23,1908.61 Z " />
<path stroke="none" fill="#000000" transform="matrix(0.05 0 0 0.05 -76 -26)" d="M 2281.1,1985.31 L 2294.97,1970.9 L 2667.45,2329.25 L 2653.58,2343.66 L 2281.1,1985.31 Z " />
<path stroke="none" fill="#000000" transform="matrix(0.05 0 0 0.05 -76 -26)" d="M 1739.92,2071.81 L 1723.28,2055.79 L 2310.77,1886.19 L 2305.23,1908.61 L 1739.92,2071.81 Z " />
<path stroke="none" fill="#000000" transform="matrix(0.05 0 0 0.05 -76 -26)" d="M 1598.49,2643 L 1576.31,2649.4 L 1723.28,2055.79 L 1739.92,2071.81 L 1598.49,2643 Z " />
<path stroke="none" fill="#000000" transform="matrix(0.05 0 0 0.05 -76 -26)" d="M 1676.99,2625.55 L 1657.57,2620.74 L 1781.79,2119.04 L 1801.21,2123.85 L 1676.99,2625.55 Z " />
<path stroke="none" fill="#000000" transform="matrix(0.05 0 0 0.05 -76 -26)" d="M 2022.57,3050.99 L 2017.03,3073.41 L 1576.31,2649.4 L 1598.49,2643 L 2022.57,3050.99 Z " />
<path stroke="none" fill="#000000" transform="matrix(0.05 0 0 0.05 -76 -26)" d="M 2587.88,2887.79 L 2596.2,2895.8 L 2593.43,2907.01 L 2017.03,3073.41 L 2022.57,3050.99 L 2587.88,2887.79 Z " />
<path stroke="none" fill="#000000" transform="matrix(0.05 0 0 0.05 -76 -26)" d="M 2533.53,2828.55 L 2539.08,2847.77 L 2042.54,2991.11 L 2036.99,2971.9 L 2533.53,2828.55 Z " />
<path stroke="none" fill="#000000" transform="matrix(0.05 0 0 0.05 -76 -26)" d="M 2729.3,2316.6 L 2740.4,2313.4 L 2748.72,2321.41 L 2607.29,2892.6 L 2596.2,2895.8 L 2587.88,2887.79 L 2729.3,2316.6 Z " />
<text x="0" y="0" stroke="none" fill="#000000" transform="matrix(0.05 0 0 0.05 68.7601 146.763)" font-style="normal" font-weight="normal" font-size="400px" font-family="Helvetica" >
Alkyl</text>
<path stroke="none" fill="#000000" transform="matrix(0.05 0 0 0.05 -76 -26)" d="M 2936.04,3208.88 L 2922.18,3223.29 L 2593.43,2907.01 L 2596.2,2895.8 L 2607.29,2892.6 L 2936.04,3208.88 Z " />
<path stroke="none" fill="#000000" transform="matrix(0.05 0 0 0.05 -76 -26)" d="M 5244.66,1610.94 L 5264.54,1608.66 L 5312.47,2028.02 L 5303.2,2035 L 5292.62,2030.5 L 5244.66,1610.94 Z " />
<path stroke="none" fill="#000000" transform="matrix(0.05 0 0 0.05 -76 -26)" d="M 4655.03,1418.43 L 4671.37,1434.77 L 4096.37,1588.73 L 4083.6,1581.8 L 4090.67,1569.55 L 4655.03,1418.43 Z " />
<path stroke="none" fill="#000000" transform="matrix(0.05 0 0 0.05 -76 -26)" d="M 3627.65,1005.19 L 3649.95,999.21 L 3496.63,1571.8 L 3483.6,1581.8 L 3476.53,1569.55 L 3627.65,1005.19 Z " />
<path stroke="none" fill="#000000" transform="matrix(0.05 0 0 0.05 -76 -26)" d="M 2895.83,1434.77 L 2912.17,1418.43 L 3476.53,1569.55 L 3483.6,1581.8 L 3470.83,1588.73 L 2895.83,1434.77 Z " />
<path stroke="none" fill="#000000" transform="matrix(0.05 0 0 0.05 -76 -26)" d="M 3917.25,999.21 L 3939.55,1005.19 L 4090.67,1569.55 L 4083.6,1581.8 L 4070.57,1571.8 L 3917.25,999.21 Z " />
<path stroke="none" fill="#000000" transform="matrix(0.05 0 0 0.05 -76 -26)" d="M 4345.53,570.929 L 4359.67,585.071 L 3939.55,1005.19 L 3917.25,999.21 L 4345.53,570.929 Z " />
<path stroke="none" fill="#000000" transform="matrix(0.05 0 0 0.05 -76 -26)" d="M 3207.53,585.071 L 3221.67,570.929 L 3649.95,999.21 L 3627.65,1005.19 L 3207.53,585.071 Z " />
<path stroke="none" fill="#000000" transform="matrix(0.05 0 0 0.05 -76 -26)" d="M 4808.74,844.413 L 4828.06,849.586 L 4671.37,1434.77 L 4655.03,1418.43 L 4808.74,844.413 Z " />
<path stroke="none" fill="#000000" transform="matrix(0.05 0 0 0.05 -76 -26)" d="M 2739.14,849.586 L 2758.46,844.413 L 2912.17,1418.43 L 2895.83,1434.77 L 2739.14,849.586 Z " />
<path stroke="none" fill="#000000" transform="matrix(0.05 0 0 0.05 -76 -26)" d="M 3675.27,2646.79 A 33.3333,33.3333 0 1 0 3741.93,2646.79A 33.3333,33.3333 0 1 0 3675.27,2646.79Z " />
<path stroke="none" fill="#000000" transform="matrix(0.05 0 0 0.05 -76 -26)" d="M 3825.27,2646.79 A 33.3333,33.3333 0 1 0 3891.93,2646.79A 33.3333,33.3333 0 1 0 3825.27,2646.79Z " />
</svg>
