<?xml version="1.0" standalone="no" ?>
<!DOCTYPE svg PUBLIC "-//W3C//DTD SVG 1.1//EN" "http://www.w3.org/Graphics/SVG/1.1/DTD/svg11.dtd">
<svg width="242px" height="180px" viewBox="0 0 242 180" style="background-color: #ffffff00" xmlns="http://www.w3.org/2000/svg" xmlns:xlink="http://www.w3.org/1999/xlink" version="1.1" >
<text x="0" y="0" stroke="none" fill="#000000" transform="matrix(0.05 0 0 0.05 191.49 57.16)" font-style="normal" font-weight="normal" font-size="400px" font-family="Helvetica" >
Alkyl</text>
<path stroke="none" fill="#000000" transform="matrix(0.05 0 0 0.05 -52 -32)" d="M 3782.01,1715 L 3787.6,1725 L 3780.33,1735 L 3194.86,1735 L 3180.34,1715 L 3782.01,1715 Z " />
<text x="0" y="0" stroke="none" fill="#000000" transform="matrix(0.05 0 0 0.05 90.8783 89.9628)" font-style="normal" font-weight="normal" font-size="400px" font-family="Helvetica" >
N</text>
<text x="0" y="0" stroke="none" fill="#000000" transform="matrix(0.05 0 0 0.05 139.428 89.9628)" font-style="normal" font-weight="normal" font-size="400px" font-family="Helvetica" >
N</text>
<path stroke="none" fill="#000000" transform="matrix(0.05 0 0 0.05 -52 -32)" d="M 3075.83,2101.09 L 3056.81,2094.9 L 3180.34,1715 L 3194.86,1735 L 3075.83,2101.09 Z " />
<path stroke="none" fill="#000000" transform="matrix(0.05 0 0 0.05 -52 -32)" d="M 3487.6,2636.04 L 3487.6,2660.76 L 3170.28,2430.34 L 3182.03,2414.16 L 3487.6,2636.04 Z " />
<path stroke="none" fill="#000000" transform="matrix(0.05 0 0 0.05 -52 -32)" d="M 3493.47,2551.31 L 3481.72,2567.49 L 3443.27,2539.57 L 3455.02,2523.39 L 3493.47,2551.31 Z " />
<path stroke="none" fill="#000000" transform="matrix(0.05 0 0 0.05 -52 -32)" d="M 3416.57,2495.47 L 3404.82,2511.66 L 3366.37,2483.74 L 3378.13,2467.56 L 3416.57,2495.47 Z " />
<path stroke="none" fill="#000000" transform="matrix(0.05 0 0 0.05 -52 -32)" d="M 3339.68,2439.64 L 3327.93,2455.82 L 3289.48,2427.91 L 3301.23,2411.72 L 3339.68,2439.64 Z " />
<path stroke="none" fill="#000000" transform="matrix(0.05 0 0 0.05 -52 -32)" d="M 3262.79,2383.81 L 3251.03,2399.99 L 3212.59,2372.07 L 3224.34,2355.89 L 3262.79,2383.81 Z " />
<path stroke="none" fill="#000000" transform="matrix(0.05 0 0 0.05 -52 -32)" d="M 3791.73,2415.12 L 3803.48,2431.3 L 3487.6,2660.76 L 3487.6,2636.04 L 3791.73,2415.12 Z " />
<path stroke="none" fill="#000000" transform="matrix(0.05 0 0 0.05 -52 -32)" d="M 3749.41,2356.87 L 3761.17,2373.05 L 3722.93,2400.83 L 3711.17,2384.65 L 3749.41,2356.87 Z " />
<path stroke="none" fill="#000000" transform="matrix(0.05 0 0 0.05 -52 -32)" d="M 3672.93,2412.43 L 3684.68,2428.61 L 3646.44,2456.39 L 3634.69,2440.21 L 3672.93,2412.43 Z " />
<path stroke="none" fill="#000000" transform="matrix(0.05 0 0 0.05 -52 -32)" d="M 3596.44,2467.99 L 3608.2,2484.17 L 3569.95,2511.95 L 3558.2,2495.77 L 3596.44,2467.99 Z " />
<path stroke="none" fill="#000000" transform="matrix(0.05 0 0 0.05 -52 -32)" d="M 3519.96,2523.55 L 3531.71,2539.73 L 3493.47,2567.51 L 3481.71,2551.33 L 3519.96,2523.55 Z " />
<path stroke="none" fill="#000000" transform="matrix(0.05 0 0 0.05 -52 -32)" d="M 3780.33,1735 L 3787.6,1725 L 3798.84,1727.23 L 3918.27,2094.92 L 3899.24,2101.1 L 3780.33,1735 Z " />
<path stroke="none" fill="#000000" transform="matrix(0.05 0 0 0.05 -52 -32)" d="M 2248,2699.29 L 2239.2,2692.6 L 2240.74,2680.53 L 2824.11,2377.06 L 2833.34,2394.8 L 2248,2699.29 Z " />
<path stroke="none" fill="#000000" transform="matrix(0.05 0 0 0.05 -52 -32)" d="M 4676.37,2603.99 L 4678.2,2615.8 L 4669.47,2622.82 L 4138.74,2381.99 L 4147.01,2363.78 L 4676.37,2603.99 Z " />
<path stroke="none" fill="#000000" transform="matrix(0.05 0 0 0.05 -52 -32)" d="M 1790.8,2302.49 L 1793.2,2291.2 L 1804.18,2287.63 L 2240.74,2680.53 L 2239.2,2692.6 L 2228.22,2696.17 L 1790.8,2302.49 Z " />
<path stroke="none" fill="#000000" transform="matrix(0.05 0 0 0.05 -52 -32)" d="M 1769.23,2379.96 L 1782.61,2365.09 L 2166.81,2710.87 L 2153.43,2725.73 L 1769.23,2379.96 Z " />
<path stroke="none" fill="#000000" transform="matrix(0.05 0 0 0.05 -52 -32)" d="M 1231.18,2484.33 L 1214.02,2468.87 L 1784.62,2283.47 L 1793.2,2291.2 L 1790.8,2302.49 L 1231.18,2484.33 Z " />
<path stroke="none" fill="#000000" transform="matrix(0.05 0 0 0.05 -52 -32)" d="M 1108.78,3059.83 L 1086.82,3066.97 L 1214.02,2468.87 L 1231.18,2484.33 L 1108.78,3059.83 Z " />
<path stroke="none" fill="#000000" transform="matrix(0.05 0 0 0.05 -52 -32)" d="M 1186.64,3039.8 L 1167.08,3035.64 L 1274.59,2530.14 L 1294.15,2534.31 L 1186.64,3039.8 Z " />
<path stroke="none" fill="#000000" transform="matrix(0.05 0 0 0.05 -52 -32)" d="M 1546.2,3453.71 L 1541.4,3476.29 L 1086.82,3066.97 L 1108.78,3059.83 L 1546.2,3453.71 Z " />
<path stroke="none" fill="#000000" transform="matrix(0.05 0 0 0.05 -52 -32)" d="M 2105.82,3271.87 L 2114.4,3279.6 L 2112,3290.89 L 1541.4,3476.29 L 1546.2,3453.71 L 2105.82,3271.87 Z " />
<path stroke="none" fill="#000000" transform="matrix(0.05 0 0 0.05 -52 -32)" d="M 2049.53,3214.46 L 2055.71,3233.48 L 1564.18,3393.19 L 1558,3374.17 L 2049.53,3214.46 Z " />
<path stroke="none" fill="#000000" transform="matrix(0.05 0 0 0.05 -52 -32)" d="M 2228.22,2696.17 L 2239.2,2692.6 L 2248,2699.29 L 2125.38,3276.03 L 2114.4,3279.6 L 2105.82,3271.87 L 2228.22,2696.17 Z " />
<path stroke="none" fill="#000000" transform="matrix(0.05 0 0 0.05 -52 -32)" d="M 4811.58,3194.87 L 4803,3202.6 L 4792.02,3199.03 L 4669.47,2622.82 L 4678.2,2615.8 L 4689.18,2619.37 L 4811.58,3194.87 Z " />
<path stroke="none" fill="#000000" transform="matrix(0.05 0 0 0.05 -52 -32)" d="M 4874.55,3144.89 L 4854.99,3149.05 L 4747.48,2643.55 L 4767.04,2639.39 L 4874.55,3144.89 Z " />
<path stroke="none" fill="#000000" transform="matrix(0.05 0 0 0.05 -52 -32)" d="M 5371.2,3376.71 L 5376,3399.29 L 4805.4,3213.89 L 4803,3202.6 L 4811.58,3194.87 L 5371.2,3376.71 Z " />
<path stroke="none" fill="#000000" transform="matrix(0.05 0 0 0.05 -52 -32)" d="M 5808.42,2983.03 L 5830.38,2990.17 L 5376,3399.29 L 5371.2,3376.71 L 5808.42,2983.03 Z " />
<path stroke="none" fill="#000000" transform="matrix(0.05 0 0 0.05 -52 -32)" d="M 5733.65,2953.48 L 5747.04,2968.35 L 5363.01,3314.13 L 5349.63,3299.26 L 5733.65,2953.48 Z " />
<path stroke="none" fill="#000000" transform="matrix(0.05 0 0 0.05 -52 -32)" d="M 5686.02,2407.33 L 5703.18,2391.87 L 5830.38,2990.17 L 5808.42,2983.03 L 5686.02,2407.33 Z " />
<path stroke="none" fill="#000000" transform="matrix(0.05 0 0 0.05 -52 -32)" d="M 5126.4,2225.5 L 5124,2214.2 L 5132.36,2206.4 L 5703.18,2391.87 L 5686.02,2407.33 L 5126.4,2225.5 Z " />
<path stroke="none" fill="#000000" transform="matrix(0.05 0 0 0.05 -52 -32)" d="M 5138.21,2305.03 L 5144.39,2286.01 L 5635.91,2445.72 L 5629.73,2464.74 L 5138.21,2305.03 Z " />
<path stroke="none" fill="#000000" transform="matrix(0.05 0 0 0.05 -52 -32)" d="M 4689.18,2619.37 L 4678.2,2615.8 L 4676.37,2603.99 L 5112.84,2210.79 L 5124,2214.2 L 5126.4,2225.5 L 4689.18,2619.37 Z " />
<path stroke="none" fill="#000000" transform="matrix(0.05 0 0 0.05 -52 -32)" d="M 2818.02,1318.56 L 2915.09,1248.01 L 2925.2,1265.38 L 2831.42,1333.55 L 2818.02,1318.56 Z " />
<path stroke="none" fill="#000000" transform="matrix(0.05 0 0 0.05 -52 -32)" d="M 2857.56,1362.77 L 2944.93,1299.27 L 2955.04,1316.64 L 2870.96,1377.75 L 2857.56,1362.77 Z " />
<path stroke="none" fill="#000000" transform="matrix(0.05 0 0 0.05 -52 -32)" d="M 2897.1,1406.97 L 2974.77,1350.52 L 2984.89,1367.9 L 2910.5,1421.96 L 2897.1,1406.97 Z " />
<path stroke="none" fill="#000000" transform="matrix(0.05 0 0 0.05 -52 -32)" d="M 2936.64,1451.18 L 3004.61,1401.78 L 3014.73,1419.15 L 2950.05,1466.16 L 2936.64,1451.18 Z " />
<path stroke="none" fill="#000000" transform="matrix(0.05 0 0 0.05 -52 -32)" d="M 2976.19,1495.39 L 3034.45,1453.04 L 3044.57,1470.41 L 2989.59,1510.37 L 2976.19,1495.39 Z " />
<path stroke="none" fill="#000000" transform="matrix(0.05 0 0 0.05 -52 -32)" d="M 3015.73,1539.59 L 3064.3,1504.29 L 3074.41,1521.67 L 3029.13,1554.58 L 3015.73,1539.59 Z " />
<path stroke="none" fill="#000000" transform="matrix(0.05 0 0 0.05 -52 -32)" d="M 3055.27,1583.8 L 3094.14,1555.55 L 3104.25,1572.92 L 3068.67,1598.78 L 3055.27,1583.8 Z " />
<path stroke="none" fill="#000000" transform="matrix(0.05 0 0 0.05 -52 -32)" d="M 3094.81,1628 L 3123.98,1606.81 L 3134.09,1624.18 L 3108.22,1642.99 L 3094.81,1628 Z " />
<path stroke="none" fill="#000000" transform="matrix(0.05 0 0 0.05 -52 -32)" d="M 3134.36,1672.21 L 3153.82,1658.06 L 3163.94,1675.43 L 3147.76,1687.19 L 3134.36,1672.21 Z " />
<path stroke="none" fill="#000000" transform="matrix(0.05 0 0 0.05 -52 -32)" d="M 4104.28,1183.52 L 4140.2,1239.6 L 4210.09,1250.09 L 3798.84,1727.23 L 3787.6,1725 L 3782.01,1715 L 4104.28,1183.52 Z " />
<path stroke="none" fill="#000000" transform="matrix(0.05 0 0 0.05 -52 -32)" d="M 3069.66,687.532 L 3087.94,695.667 L 2841.38,1249.4 L 2834.8,1239.6 L 2833.65,1217.6 L 3069.66,687.532 Z " />
<path stroke="none" fill="#000000" transform="matrix(0.05 0 0 0.05 -52 -32)" d="M 2238.51,1268.4 L 2237.88,1248.4 L 2817.79,1230.13 L 2834.8,1239.6 L 2841.38,1249.4 L 2238.51,1268.4 Z " />
<path stroke="none" fill="#000000" transform="matrix(0.05 0 0 0.05 -52 -32)" d="M 3887.06,695.667 L 3905.34,687.532 L 4141.35,1217.6 L 4140.2,1239.6 L 4104.28,1183.52 L 3887.06,695.667 Z " />
<path stroke="none" fill="#000000" transform="matrix(0.05 0 0 0.05 -52 -32)" d="M 4736.87,1233.8 L 4736.73,1253.8 L 4210.09,1250.09 L 4140.2,1239.6 L 4157.45,1229.72 L 4736.87,1233.8 Z " />
<text x="0" y="0" stroke="none" fill="#000000" transform="matrix(0.05 0 0 0.05 69.3401 159.223)" font-style="normal" font-weight="normal" font-size="400px" font-family="Helvetica" >
Alkyl</text>
<path stroke="none" fill="#000000" transform="matrix(0.05 0 0 0.05 -52 -32)" d="M 2466.48,3583.16 L 2453.1,3598.02 L 2112,3290.89 L 2114.4,3279.6 L 2125.38,3276.03 L 2466.48,3583.16 Z " />
<path stroke="none" fill="#000000" transform="matrix(0.05 0 0 0.05 -52 -32)" d="M 5009.9,1798.82 L 5029.3,1793.98 L 5132.36,2206.4 L 5124,2214.2 L 5112.84,2210.79 L 5009.9,1798.82 Z " />
<path stroke="none" fill="#000000" transform="matrix(0.05 0 0 0.05 -52 -32)" d="M 2526.14,725 L 2543.46,715 L 2833.65,1217.6 L 2834.8,1239.6 L 2817.79,1230.13 L 2526.14,725 Z " />
<path stroke="none" fill="#000000" transform="matrix(0.05 0 0 0.05 -52 -32)" d="M 4431.54,715 L 4448.86,725 L 4157.45,1229.72 L 4140.2,1239.6 L 4141.35,1217.6 L 4431.54,715 Z " />
<path stroke="none" fill="#000000" transform="matrix(0.05 0 0 0.05 -52 -32)" d="M 4367.98,3607.77 L 4346.02,3600.63 L 4792.02,3199.03 L 4803,3202.6 L 4805.4,3213.89 L 4367.98,3607.77 Z " />
<path stroke="none" fill="#000000" transform="matrix(0.05 0 0 0.05 -52 -32)" d="M 1907.02,1707.77 L 1928.98,1700.63 L 1804.18,2287.63 L 1793.2,2291.2 L 1784.62,2283.47 L 1907.02,1707.77 Z " />
<path stroke="none" fill="#000000" transform="matrix(0.05 0 0 0.05 -52 -32)" d="M 1465.51,1310.23 L 1478.89,1295.37 L 1928.98,1700.63 L 1907.02,1707.77 L 1465.51,1310.23 Z " />
<text x="0" y="0" stroke="none" fill="#000000" transform="matrix(0.05 0 0 0.05 129.542 146.103)" font-style="normal" font-weight="normal" font-size="400px" font-family="Helvetica" >
O</text>
<path stroke="none" fill="#000000" transform="matrix(0.05 0 0 0.05 -52 -32)" d="M 3946,3518.89 L 3952.18,3499.87 L 4368.74,3635.36 L 4362.56,3654.38 L 3946,3518.89 Z " />
<path stroke="none" fill="#000000" transform="matrix(0.05 0 0 0.05 -52 -32)" d="M 3968.27,3450.41 L 3974.46,3431.4 L 4390.98,3566.88 L 4384.79,3585.9 L 3968.27,3450.41 Z " />
<path stroke="none" fill="#000000" transform="matrix(0.05 0 0 0.05 -52 -32)" d="M 4491.58,4188.92 L 4472.02,4193.08 L 4346.02,3600.63 L 4367.98,3607.77 L 4491.58,4188.92 Z " />
<text x="0" y="0" stroke="none" fill="#000000" transform="matrix(0.05 0 0 0.05 64.6517 51.1128)" font-style="normal" font-weight="normal" font-size="400px" font-family="Helvetica" >
O</text>
<path stroke="none" fill="#000000" transform="matrix(0.05 0 0 0.05 -52 -32)" d="M 2297.1,1532.66 L 2303.28,1551.68 L 1890.2,1685.9 L 1884.02,1666.88 L 2297.1,1532.66 Z " />
<path stroke="none" fill="#000000" transform="matrix(0.05 0 0 0.05 -52 -32)" d="M 2319.35,1601.13 L 2325.53,1620.15 L 1912.45,1754.37 L 1906.27,1735.35 L 2319.35,1601.13 Z " />
<path stroke="none" fill="#000000" transform="matrix(0.05 0 0 0.05 -52 -32)" d="M 3377.55,2760.54 A 33.3333,33.3333 0 1 0 3444.21,2760.54A 33.3333,33.3333 0 1 0 3377.55,2760.54Z " />
<path stroke="none" fill="#000000" transform="matrix(0.05 0 0 0.05 -52 -32)" d="M 3527.55,2760.54 A 33.3333,33.3333 0 1 0 3594.21,2760.54A 33.3333,33.3333 0 1 0 3527.55,2760.54Z " />
</svg>
