<?xml version="1.0" standalone="no" ?>
<!DOCTYPE svg PUBLIC "-//W3C//DTD SVG 1.1//EN" "http://www.w3.org/Graphics/SVG/1.1/DTD/svg11.dtd">
<svg width="225px" height="152px" viewBox="0 0 225 152" style="background-color: #ffffff00" xmlns="http://www.w3.org/2000/svg" xmlns:xlink="http://www.w3.org/1999/xlink" version="1.1" >
<path stroke="none" fill="#000000" transform="matrix(0.05 0 0 0.05 -30 -21)" d="M 2741.2,2553.74 A 33.3333,33.3333 0 1 0 2807.87,2553.74A 33.3333,33.3333 0 1 0 2741.2,2553.74Z " />
<path stroke="none" fill="#000000" transform="matrix(0.05 0 0 0.05 -30 -21)" d="M 2891.2,2553.74 A 33.3333,33.3333 0 1 0 2957.87,2553.74A 33.3333,33.3333 0 1 0 2891.2,2553.74Z " />
<path stroke="none" fill="#000000" transform="matrix(0.05 0 0 0.05 -30 -21)" d="M 3145.81,1505.4 L 3151.4,1515.4 L 3144.13,1525.4 L 2558.67,1525.4 L 2544.13,1505.4 L 3145.81,1505.4 Z " />
<text x="0" y="0" stroke="none" fill="#000000" transform="matrix(0.05 0 0 0.05 81.0783 90.4728)" font-style="normal" font-weight="normal" font-size="400px" font-family="Helvetica" >
N</text>
<text x="0" y="0" stroke="none" fill="#000000" transform="matrix(0.05 0 0 0.05 129.618 90.4728)" font-style="normal" font-weight="normal" font-size="400px" font-family="Helvetica" >
N</text>
<path stroke="none" fill="#000000" transform="matrix(0.05 0 0 0.05 -30 -21)" d="M 2439.78,1891.28 L 2420.76,1885.1 L 2544.13,1505.4 L 2558.67,1525.4 L 2439.78,1891.28 Z " />
<path stroke="none" fill="#000000" transform="matrix(0.05 0 0 0.05 -30 -21)" d="M 2851.4,2426.44 L 2851.4,2451.16 L 2534.89,2221.11 L 2546.64,2204.93 L 2851.4,2426.44 Z " />
<path stroke="none" fill="#000000" transform="matrix(0.05 0 0 0.05 -30 -21)" d="M 2857.28,2341.69 L 2845.52,2357.87 L 2807.19,2330.01 L 2818.95,2313.83 L 2857.28,2341.69 Z " />
<path stroke="none" fill="#000000" transform="matrix(0.05 0 0 0.05 -30 -21)" d="M 2780.62,2285.98 L 2768.86,2302.15 L 2730.54,2274.3 L 2742.29,2258.12 L 2780.62,2285.98 Z " />
<path stroke="none" fill="#000000" transform="matrix(0.05 0 0 0.05 -30 -21)" d="M 2703.97,2230.26 L 2692.21,2246.44 L 2653.88,2218.58 L 2665.64,2202.4 L 2703.97,2230.26 Z " />
<path stroke="none" fill="#000000" transform="matrix(0.05 0 0 0.05 -30 -21)" d="M 2627.31,2174.54 L 2615.55,2190.72 L 2577.22,2162.86 L 2588.98,2146.69 L 2627.31,2174.54 Z " />
<path stroke="none" fill="#000000" transform="matrix(0.05 0 0 0.05 -30 -21)" d="M 3156.2,2204.9 L 3167.96,2221.08 L 2851.4,2451.16 L 2851.4,2426.44 L 3156.2,2204.9 Z " />
<path stroke="none" fill="#000000" transform="matrix(0.05 0 0 0.05 -30 -21)" d="M 3113.87,2146.65 L 3125.62,2162.83 L 3087.29,2190.69 L 3075.53,2174.52 L 3113.87,2146.65 Z " />
<path stroke="none" fill="#000000" transform="matrix(0.05 0 0 0.05 -30 -21)" d="M 3037.2,2202.38 L 3048.95,2218.56 L 3010.62,2246.42 L 2998.86,2230.24 L 3037.2,2202.38 Z " />
<path stroke="none" fill="#000000" transform="matrix(0.05 0 0 0.05 -30 -21)" d="M 2960.53,2258.1 L 2972.28,2274.28 L 2933.95,2302.14 L 2922.19,2285.97 L 2960.53,2258.1 Z " />
<path stroke="none" fill="#000000" transform="matrix(0.05 0 0 0.05 -30 -21)" d="M 2883.86,2313.83 L 2895.61,2330.01 L 2857.28,2357.87 L 2845.52,2341.69 L 2883.86,2313.83 Z " />
<path stroke="none" fill="#000000" transform="matrix(0.05 0 0 0.05 -30 -21)" d="M 3144.13,1525.4 L 3151.4,1515.4 L 3162.64,1517.63 L 3282.04,1885.12 L 3263.02,1891.3 L 3144.13,1525.4 Z " />
<path stroke="none" fill="#000000" transform="matrix(0.05 0 0 0.05 -30 -21)" d="M 1803.98,2279.13 L 1795.4,2271.4 L 1797.8,2260.11 L 2195.47,2130.89 L 2201.65,2149.92 L 1803.98,2279.13 Z " />
<path stroke="none" fill="#000000" transform="matrix(0.05 0 0 0.05 -30 -21)" d="M 3905,2260.11 L 3907.4,2271.4 L 3898.82,2279.13 L 3501.21,2149.94 L 3507.39,2130.91 L 3905,2260.11 Z " />
<path stroke="none" fill="#000000" transform="matrix(0.05 0 0 0.05 -30 -21)" d="M 1347,1881.29 L 1349.4,1870 L 1360.38,1866.43 L 1797.8,2260.11 L 1795.4,2271.4 L 1784.42,2274.97 L 1347,1881.29 Z " />
<path stroke="none" fill="#000000" transform="matrix(0.05 0 0 0.05 -30 -21)" d="M 1325.43,1958.76 L 1338.81,1943.89 L 1723.01,2289.67 L 1709.63,2304.53 L 1325.43,1958.76 Z " />
<path stroke="none" fill="#000000" transform="matrix(0.05 0 0 0.05 -30 -21)" d="M 787.382,2063.13 L 770.217,2047.67 L 1340.82,1862.27 L 1349.4,1870 L 1347,1881.29 L 787.382,2063.13 Z " />
<path stroke="none" fill="#000000" transform="matrix(0.05 0 0 0.05 -30 -21)" d="M 665.18,2638.63 L 643.219,2645.77 L 770.217,2047.67 L 787.382,2063.13 L 665.18,2638.63 Z " />
<path stroke="none" fill="#000000" transform="matrix(0.05 0 0 0.05 -30 -21)" d="M 743.026,2618.6 L 723.462,2614.44 L 830.799,2108.94 L 850.363,2113.09 L 743.026,2618.6 Z " />
<path stroke="none" fill="#000000" transform="matrix(0.05 0 0 0.05 -30 -21)" d="M 1102.4,3032.5 L 1097.6,3055.09 L 643.219,2645.77 L 665.18,2638.63 L 1102.4,3032.5 Z " />
<path stroke="none" fill="#000000" transform="matrix(0.05 0 0 0.05 -30 -21)" d="M 1662.02,2850.67 L 1670.6,2858.4 L 1668.2,2869.69 L 1097.6,3055.09 L 1102.4,3032.5 L 1662.02,2850.67 Z " />
<path stroke="none" fill="#000000" transform="matrix(0.05 0 0 0.05 -30 -21)" d="M 1605.73,2793.26 L 1611.91,2812.28 L 1120.39,2971.99 L 1114.21,2952.97 L 1605.73,2793.26 Z " />
<path stroke="none" fill="#000000" transform="matrix(0.05 0 0 0.05 -30 -21)" d="M 1784.42,2274.97 L 1795.4,2271.4 L 1803.98,2279.13 L 1681.58,2854.83 L 1670.6,2858.4 L 1662.02,2850.67 L 1784.42,2274.97 Z " />
<path stroke="none" fill="#000000" transform="matrix(0.05 0 0 0.05 -30 -21)" d="M 4040.78,2850.67 L 4032.2,2858.4 L 4021.22,2854.83 L 3898.82,2279.13 L 3907.4,2271.4 L 3918.38,2274.97 L 4040.78,2850.67 Z " />
<path stroke="none" fill="#000000" transform="matrix(0.05 0 0 0.05 -30 -21)" d="M 4103.78,2800.68 L 4084.21,2804.84 L 3976.71,2299.18 L 3996.27,2295.03 L 4103.78,2800.68 Z " />
<path stroke="none" fill="#000000" transform="matrix(0.05 0 0 0.05 -30 -21)" d="M 4600.4,3032.51 L 4605.2,3055.09 L 4034.6,2869.69 L 4032.2,2858.4 L 4040.78,2850.67 L 4600.4,3032.51 Z " />
<path stroke="none" fill="#000000" transform="matrix(0.05 0 0 0.05 -30 -21)" d="M 5037.82,2638.63 L 5059.78,2645.77 L 4605.2,3055.09 L 4600.4,3032.51 L 5037.82,2638.63 Z " />
<path stroke="none" fill="#000000" transform="matrix(0.05 0 0 0.05 -30 -21)" d="M 4963.01,2609.08 L 4976.4,2623.94 L 4592.2,2969.89 L 4578.82,2955.02 L 4963.01,2609.08 Z " />
<path stroke="none" fill="#000000" transform="matrix(0.05 0 0 0.05 -30 -21)" d="M 4915.42,2063.13 L 4932.58,2047.67 L 5059.78,2645.77 L 5037.82,2638.63 L 4915.42,2063.13 Z " />
<path stroke="none" fill="#000000" transform="matrix(0.05 0 0 0.05 -30 -21)" d="M 4355.8,1881.29 L 4353.4,1870 L 4361.98,1862.27 L 4932.58,2047.67 L 4915.42,2063.13 L 4355.8,1881.29 Z " />
<path stroke="none" fill="#000000" transform="matrix(0.05 0 0 0.05 -30 -21)" d="M 4367.58,1960.82 L 4373.76,1941.8 L 4865.32,2101.52 L 4859.13,2120.54 L 4367.58,1960.82 Z " />
<path stroke="none" fill="#000000" transform="matrix(0.05 0 0 0.05 -30 -21)" d="M 3918.38,2274.97 L 3907.4,2271.4 L 3905,2260.11 L 4342.42,1866.43 L 4353.4,1870 L 4355.8,1881.29 L 3918.38,2274.97 Z " />
<path stroke="none" fill="#000000" transform="matrix(0.05 0 0 0.05 -30 -21)" d="M 2182.04,1109.02 L 2279.13,1038.5 L 2289.24,1055.87 L 2195.44,1124.01 L 2182.04,1109.02 Z " />
<path stroke="none" fill="#000000" transform="matrix(0.05 0 0 0.05 -30 -21)" d="M 2221.55,1153.21 L 2308.94,1089.73 L 2319.05,1107.11 L 2234.95,1168.2 L 2221.55,1153.21 Z " />
<path stroke="none" fill="#000000" transform="matrix(0.05 0 0 0.05 -30 -21)" d="M 2261.06,1197.4 L 2338.75,1140.97 L 2348.86,1158.35 L 2274.46,1212.39 L 2261.06,1197.4 Z " />
<path stroke="none" fill="#000000" transform="matrix(0.05 0 0 0.05 -30 -21)" d="M 2300.57,1241.59 L 2368.55,1192.21 L 2378.66,1209.58 L 2313.97,1256.57 L 2300.57,1241.59 Z " />
<path stroke="none" fill="#000000" transform="matrix(0.05 0 0 0.05 -30 -21)" d="M 2340.08,1285.78 L 2398.36,1243.44 L 2408.47,1260.82 L 2353.48,1300.76 L 2340.08,1285.78 Z " />
<path stroke="none" fill="#000000" transform="matrix(0.05 0 0 0.05 -30 -21)" d="M 2379.59,1329.97 L 2428.17,1294.68 L 2438.28,1312.05 L 2392.99,1344.95 L 2379.59,1329.97 Z " />
<path stroke="none" fill="#000000" transform="matrix(0.05 0 0 0.05 -30 -21)" d="M 2419.1,1374.15 L 2457.98,1345.91 L 2468.09,1363.29 L 2432.5,1389.14 L 2419.1,1374.15 Z " />
<path stroke="none" fill="#000000" transform="matrix(0.05 0 0 0.05 -30 -21)" d="M 2458.61,1418.34 L 2487.79,1397.15 L 2497.9,1414.53 L 2472.01,1433.33 L 2458.61,1418.34 Z " />
<path stroke="none" fill="#000000" transform="matrix(0.05 0 0 0.05 -30 -21)" d="M 2498.12,1462.53 L 2517.59,1448.39 L 2527.7,1465.76 L 2511.52,1477.52 L 2498.12,1462.53 Z " />
<path stroke="none" fill="#000000" transform="matrix(0.05 0 0 0.05 -30 -21)" d="M 3468.09,973.906 L 3504,1030 L 3573.89,1040.49 L 3162.64,1517.63 L 3151.4,1515.4 L 3145.81,1505.4 L 3468.09,973.906 Z " />
<path stroke="none" fill="#000000" transform="matrix(0.05 0 0 0.05 -30 -21)" d="M 2433.66,477.734 L 2451.94,485.866 L 2205.38,1039.8 L 2198.8,1030 L 2197.65,1008 L 2433.66,477.734 Z " />
<path stroke="none" fill="#000000" transform="matrix(0.05 0 0 0.05 -30 -21)" d="M 1602.31,1058.79 L 1601.68,1038.8 L 2181.79,1020.53 L 2198.8,1030 L 2205.38,1039.8 L 1602.31,1058.79 Z " />
<path stroke="none" fill="#000000" transform="matrix(0.05 0 0 0.05 -30 -21)" d="M 3250.86,485.866 L 3269.14,477.734 L 3505.15,1008 L 3504,1030 L 3468.09,973.906 L 3250.86,485.866 Z " />
<path stroke="none" fill="#000000" transform="matrix(0.05 0 0 0.05 -30 -21)" d="M 4100.87,1024.2 L 4100.73,1044.2 L 3573.89,1040.49 L 3504,1030 L 3521.25,1020.12 L 4100.87,1024.2 Z " />
<text x="0" y="0" stroke="none" fill="#000000" transform="matrix(0.05 0 0 0.05 69.7216 149.163)" font-style="normal" font-weight="normal" font-size="400px" font-family="Helvetica" >
F</text>
<path stroke="none" fill="#000000" transform="matrix(0.05 0 0 0.05 -30 -21)" d="M 1972.56,3116.71 L 1959.18,3131.58 L 1668.2,2869.69 L 1670.6,2858.4 L 1681.58,2854.83 L 1972.56,3116.71 Z " />
<path stroke="none" fill="#000000" transform="matrix(0.05 0 0 0.05 -30 -21)" d="M 1890.14,515.4 L 1907.46,505.4 L 2197.65,1008 L 2198.8,1030 L 2181.79,1020.53 L 1890.14,515.4 Z " />
<path stroke="none" fill="#000000" transform="matrix(0.05 0 0 0.05 -30 -21)" d="M 3795.34,505.4 L 3812.66,515.4 L 3521.25,1020.12 L 3504,1030 L 3505.15,1008 L 3795.34,505.4 Z " />
<text x="0" y="0" stroke="none" fill="#000000" transform="matrix(0.05 0 0 0.05 175.322 50.3228)" font-style="normal" font-weight="normal" font-size="400px" font-family="Helvetica" >
F</text>
<path stroke="none" fill="#000000" transform="matrix(0.05 0 0 0.05 -30 -21)" d="M 4231.98,1346.99 L 4251.54,1342.83 L 4361.98,1862.27 L 4353.4,1870 L 4342.42,1866.43 L 4231.98,1346.99 Z " />
<path stroke="none" fill="#000000" transform="matrix(0.05 0 0 0.05 -30 -21)" d="M 1464.42,1280.92 L 1483.98,1285.08 L 1360.38,1866.43 L 1349.4,1870 L 1340.82,1862.27 L 1464.42,1280.92 Z " />
<path stroke="none" fill="#000000" transform="matrix(0.05 0 0 0.05 -30 -21)" d="M 3593.09,3267.23 L 3579.71,3252.37 L 4021.22,2854.83 L 4032.2,2858.4 L 4034.6,2869.69 L 3593.09,3267.23 Z " />
</svg>
