<?xml version="1.0" standalone="no" ?>
<!DOCTYPE svg PUBLIC "-//W3C//DTD SVG 1.1//EN" "http://www.w3.org/Graphics/SVG/1.1/DTD/svg11.dtd">
<svg width="257px" height="193px" viewBox="0 0 257 193" style="background-color: #ffffff00" xmlns="http://www.w3.org/2000/svg" xmlns:xlink="http://www.w3.org/1999/xlink" version="1.1" >
<path stroke="none" fill="#000000" transform="matrix(0.05 0 0 0.05 -46 -31)" d="M 3969.25,1795.6 L 3975.4,1805.6 L 3968.13,1815.6 L 3382.67,1815.6 L 3368.13,1795.6 L 3969.25,1795.6 Z " />
<text x="0" y="0" stroke="none" fill="#000000" transform="matrix(0.05 0 0 0.05 106.278 94.9828)" font-style="normal" font-weight="normal" font-size="400px" font-family="Helvetica" >
N</text>
<text x="0" y="0" stroke="none" fill="#000000" transform="matrix(0.05 0 0 0.05 154.818 94.9828)" font-style="normal" font-weight="normal" font-size="400px" font-family="Helvetica" >
N</text>
<path stroke="none" fill="#000000" transform="matrix(0.05 0 0 0.05 -46 -31)" d="M 3263.49,2182.38 L 3244.47,2176.2 L 3368.13,1795.6 L 3382.67,1815.6 L 3263.49,2182.38 Z " />
<path stroke="none" fill="#000000" transform="matrix(0.05 0 0 0.05 -46 -31)" d="M 3675.4,2716.44 L 3675.4,2741.16 L 3359.39,2511.6 L 3371.14,2495.42 L 3675.4,2716.44 Z " />
<path stroke="none" fill="#000000" transform="matrix(0.05 0 0 0.05 -46 -31)" d="M 3681.28,2631.73 L 3669.52,2647.91 L 3631.26,2620.11 L 3643.02,2603.93 L 3681.28,2631.73 Z " />
<path stroke="none" fill="#000000" transform="matrix(0.05 0 0 0.05 -46 -31)" d="M 3604.76,2576.14 L 3593,2592.32 L 3554.74,2564.53 L 3566.5,2548.35 L 3604.76,2576.14 Z " />
<path stroke="none" fill="#000000" transform="matrix(0.05 0 0 0.05 -46 -31)" d="M 3528.23,2520.55 L 3516.48,2536.73 L 3478.22,2508.94 L 3489.97,2492.76 L 3528.23,2520.55 Z " />
<path stroke="none" fill="#000000" transform="matrix(0.05 0 0 0.05 -46 -31)" d="M 3451.71,2464.97 L 3439.96,2481.15 L 3401.7,2453.36 L 3413.45,2437.17 L 3451.71,2464.97 Z " />
<path stroke="none" fill="#000000" transform="matrix(0.05 0 0 0.05 -46 -31)" d="M 3979.7,2495.39 L 3991.46,2511.57 L 3675.4,2741.16 L 3675.4,2716.44 L 3979.7,2495.39 Z " />
<path stroke="none" fill="#000000" transform="matrix(0.05 0 0 0.05 -46 -31)" d="M 3937.39,2437.14 L 3949.15,2453.32 L 3910.88,2481.12 L 3899.13,2464.94 L 3937.39,2437.14 Z " />
<path stroke="none" fill="#000000" transform="matrix(0.05 0 0 0.05 -46 -31)" d="M 3860.86,2492.74 L 3872.61,2508.92 L 3834.35,2536.72 L 3822.59,2520.53 L 3860.86,2492.74 Z " />
<path stroke="none" fill="#000000" transform="matrix(0.05 0 0 0.05 -46 -31)" d="M 3784.32,2548.33 L 3796.08,2564.51 L 3757.81,2592.31 L 3746.06,2576.13 L 3784.32,2548.33 Z " />
<path stroke="none" fill="#000000" transform="matrix(0.05 0 0 0.05 -46 -31)" d="M 3707.79,2603.93 L 3719.54,2620.11 L 3681.28,2647.91 L 3669.52,2631.73 L 3707.79,2603.93 Z " />
<path stroke="none" fill="#000000" transform="matrix(0.05 0 0 0.05 -46 -31)" d="M 3968.13,1815.6 L 3975.4,1805.6 L 3986.44,1807.21 L 4106.34,2176.22 L 4087.32,2182.4 L 3968.13,1815.6 Z " />
<path stroke="none" fill="#000000" transform="matrix(0.05 0 0 0.05 -46 -31)" d="M 2435.8,2779.89 L 2427,2773.2 L 2428.54,2761.13 L 3012.9,2457.07 L 3022.14,2474.81 L 2435.8,2779.89 Z " />
<path stroke="none" fill="#000000" transform="matrix(0.05 0 0 0.05 -46 -31)" d="M 4864.17,2684.39 L 4866,2696.2 L 4857.27,2703.22 L 4327.75,2462.94 L 4336.01,2444.72 L 4864.17,2684.39 Z " />
<path stroke="none" fill="#000000" transform="matrix(0.05 0 0 0.05 -46 -31)" d="M 1978.8,2382.9 L 1981.2,2371.6 L 1992.18,2368.03 L 2428.54,2761.13 L 2427,2773.2 L 2416.02,2776.77 L 1978.8,2382.9 Z " />
<path stroke="none" fill="#000000" transform="matrix(0.05 0 0 0.05 -46 -31)" d="M 1957.22,2460.36 L 1970.6,2445.5 L 2354.62,2791.45 L 2341.23,2806.31 L 1957.22,2460.36 Z " />
<path stroke="none" fill="#000000" transform="matrix(0.05 0 0 0.05 -46 -31)" d="M 1418.98,2564.92 L 1401.82,2549.48 L 1972.62,2363.88 L 1981.2,2371.6 L 1978.8,2382.9 L 1418.98,2564.92 Z " />
<path stroke="none" fill="#000000" transform="matrix(0.05 0 0 0.05 -46 -31)" d="M 1296.78,3140.43 L 1274.82,3147.57 L 1401.82,2549.48 L 1418.98,2564.92 L 1296.78,3140.43 Z " />
<path stroke="none" fill="#000000" transform="matrix(0.05 0 0 0.05 -46 -31)" d="M 1374.63,3120.38 L 1355.06,3116.23 L 1462.4,2610.73 L 1481.97,2614.88 L 1374.63,3120.38 Z " />
<path stroke="none" fill="#000000" transform="matrix(0.05 0 0 0.05 -46 -31)" d="M 1734,3534.11 L 1729.2,3556.69 L 1274.82,3147.57 L 1296.78,3140.43 L 1734,3534.11 Z " />
<path stroke="none" fill="#000000" transform="matrix(0.05 0 0 0.05 -46 -31)" d="M 2293.62,3352.27 L 2302.2,3360 L 2299.8,3371.29 L 1729.2,3556.69 L 1734,3534.11 L 2293.62,3352.27 Z " />
<path stroke="none" fill="#000000" transform="matrix(0.05 0 0 0.05 -46 -31)" d="M 2237.33,3294.86 L 2243.51,3313.88 L 1751.97,3473.59 L 1745.79,3454.57 L 2237.33,3294.86 Z " />
<path stroke="none" fill="#000000" transform="matrix(0.05 0 0 0.05 -46 -31)" d="M 2416.02,2776.77 L 2427,2773.2 L 2435.8,2779.89 L 2313.18,3356.43 L 2302.2,3360 L 2293.62,3352.27 L 2416.02,2776.77 Z " />
<path stroke="none" fill="#000000" transform="matrix(0.05 0 0 0.05 -46 -31)" d="M 4999.38,3275.47 L 4990.8,3283.2 L 4979.82,3279.63 L 4857.27,2703.22 L 4866,2696.2 L 4876.98,2699.77 L 4999.38,3275.47 Z " />
<path stroke="none" fill="#000000" transform="matrix(0.05 0 0 0.05 -46 -31)" d="M 5062.38,3225.48 L 5042.81,3229.64 L 4935.31,2723.98 L 4954.87,2719.83 L 5062.38,3225.48 Z " />
<path stroke="none" fill="#000000" transform="matrix(0.05 0 0 0.05 -46 -31)" d="M 5559,3457.3 L 5563.8,3479.9 L 4993.2,3294.49 L 4990.8,3283.2 L 4999.38,3275.47 L 5559,3457.3 Z " />
<path stroke="none" fill="#000000" transform="matrix(0.05 0 0 0.05 -46 -31)" d="M 5996.22,3063.43 L 6018.18,3070.57 L 5563.8,3479.9 L 5559,3457.3 L 5996.22,3063.43 Z " />
<path stroke="none" fill="#000000" transform="matrix(0.05 0 0 0.05 -46 -31)" d="M 5921.44,3033.88 L 5934.83,3048.74 L 5550.8,3394.7 L 5537.41,3379.84 L 5921.44,3033.88 Z " />
<path stroke="none" fill="#000000" transform="matrix(0.05 0 0 0.05 -46 -31)" d="M 5874.02,2487.93 L 5891.18,2472.47 L 6018.18,3070.57 L 5996.22,3063.43 L 5874.02,2487.93 Z " />
<path stroke="none" fill="#000000" transform="matrix(0.05 0 0 0.05 -46 -31)" d="M 5314.4,2306.09 L 5312,2294.8 L 5320.58,2287.07 L 5891.18,2472.47 L 5874.02,2487.93 L 5314.4,2306.09 Z " />
<path stroke="none" fill="#000000" transform="matrix(0.05 0 0 0.05 -46 -31)" d="M 5326.18,2385.62 L 5332.36,2366.6 L 5823.9,2526.31 L 5817.72,2545.33 L 5326.18,2385.62 Z " />
<path stroke="none" fill="#000000" transform="matrix(0.05 0 0 0.05 -46 -31)" d="M 4876.98,2699.77 L 4866,2696.2 L 4864.17,2684.39 L 5301.02,2291.23 L 5312,2294.8 L 5314.4,2306.09 L 4876.98,2699.77 Z " />
<path stroke="none" fill="#000000" transform="matrix(0.05 0 0 0.05 -46 -31)" d="M 2998.69,1289.95 L 3101.81,1228.57 L 3110.56,1246.64 L 3010.4,1306.25 L 2998.69,1289.95 Z " />
<path stroke="none" fill="#000000" transform="matrix(0.05 0 0 0.05 -46 -31)" d="M 3031.57,1335.75 L 3126.39,1279.31 L 3135.14,1297.38 L 3043.27,1352.05 L 3031.57,1335.75 Z " />
<path stroke="none" fill="#000000" transform="matrix(0.05 0 0 0.05 -46 -31)" d="M 3064.44,1381.55 L 3150.97,1330.05 L 3159.72,1348.12 L 3076.15,1397.85 L 3064.44,1381.55 Z " />
<path stroke="none" fill="#000000" transform="matrix(0.05 0 0 0.05 -46 -31)" d="M 3097.32,1427.35 L 3175.54,1380.79 L 3184.3,1398.86 L 3109.02,1443.65 L 3097.32,1427.35 Z " />
<path stroke="none" fill="#000000" transform="matrix(0.05 0 0 0.05 -46 -31)" d="M 3130.19,1473.15 L 3200.12,1431.53 L 3208.87,1449.59 L 3141.9,1489.45 L 3130.19,1473.15 Z " />
<path stroke="none" fill="#000000" transform="matrix(0.05 0 0 0.05 -46 -31)" d="M 3163.07,1518.95 L 3224.7,1482.27 L 3233.45,1500.33 L 3174.78,1535.25 L 3163.07,1518.95 Z " />
<path stroke="none" fill="#000000" transform="matrix(0.05 0 0 0.05 -46 -31)" d="M 3195.95,1564.75 L 3249.28,1533.01 L 3258.03,1551.07 L 3207.65,1581.05 L 3195.95,1564.75 Z " />
<path stroke="none" fill="#000000" transform="matrix(0.05 0 0 0.05 -46 -31)" d="M 3228.82,1610.55 L 3273.86,1583.74 L 3282.61,1601.81 L 3240.53,1626.85 L 3228.82,1610.55 Z " />
<path stroke="none" fill="#000000" transform="matrix(0.05 0 0 0.05 -46 -31)" d="M 3261.7,1656.35 L 3298.44,1634.48 L 3307.19,1652.55 L 3273.4,1672.65 L 3261.7,1656.35 Z " />
<path stroke="none" fill="#000000" transform="matrix(0.05 0 0 0.05 -46 -31)" d="M 3294.57,1702.15 L 3323.01,1685.22 L 3331.76,1703.29 L 3306.28,1718.45 L 3294.57,1702.15 Z " />
<path stroke="none" fill="#000000" transform="matrix(0.05 0 0 0.05 -46 -31)" d="M 3327.45,1747.95 L 3347.59,1735.96 L 3356.34,1754.03 L 3339.16,1764.25 L 3327.45,1747.95 Z " />
<path stroke="none" fill="#000000" transform="matrix(0.05 0 0 0.05 -46 -31)" d="M 4290.7,1153.62 L 4328,1212.8 L 4393.66,1223.26 L 3986.44,1807.21 L 3975.4,1805.6 L 3969.25,1795.6 L 4290.7,1153.62 Z " />
<path stroke="none" fill="#000000" transform="matrix(0.05 0 0 0.05 -46 -31)" d="M 3257.67,660.729 L 3275.93,668.87 L 3029.18,1222.6 L 3022.6,1212.8 L 3021.45,1190.81 L 3257.67,660.729 Z " />
<path stroke="none" fill="#000000" transform="matrix(0.05 0 0 0.05 -46 -31)" d="M 2426.31,1241.59 L 2425.68,1221.6 L 3005.59,1203.33 L 3022.6,1212.8 L 3029.18,1222.6 L 2426.31,1241.59 Z " />
<path stroke="none" fill="#000000" transform="matrix(0.05 0 0 0.05 -46 -31)" d="M 4074.86,668.867 L 4093.14,660.732 L 4329.15,1190.8 L 4328,1212.8 L 4290.7,1153.62 L 4074.86,668.867 Z " />
<path stroke="none" fill="#000000" transform="matrix(0.05 0 0 0.05 -46 -31)" d="M 4924.87,1207 L 4924.73,1227 L 4393.66,1223.26 L 4328,1212.8 L 4345.25,1202.92 L 4924.87,1207 Z " />
<path stroke="none" fill="#000000" transform="matrix(0.05 0 0 0.05 -46 -31)" d="M 2713.94,698.2 L 2731.26,688.2 L 3021.45,1190.81 L 3022.6,1212.8 L 3005.59,1203.33 L 2713.94,698.2 Z " />
<path stroke="none" fill="#000000" transform="matrix(0.05 0 0 0.05 -46 -31)" d="M 4619.34,688.2 L 4636.66,698.2 L 4345.25,1202.92 L 4328,1212.8 L 4329.15,1190.8 L 4619.34,688.2 Z " />
<path stroke="none" fill="#000000" transform="matrix(0.05 0 0 0.05 -46 -31)" d="M 4555.78,3688.17 L 4533.82,3681.03 L 4979.82,3279.63 L 4990.8,3283.2 L 4993.2,3294.49 L 4555.78,3688.17 Z " />
<path stroke="none" fill="#000000" transform="matrix(0.05 0 0 0.05 -46 -31)" d="M 2094.82,1788.37 L 2116.78,1781.23 L 1992.18,2368.03 L 1981.2,2371.6 L 1972.62,2363.88 L 2094.82,1788.37 Z " />
<text x="0" y="0" stroke="none" fill="#000000" transform="matrix(0.05 0 0 0.05 1.43848 45.3428)" font-style="normal" font-weight="normal" font-size="400px" font-family="Helvetica" >
MeO</text>
<path stroke="none" fill="#000000" transform="matrix(0.05 0 0 0.05 -46 -31)" d="M 1795.02,1518.43 L 1808.41,1503.57 L 2116.78,1781.23 L 2094.82,1788.37 L 1795.02,1518.43 Z " />
<text x="0" y="0" stroke="none" fill="#000000" transform="matrix(0.05 0 0 0.05 144.932 151.133)" font-style="normal" font-weight="normal" font-size="400px" font-family="Helvetica" >
O</text>
<path stroke="none" fill="#000000" transform="matrix(0.05 0 0 0.05 -46 -31)" d="M 4134.73,3599.73 L 4140.91,3580.7 L 4556.53,3715.75 L 4550.35,3734.77 L 4134.73,3599.73 Z " />
<path stroke="none" fill="#000000" transform="matrix(0.05 0 0 0.05 -46 -31)" d="M 4156.98,3531.25 L 4163.16,3512.23 L 4578.79,3647.28 L 4572.61,3666.3 L 4156.98,3531.25 Z " />
<text x="0" y="0" stroke="none" fill="#000000" transform="matrix(0.05 0 0 0.05 179.702 189.753)" font-style="normal" font-weight="normal" font-size="400px" font-family="Helvetica" >
OMe</text>
<path stroke="none" fill="#000000" transform="matrix(0.05 0 0 0.05 -46 -31)" d="M 4639.97,4084.15 L 4620.41,4088.31 L 4533.82,3681.03 L 4555.78,3688.17 L 4639.97,4084.15 Z " />
<text x="0" y="0" stroke="none" fill="#000000" transform="matrix(0.05 0 0 0.05 80.0517 56.1428)" font-style="normal" font-weight="normal" font-size="400px" font-family="Helvetica" >
O</text>
<path stroke="none" fill="#000000" transform="matrix(0.05 0 0 0.05 -46 -31)" d="M 2486,1612.93 L 2492.18,1631.95 L 2077.99,1766.49 L 2071.81,1747.46 L 2486,1612.93 Z " />
<path stroke="none" fill="#000000" transform="matrix(0.05 0 0 0.05 -46 -31)" d="M 2508.25,1681.43 L 2514.43,1700.45 L 2100.25,1834.98 L 2094.08,1815.95 L 2508.25,1681.43 Z " />
<path stroke="none" fill="#000000" transform="matrix(0.05 0 0 0.05 -46 -31)" d="M 3567.07,2850 A 33.3333,33.3333 0 1 0 3633.73,2850A 33.3333,33.3333 0 1 0 3567.07,2850Z " />
<path stroke="none" fill="#000000" transform="matrix(0.05 0 0 0.05 -46 -31)" d="M 3717.07,2850 A 33.3333,33.3333 0 1 0 3783.73,2850A 33.3333,33.3333 0 1 0 3717.07,2850Z " />
<text x="0" y="0" stroke="none" fill="#000000" transform="matrix(0.05 0 0 0.05 88.6248 164.248)" font-style="normal" font-weight="normal" font-size="400px" font-family="Helvetica" >
[C]</text>
<path stroke="none" fill="#000000" transform="matrix(0.05 0 0 0.05 -46 -31)" d="M 2660.18,3668.91 L 2646.8,3683.77 L 2299.8,3371.29 L 2302.2,3360 L 2313.18,3356.43 L 2660.18,3668.91 Z " />
<text x="0" y="0" stroke="none" fill="#000000" transform="matrix(0.05 0 0 0.05 190.588 61.5677)" font-style="normal" font-weight="normal" font-size="400px" font-family="Helvetica" >
[C]</text>
<path stroke="none" fill="#000000" transform="matrix(0.05 0 0 0.05 -46 -31)" d="M 5232.94,1970.78 L 5252.5,1966.62 L 5320.58,2287.07 L 5312,2294.8 L 5301.02,2291.23 L 5232.94,1970.78 Z " />
</svg>
