<?xml version="1.0" standalone="no" ?>
<!DOCTYPE svg PUBLIC "-//W3C//DTD SVG 1.1//EN" "http://www.w3.org/Graphics/SVG/1.1/DTD/svg11.dtd">
<svg width="102px" height="78px" viewBox="0 0 102 78" style="background-color: #ffffff00" xmlns="http://www.w3.org/2000/svg" xmlns:xlink="http://www.w3.org/1999/xlink" version="1.1" >
<path stroke="none" fill="#000000" transform="matrix(0.05 0 0 0.05 -159 -15)" d="M 4375.58,750.6 L 4379,756.6 L 4374.64,762.6 L 4152.1,762.6 L 4143.1,750.6 L 4375.58,750.6 Z " />
<text x="0" y="0" stroke="none" fill="#000000" transform="matrix(0.05 0 0 0.05 42.2813 36.7052)" font-style="normal" font-weight="normal" font-size="160px" font-family="Arial" >
N</text>
<text x="0" y="0" stroke="none" fill="#000000" transform="matrix(0.05 0 0 0.05 60.6313 36.7052)" font-style="normal" font-weight="normal" font-size="160px" font-family="Arial" >
N</text>
<path stroke="none" fill="#000000" transform="matrix(0.05 0 0 0.05 -159 -15)" d="M 4114.34,892.107 L 4102.82,888.749 L 4143.1,750.6 L 4152.1,762.6 L 4114.34,892.107 Z " />
<path stroke="none" fill="#000000" transform="matrix(0.05 0 0 0.05 -159 -15)" d="M 4263.27,1105.14 L 4263.13,1120.06 L 4152.59,1036.57 L 4159.82,1027 L 4263.27,1105.14 Z " />
<path stroke="none" fill="#000000" transform="matrix(0.05 0 0 0.05 -159 -15)" d="M 4267.3,1057.35 L 4260.07,1066.93 L 4232.39,1046.02 L 4239.62,1036.45 L 4267.3,1057.35 Z " />
<path stroke="none" fill="#000000" transform="matrix(0.05 0 0 0.05 -159 -15)" d="M 4211.94,1015.54 L 4204.71,1025.12 L 4177.03,1004.21 L 4184.26,994.635 L 4211.94,1015.54 Z " />
<path stroke="none" fill="#000000" transform="matrix(0.05 0 0 0.05 -159 -15)" d="M 4371.9,1026.33 L 4378.95,1036.04 L 4263.13,1120.06 L 4263.27,1105.14 L 4371.9,1026.33 Z " />
<path stroke="none" fill="#000000" transform="matrix(0.05 0 0 0.05 -159 -15)" d="M 4347.46,992.635 L 4354.51,1002.35 L 4325.41,1023.45 L 4318.37,1013.74 L 4347.46,992.635 Z " />
<path stroke="none" fill="#000000" transform="matrix(0.05 0 0 0.05 -159 -15)" d="M 4289.27,1034.85 L 4296.32,1044.56 L 4267.22,1065.67 L 4260.18,1055.95 L 4289.27,1034.85 Z " />
<path stroke="none" fill="#000000" transform="matrix(0.05 0 0 0.05 -159 -15)" d="M 4374.64,762.6 L 4379,756.6 L 4385.76,758.006 L 4428.01,888.305 L 4416.6,892.006 L 4374.64,762.6 Z " />
<path stroke="none" fill="#000000" transform="matrix(0.05 0 0 0.05 -159 -15)" d="M 3801.33,1156.97 L 3796,1153.2 L 3796.68,1145.74 L 4002.72,1019.28 L 4009,1029.51 L 3801.33,1156.97 Z " />
<path stroke="none" fill="#000000" transform="matrix(0.05 0 0 0.05 -159 -15)" d="M 4714.97,1138.09 L 4715.6,1145.6 L 4710.25,1149.31 L 4522.71,1029.94 L 4529.15,1019.81 L 4714.97,1138.09 Z " />
<path stroke="none" fill="#000000" transform="matrix(0.05 0 0 0.05 -159 -15)" d="M 3622.76,1005.18 L 3624.2,998.4 L 3630.79,996.261 L 3796.68,1145.74 L 3796,1153.2 L 3789.41,1155.34 L 3622.76,1005.18 Z " />
<path stroke="none" fill="#000000" transform="matrix(0.05 0 0 0.05 -159 -15)" d="M 3610.17,1049.87 L 3618.21,1040.95 L 3754.31,1163.59 L 3746.28,1172.51 L 3610.17,1049.87 Z " />
<path stroke="none" fill="#000000" transform="matrix(0.05 0 0 0.05 -159 -15)" d="M 3409.35,1074.44 L 3399.05,1065.16 L 3619.05,993.762 L 3624.2,998.4 L 3622.76,1005.18 L 3409.35,1074.44 Z " />
<path stroke="none" fill="#000000" transform="matrix(0.05 0 0 0.05 -159 -15)" d="M 3362.59,1293.86 L 3349.41,1298.14 L 3399.05,1065.16 L 3409.35,1074.44 L 3362.59,1293.86 Z " />
<path stroke="none" fill="#000000" transform="matrix(0.05 0 0 0.05 -159 -15)" d="M 3407.59,1282.41 L 3395.86,1279.91 L 3434.04,1100.73 L 3445.78,1103.23 L 3407.59,1282.41 Z " />
<path stroke="none" fill="#000000" transform="matrix(0.05 0 0 0.05 -159 -15)" d="M 3529.24,1444.02 L 3526.36,1457.58 L 3349.41,1298.14 L 3362.59,1293.86 L 3529.24,1444.02 Z " />
<path stroke="none" fill="#000000" transform="matrix(0.05 0 0 0.05 -159 -15)" d="M 3742.85,1374.76 L 3748,1379.4 L 3746.55,1386.18 L 3526.36,1457.58 L 3529.24,1444.02 L 3742.85,1374.76 Z " />
<path stroke="none" fill="#000000" transform="matrix(0.05 0 0 0.05 -159 -15)" d="M 3710.39,1341.48 L 3714.09,1352.9 L 3539.68,1409.45 L 3535.97,1398.04 L 3710.39,1341.48 Z " />
<path stroke="none" fill="#000000" transform="matrix(0.05 0 0 0.05 -159 -15)" d="M 3789.41,1155.34 L 3796,1153.2 L 3801.33,1156.97 L 3754.59,1377.26 L 3748,1379.4 L 3742.85,1374.76 L 3789.41,1155.34 Z " />
<path stroke="none" fill="#000000" transform="matrix(0.05 0 0 0.05 -159 -15)" d="M 4768.75,1367.16 L 4763.6,1371.8 L 4757.01,1369.66 L 4710.25,1149.31 L 4715.6,1145.6 L 4722.19,1147.74 L 4768.75,1367.16 Z " />
<path stroke="none" fill="#000000" transform="matrix(0.05 0 0 0.05 -159 -15)" d="M 4805.19,1338.39 L 4793.45,1340.88 L 4755.43,1161.69 L 4767.17,1159.2 L 4805.19,1338.39 Z " />
<path stroke="none" fill="#000000" transform="matrix(0.05 0 0 0.05 -159 -15)" d="M 4982.16,1436.42 L 4985.04,1449.98 L 4765.04,1378.58 L 4763.6,1371.8 L 4768.75,1367.16 L 4982.16,1436.42 Z " />
<path stroke="none" fill="#000000" transform="matrix(0.05 0 0 0.05 -159 -15)" d="M 5149.01,1286.26 L 5162.19,1290.54 L 4985.04,1449.98 L 4982.16,1436.42 L 5149.01,1286.26 Z " />
<path stroke="none" fill="#000000" transform="matrix(0.05 0 0 0.05 -159 -15)" d="M 5105.83,1269.08 L 5113.86,1278 L 4977.61,1400.62 L 4969.59,1391.7 L 5105.83,1269.08 Z " />
<path stroke="none" fill="#000000" transform="matrix(0.05 0 0 0.05 -159 -15)" d="M 5102.25,1066.84 L 5112.55,1057.56 L 5162.19,1290.54 L 5149.01,1286.26 L 5102.25,1066.84 Z " />
<path stroke="none" fill="#000000" transform="matrix(0.05 0 0 0.05 -159 -15)" d="M 4888.84,997.576 L 4887.4,990.8 L 4892.42,986.12 L 5112.55,1057.56 L 5102.25,1066.84 L 4888.84,997.576 Z " />
<path stroke="none" fill="#000000" transform="matrix(0.05 0 0 0.05 -159 -15)" d="M 4895.56,1043.53 L 4899.26,1032.11 L 5073.54,1088.67 L 5069.84,1100.09 L 4895.56,1043.53 Z " />
<path stroke="none" fill="#000000" transform="matrix(0.05 0 0 0.05 -159 -15)" d="M 4722.19,1147.74 L 4715.6,1145.6 L 4714.97,1138.09 L 4880.71,988.754 L 4887.4,990.8 L 4888.84,997.576 L 4722.19,1147.74 Z " />
<path stroke="none" fill="#000000" transform="matrix(0.05 0 0 0.05 -159 -15)" d="M 4003.23,609.352 L 4052,573.885 L 4057.73,584.554 L 4011.61,618.092 L 4003.23,609.352 Z " />
<path stroke="none" fill="#000000" transform="matrix(0.05 0 0 0.05 -159 -15)" d="M 4022.42,629.355 L 4065.11,598.302 L 4070.85,608.971 L 4030.8,638.095 L 4022.42,629.355 Z " />
<path stroke="none" fill="#000000" transform="matrix(0.05 0 0 0.05 -159 -15)" d="M 4041.6,649.358 L 4078.23,622.718 L 4083.97,633.387 L 4049.99,658.098 L 4041.6,649.358 Z " />
<path stroke="none" fill="#000000" transform="matrix(0.05 0 0 0.05 -159 -15)" d="M 4060.79,669.361 L 4091.35,647.134 L 4097.08,657.803 L 4069.17,678.101 L 4060.79,669.361 Z " />
<path stroke="none" fill="#000000" transform="matrix(0.05 0 0 0.05 -159 -15)" d="M 4079.98,689.364 L 4104.47,671.55 L 4110.2,682.219 L 4088.36,698.104 L 4079.98,689.364 Z " />
<path stroke="none" fill="#000000" transform="matrix(0.05 0 0 0.05 -159 -15)" d="M 4099.16,709.367 L 4117.59,695.967 L 4123.32,706.636 L 4107.55,718.107 L 4099.16,709.367 Z " />
<path stroke="none" fill="#000000" transform="matrix(0.05 0 0 0.05 -159 -15)" d="M 4118.35,729.369 L 4130.71,720.383 L 4136.44,731.052 L 4126.73,738.11 L 4118.35,729.369 Z " />
<path stroke="none" fill="#000000" transform="matrix(0.05 0 0 0.05 -159 -15)" d="M 4496.22,542.191 L 4515,569.6 L 4549.75,575.811 L 4385.76,758.006 L 4379,756.6 L 4375.58,750.6 L 4496.22,542.191 Z " />
<path stroke="none" fill="#000000" transform="matrix(0.05 0 0 0.05 -159 -15)" d="M 4100.12,355.762 L 4111.08,360.638 L 4015.55,575.479 L 4011.6,569.6 L 4010.53,557.245 L 4100.12,355.762 Z " />
<path stroke="none" fill="#000000" transform="matrix(0.05 0 0 0.05 -159 -15)" d="M 3781.79,582.797 L 3781.41,570.803 L 4000.57,563.942 L 4011.6,569.6 L 4015.55,575.479 L 3781.79,582.797 Z " />
<path stroke="none" fill="#000000" transform="matrix(0.05 0 0 0.05 -159 -15)" d="M 4415.32,360.642 L 4426.28,355.758 L 4516,557.106 L 4515,569.6 L 4496.22,542.191 L 4415.32,360.642 Z " />
<path stroke="none" fill="#000000" transform="matrix(0.05 0 0 0.05 -159 -15)" d="M 4745.04,565 L 4744.96,577 L 4549.75,575.811 L 4515,569.6 L 4526.05,563.667 L 4745.04,565 Z " />
<text x="0" y="0" stroke="none" fill="#000000" transform="matrix(0.05 0 0 0.05 35.8787 64.5852)" font-style="normal" font-weight="normal" font-size="160px" font-family="Arial" >
[C]</text>
<path stroke="none" fill="#000000" transform="matrix(0.05 0 0 0.05 -159 -15)" d="M 3876.97,1487.68 L 3868.93,1496.59 L 3746.55,1386.18 L 3748,1379.4 L 3754.59,1377.26 L 3876.97,1487.68 Z " />
<path stroke="none" fill="#000000" transform="matrix(0.05 0 0 0.05 -159 -15)" d="M 4841.38,830.85 L 4853.02,827.95 L 4892.42,986.12 L 4887.4,990.8 L 4880.71,988.754 L 4841.38,830.85 Z " />
<path stroke="none" fill="#000000" transform="matrix(0.05 0 0 0.05 -159 -15)" d="M 4219.87,1166.6 A 13.3333,13.3333 0 1 0 4246.53,1166.6A 13.3333,13.3333 0 1 0 4219.87,1166.6Z " />
<path stroke="none" fill="#000000" transform="matrix(0.05 0 0 0.05 -159 -15)" d="M 4279.87,1166.6 A 13.3333,13.3333 0 1 0 4306.53,1166.6A 13.3333,13.3333 0 1 0 4279.87,1166.6Z " />
<path stroke="none" fill="#000000" transform="matrix(0.05 0 0 0.05 -159 -15)" d="M 4636.58,372.716 L 4646.62,379.283 L 4526.05,563.667 L 4515,569.6 L 4516,557.106 L 4636.58,372.716 Z " />
<path stroke="none" fill="#000000" transform="matrix(0.05 0 0 0.05 -159 -15)" d="M 3877.62,380.946 L 3887.58,374.254 L 4010.53,557.245 L 4011.6,569.6 L 4000.57,563.942 L 3877.62,380.946 Z " />
<path stroke="none" fill="#000000" transform="matrix(0.05 0 0 0.05 -159 -15)" d="M 3665.85,773.938 L 3678.95,770.062 L 3630.79,996.261 L 3624.2,998.4 L 3619.05,993.762 L 3665.85,773.938 Z " />
<text x="0" y="0" stroke="none" fill="#000000" transform="matrix(0.05 0 0 0.05 2.21538 18.2852)" font-style="normal" font-weight="normal" font-size="160px" font-family="Arial" >
MeO</text>
<path stroke="none" fill="#000000" transform="matrix(0.05 0 0 0.05 -159 -15)" d="M 3561.88,669.967 L 3570.37,661.481 L 3678.95,770.062 L 3665.85,773.938 L 3561.88,669.967 Z " />
<text x="0" y="0" stroke="none" fill="#000000" transform="matrix(0.05 0 0 0.05 32.5987 23.1852)" font-style="normal" font-weight="normal" font-size="160px" font-family="Arial" >
O</text>
<path stroke="none" fill="#000000" transform="matrix(0.05 0 0 0.05 -159 -15)" d="M 3811.16,702.995 L 3814.56,714.502 L 3657.35,761 L 3653.94,749.493 L 3811.16,702.995 Z " />
<path stroke="none" fill="#000000" transform="matrix(0.05 0 0 0.05 -159 -15)" d="M 3822.97,742.919 L 3826.37,754.426 L 3669.17,800.92 L 3665.77,789.413 L 3822.97,742.919 Z " />
<path stroke="none" fill="#000000" transform="matrix(0.05 0 0 0.05 -159 -15)" d="M 4598.19,1528.94 L 4585.01,1524.66 L 4757.01,1369.66 L 4763.6,1371.8 L 4765.04,1378.58 L 4598.19,1528.94 Z " />
<text x="0" y="0" stroke="none" fill="#000000" transform="matrix(0.05 0 0 0.05 69.8787 75.5152)" font-style="normal" font-weight="normal" font-size="160px" font-family="Arial" >
OMe</text>
<path stroke="none" fill="#000000" transform="matrix(0.05 0 0 0.05 -159 -15)" d="M 4628.73,1672.27 L 4616.99,1674.77 L 4585.01,1524.66 L 4598.19,1528.94 L 4628.73,1672.27 Z " />
<text x="0" y="0" stroke="none" fill="#000000" transform="matrix(0.05 0 0 0.05 56.4687 60.6252)" font-style="normal" font-weight="normal" font-size="160px" font-family="Arial" >
O</text>
<path stroke="none" fill="#000000" transform="matrix(0.05 0 0 0.05 -159 -15)" d="M 4437.41,1504.83 L 4441.13,1493.42 L 4598.47,1544.62 L 4594.76,1556.03 L 4437.41,1504.83 Z " />
<path stroke="none" fill="#000000" transform="matrix(0.05 0 0 0.05 -159 -15)" d="M 4450.3,1465.23 L 4454.02,1453.82 L 4611.31,1505.01 L 4607.59,1516.42 L 4450.3,1465.23 Z " />
<text x="0" y="0" stroke="none" fill="#000000" transform="matrix(0.05 0 0 0.05 80.4587 26.2252)" font-style="normal" font-weight="normal" font-size="160px" font-family="Arial" >
[C]</text>
</svg>
