<?xml version="1.0" standalone="no" ?>
<!DOCTYPE svg PUBLIC "-//W3C//DTD SVG 1.1//EN" "http://www.w3.org/Graphics/SVG/1.1/DTD/svg11.dtd">
<svg width="226px" height="145px" viewBox="0 0 226 145" style="background-color: #ffffff00" xmlns="http://www.w3.org/2000/svg" xmlns:xlink="http://www.w3.org/1999/xlink" version="1.1" >
<path stroke="none" fill="#000000" transform="matrix(0.05 0 0 0.05 -50 -32)" d="M 3555.61,1719.2 L 3561.2,1729.2 L 3553.93,1739.2 L 2968.47,1739.2 L 2953.93,1719.2 L 3555.61,1719.2 Z " />
<text x="0" y="0" stroke="none" fill="#000000" transform="matrix(0.05 0 0 0.05 81.5683 90.1628)" font-style="normal" font-weight="normal" font-size="400px" font-family="Helvetica" >
N</text>
<text x="0" y="0" stroke="none" fill="#000000" transform="matrix(0.05 0 0 0.05 130.108 90.1628)" font-style="normal" font-weight="normal" font-size="400px" font-family="Helvetica" >
N</text>
<path stroke="none" fill="#000000" transform="matrix(0.05 0 0 0.05 -50 -32)" d="M 2849.58,2105.08 L 2830.56,2098.9 L 2953.93,1719.2 L 2968.47,1739.2 L 2849.58,2105.08 Z " />
<path stroke="none" fill="#000000" transform="matrix(0.05 0 0 0.05 -50 -32)" d="M 3261.2,2640.24 L 3261.2,2664.96 L 2944.69,2434.91 L 2956.44,2418.73 L 3261.2,2640.24 Z " />
<path stroke="none" fill="#000000" transform="matrix(0.05 0 0 0.05 -50 -32)" d="M 3267.08,2555.49 L 3255.32,2571.67 L 3216.99,2543.81 L 3228.75,2527.63 L 3267.08,2555.49 Z " />
<path stroke="none" fill="#000000" transform="matrix(0.05 0 0 0.05 -50 -32)" d="M 3190.42,2499.78 L 3178.66,2515.95 L 3140.34,2488.1 L 3152.09,2471.92 L 3190.42,2499.78 Z " />
<path stroke="none" fill="#000000" transform="matrix(0.05 0 0 0.05 -50 -32)" d="M 3113.77,2444.06 L 3102.01,2460.24 L 3063.68,2432.38 L 3075.44,2416.2 L 3113.77,2444.06 Z " />
<path stroke="none" fill="#000000" transform="matrix(0.05 0 0 0.05 -50 -32)" d="M 3037.11,2388.34 L 3025.35,2404.52 L 2987.02,2376.66 L 2998.78,2360.49 L 3037.11,2388.34 Z " />
<path stroke="none" fill="#000000" transform="matrix(0.05 0 0 0.05 -50 -32)" d="M 3566,2418.7 L 3577.76,2434.88 L 3261.2,2664.96 L 3261.2,2640.24 L 3566,2418.7 Z " />
<path stroke="none" fill="#000000" transform="matrix(0.05 0 0 0.05 -50 -32)" d="M 3523.67,2360.45 L 3535.42,2376.63 L 3497.09,2404.49 L 3485.33,2388.32 L 3523.67,2360.45 Z " />
<path stroke="none" fill="#000000" transform="matrix(0.05 0 0 0.05 -50 -32)" d="M 3447,2416.18 L 3458.75,2432.36 L 3420.42,2460.22 L 3408.66,2444.04 L 3447,2416.18 Z " />
<path stroke="none" fill="#000000" transform="matrix(0.05 0 0 0.05 -50 -32)" d="M 3370.33,2471.9 L 3382.08,2488.08 L 3343.75,2515.94 L 3331.99,2499.77 L 3370.33,2471.9 Z " />
<path stroke="none" fill="#000000" transform="matrix(0.05 0 0 0.05 -50 -32)" d="M 3293.66,2527.63 L 3305.41,2543.81 L 3267.08,2571.67 L 3255.32,2555.49 L 3293.66,2527.63 Z " />
<path stroke="none" fill="#000000" transform="matrix(0.05 0 0 0.05 -50 -32)" d="M 3553.93,1739.2 L 3561.2,1729.2 L 3572.44,1731.43 L 3691.84,2098.92 L 3672.82,2105.1 L 3553.93,1739.2 Z " />
<path stroke="none" fill="#000000" transform="matrix(0.05 0 0 0.05 -50 -32)" d="M 2213.78,2492.93 L 2205.2,2485.2 L 2207.6,2473.91 L 2605.27,2344.69 L 2611.45,2363.72 L 2213.78,2492.93 Z " />
<path stroke="none" fill="#000000" transform="matrix(0.05 0 0 0.05 -50 -32)" d="M 4314.8,2473.91 L 4317.2,2485.2 L 4308.62,2492.93 L 3911.01,2363.74 L 3917.19,2344.71 L 4314.8,2473.91 Z " />
<path stroke="none" fill="#000000" transform="matrix(0.05 0 0 0.05 -50 -32)" d="M 1757,2095.09 L 1761.8,2072.51 L 2207.6,2473.91 L 2205.2,2485.2 L 2194.22,2488.77 L 1757,2095.09 Z " />
<path stroke="none" fill="#000000" transform="matrix(0.05 0 0 0.05 -50 -32)" d="M 1735.42,2172.53 L 1748.81,2157.67 L 2132.84,2503.45 L 2119.45,2518.32 L 1735.42,2172.53 Z " />
<path stroke="none" fill="#000000" transform="matrix(0.05 0 0 0.05 -50 -32)" d="M 1197.18,2276.93 L 1180.02,2261.47 L 1761.8,2072.51 L 1757,2095.09 L 1197.18,2276.93 Z " />
<path stroke="none" fill="#000000" transform="matrix(0.05 0 0 0.05 -50 -32)" d="M 1074.98,2852.63 L 1053.02,2859.77 L 1180.02,2261.47 L 1197.18,2276.93 L 1074.98,2852.63 Z " />
<path stroke="none" fill="#000000" transform="matrix(0.05 0 0 0.05 -50 -32)" d="M 1152.85,2832.57 L 1133.29,2828.42 L 1240.62,2322.76 L 1260.19,2326.91 L 1152.85,2832.57 Z " />
<path stroke="none" fill="#000000" transform="matrix(0.05 0 0 0.05 -50 -32)" d="M 1512.2,3246.31 L 1507.4,3268.89 L 1053.02,2859.77 L 1074.98,2852.63 L 1512.2,3246.31 Z " />
<path stroke="none" fill="#000000" transform="matrix(0.05 0 0 0.05 -50 -32)" d="M 2071.82,3064.47 L 2080.4,3072.2 L 2078,3083.49 L 1507.4,3268.89 L 1512.2,3246.31 L 2071.82,3064.47 Z " />
<path stroke="none" fill="#000000" transform="matrix(0.05 0 0 0.05 -50 -32)" d="M 2015.53,3007.06 L 2021.71,3026.08 L 1530.17,3185.79 L 1523.99,3166.77 L 2015.53,3007.06 Z " />
<path stroke="none" fill="#000000" transform="matrix(0.05 0 0 0.05 -50 -32)" d="M 2194.22,2488.77 L 2205.2,2485.2 L 2213.78,2492.93 L 2091.38,3068.63 L 2080.4,3072.2 L 2071.82,3064.47 L 2194.22,2488.77 Z " />
<path stroke="none" fill="#000000" transform="matrix(0.05 0 0 0.05 -50 -32)" d="M 4450.58,3064.47 L 4433.42,3079.93 L 4308.62,2492.93 L 4317.2,2485.2 L 4328.18,2488.77 L 4450.58,3064.47 Z " />
<path stroke="none" fill="#000000" transform="matrix(0.05 0 0 0.05 -50 -32)" d="M 4513.58,3014.48 L 4494.01,3018.64 L 4386.51,2512.98 L 4406.07,2508.83 L 4513.58,3014.48 Z " />
<path stroke="none" fill="#000000" transform="matrix(0.05 0 0 0.05 -50 -32)" d="M 5010.2,3246.31 L 5015,3268.89 L 4433.42,3079.93 L 4450.58,3064.47 L 5010.2,3246.31 Z " />
<path stroke="none" fill="#000000" transform="matrix(0.05 0 0 0.05 -50 -32)" d="M 5447.62,2852.63 L 5469.58,2859.77 L 5015,3268.89 L 5010.2,3246.31 L 5447.62,2852.63 Z " />
<path stroke="none" fill="#000000" transform="matrix(0.05 0 0 0.05 -50 -32)" d="M 5372.83,2823.07 L 5386.21,2837.93 L 5002.01,3183.71 L 4988.63,3168.84 L 5372.83,2823.07 Z " />
<path stroke="none" fill="#000000" transform="matrix(0.05 0 0 0.05 -50 -32)" d="M 5325.22,2276.93 L 5342.38,2261.47 L 5469.58,2859.77 L 5447.62,2852.63 L 5325.22,2276.93 Z " />
<path stroke="none" fill="#000000" transform="matrix(0.05 0 0 0.05 -50 -32)" d="M 4765.6,2095.09 L 4763.2,2083.8 L 4771.78,2076.07 L 5342.38,2261.47 L 5325.22,2276.93 L 4765.6,2095.09 Z " />
<path stroke="none" fill="#000000" transform="matrix(0.05 0 0 0.05 -50 -32)" d="M 4777.38,2174.62 L 4783.56,2155.6 L 5275.11,2315.32 L 5268.93,2334.34 L 4777.38,2174.62 Z " />
<path stroke="none" fill="#000000" transform="matrix(0.05 0 0 0.05 -50 -32)" d="M 4328.18,2488.77 L 4317.2,2485.2 L 4314.8,2473.91 L 4752.22,2080.23 L 4763.2,2083.8 L 4765.6,2095.09 L 4328.18,2488.77 Z " />
<path stroke="none" fill="#000000" transform="matrix(0.05 0 0 0.05 -50 -32)" d="M 2591.84,1322.82 L 2688.93,1252.3 L 2699.04,1269.67 L 2605.24,1337.81 L 2591.84,1322.82 Z " />
<path stroke="none" fill="#000000" transform="matrix(0.05 0 0 0.05 -50 -32)" d="M 2631.35,1367.01 L 2718.74,1303.53 L 2728.85,1320.91 L 2644.75,1382 L 2631.35,1367.01 Z " />
<path stroke="none" fill="#000000" transform="matrix(0.05 0 0 0.05 -50 -32)" d="M 2670.86,1411.2 L 2748.55,1354.77 L 2758.66,1372.15 L 2684.26,1426.19 L 2670.86,1411.2 Z " />
<path stroke="none" fill="#000000" transform="matrix(0.05 0 0 0.05 -50 -32)" d="M 2710.37,1455.39 L 2778.35,1406.01 L 2788.46,1423.38 L 2723.77,1470.37 L 2710.37,1455.39 Z " />
<path stroke="none" fill="#000000" transform="matrix(0.05 0 0 0.05 -50 -32)" d="M 2749.88,1499.58 L 2808.16,1457.24 L 2818.27,1474.62 L 2763.28,1514.56 L 2749.88,1499.58 Z " />
<path stroke="none" fill="#000000" transform="matrix(0.05 0 0 0.05 -50 -32)" d="M 2789.39,1543.77 L 2837.97,1508.48 L 2848.08,1525.85 L 2802.79,1558.75 L 2789.39,1543.77 Z " />
<path stroke="none" fill="#000000" transform="matrix(0.05 0 0 0.05 -50 -32)" d="M 2828.9,1587.95 L 2867.78,1559.71 L 2877.89,1577.09 L 2842.3,1602.94 L 2828.9,1587.95 Z " />
<path stroke="none" fill="#000000" transform="matrix(0.05 0 0 0.05 -50 -32)" d="M 2868.41,1632.14 L 2897.59,1610.95 L 2907.7,1628.33 L 2881.81,1647.13 L 2868.41,1632.14 Z " />
<path stroke="none" fill="#000000" transform="matrix(0.05 0 0 0.05 -50 -32)" d="M 2907.92,1676.33 L 2927.39,1662.19 L 2937.5,1679.56 L 2921.32,1691.32 L 2907.92,1676.33 Z " />
<path stroke="none" fill="#000000" transform="matrix(0.05 0 0 0.05 -50 -32)" d="M 3878.07,1187.75 L 3914,1243.8 L 3983.91,1254.29 L 3572.44,1731.43 L 3561.2,1729.2 L 3555.61,1719.2 L 3878.07,1187.75 Z " />
<path stroke="none" fill="#000000" transform="matrix(0.05 0 0 0.05 -50 -32)" d="M 2843.46,691.732 L 2861.74,699.867 L 2615.18,1253.6 L 2608.6,1243.8 L 2607.45,1221.8 L 2843.46,691.732 Z " />
<path stroke="none" fill="#000000" transform="matrix(0.05 0 0 0.05 -50 -32)" d="M 2012.11,1272.59 L 2011.49,1252.6 L 2591.59,1234.33 L 2608.6,1243.8 L 2615.18,1253.6 L 2012.11,1272.59 Z " />
<path stroke="none" fill="#000000" transform="matrix(0.05 0 0 0.05 -50 -32)" d="M 3660.67,699.87 L 3678.93,691.73 L 3915.15,1221.81 L 3914,1243.8 L 3878.07,1187.75 L 3660.67,699.87 Z " />
<path stroke="none" fill="#000000" transform="matrix(0.05 0 0 0.05 -50 -32)" d="M 4510.67,1238 L 4510.53,1258 L 3983.91,1254.29 L 3914,1243.8 L 3931.25,1233.92 L 4510.67,1238 Z " />
<path stroke="none" fill="#000000" transform="matrix(0.05 0 0 0.05 -50 -32)" d="M 2533.09,3466.17 L 2519.71,3481.03 L 2078,3083.49 L 2080.4,3072.2 L 2091.38,3068.63 L 2533.09,3466.17 Z " />
<path stroke="none" fill="#000000" transform="matrix(0.05 0 0 0.05 -50 -32)" d="M 2299.94,729.2 L 2317.26,719.2 L 2607.45,1221.8 L 2608.6,1243.8 L 2591.59,1234.33 L 2299.94,729.2 Z " />
<path stroke="none" fill="#000000" transform="matrix(0.05 0 0 0.05 -50 -32)" d="M 4205.34,719.2 L 4222.66,729.2 L 3931.25,1233.92 L 3914,1243.8 L 3915.15,1221.81 L 4205.34,719.2 Z " />
<path stroke="none" fill="#000000" transform="matrix(0.05 0 0 0.05 -50 -32)" d="M 4628.62,1499.08 L 4648.18,1494.92 L 4771.78,2076.07 L 4763.2,2083.8 L 4752.22,2080.23 L 4628.62,1499.08 Z " />
<path stroke="none" fill="#000000" transform="matrix(0.05 0 0 0.05 -50 -32)" d="M 3149.67,2764.99 A 33.3333,33.3333 0 1 0 3216.33,2764.99A 33.3333,33.3333 0 1 0 3149.67,2764.99Z " />
<path stroke="none" fill="#000000" transform="matrix(0.05 0 0 0.05 -50 -32)" d="M 3299.67,2764.99 A 33.3333,33.3333 0 1 0 3366.33,2764.99A 33.3333,33.3333 0 1 0 3299.67,2764.99Z " />
</svg>
