<?xml version="1.0" standalone="no" ?>
<!DOCTYPE svg PUBLIC "-//W3C//DTD SVG 1.1//EN" "http://www.w3.org/Graphics/SVG/1.1/DTD/svg11.dtd">
<svg width="90px" height="65px" viewBox="0 0 90 65" style="background-color: #ffffff00" xmlns="http://www.w3.org/2000/svg" xmlns:xlink="http://www.w3.org/1999/xlink" version="1.1" >
<text x="0" y="0" stroke="none" fill="#000000" transform="matrix(0.05 0 0 0.05 69.21 22.36)" font-style="normal" font-weight="normal" font-size="160px" font-family="Arial" >
Alkyl</text>
<path stroke="none" fill="#000000" transform="matrix(0.05 0 0 0.05 -168 -14)" d="M 4371.18,750.6 L 4379,756.6 L 4374.64,762.6 L 4151.96,762.6 L 4147.6,756.6 L 4155.42,750.6 L 4371.18,750.6 Z " />
<text x="0" y="0" stroke="none" fill="#000000" transform="matrix(0.05 0 0 0.05 32.9213 37.7052)" font-style="normal" font-weight="normal" font-size="160px" font-family="Arial" >
N</text>
<text x="0" y="0" stroke="none" fill="#000000" transform="matrix(0.05 0 0 0.05 51.6313 37.7052)" font-style="normal" font-weight="normal" font-size="160px" font-family="Arial" >
N</text>
<path stroke="none" fill="#000000" transform="matrix(0.05 0 0 0.05 -168 -14)" d="M 4109.89,892.35 L 4098.48,888.649 L 4139.94,760.763 L 4147.6,756.6 L 4151.96,762.6 L 4109.89,892.35 Z " />
<path stroke="none" fill="#000000" transform="matrix(0.05 0 0 0.05 -168 -14)" d="M 4263.2,1105.19 L 4263.2,1120.01 L 4146.21,1035.05 L 4153.26,1025.34 L 4263.2,1105.19 Z " />
<path stroke="none" fill="#000000" transform="matrix(0.05 0 0 0.05 -168 -14)" d="M 4266.74,1056.34 L 4259.69,1066.05 L 4241.88,1053.12 L 4248.93,1043.41 L 4266.74,1056.34 Z " />
<path stroke="none" fill="#000000" transform="matrix(0.05 0 0 0.05 -168 -14)" d="M 4231.12,1030.48 L 4224.07,1040.19 L 4206.26,1027.26 L 4213.32,1017.55 L 4231.12,1030.48 Z " />
<path stroke="none" fill="#000000" transform="matrix(0.05 0 0 0.05 -168 -14)" d="M 4195.51,1004.62 L 4188.46,1014.33 L 4170.65,1001.39 L 4177.7,991.684 L 4195.51,1004.62 Z " />
<path stroke="none" fill="#000000" transform="matrix(0.05 0 0 0.05 -168 -14)" d="M 4371.9,1026.33 L 4378.95,1036.04 L 4263.2,1120.01 L 4263.2,1105.19 L 4371.9,1026.33 Z " />
<path stroke="none" fill="#000000" transform="matrix(0.05 0 0 0.05 -168 -14)" d="M 4347.46,992.635 L 4354.51,1002.35 L 4325.25,1023.57 L 4318.2,1013.86 L 4347.46,992.635 Z " />
<path stroke="none" fill="#000000" transform="matrix(0.05 0 0 0.05 -168 -14)" d="M 4288.95,1035.08 L 4295.99,1044.8 L 4266.74,1066.02 L 4259.69,1056.31 L 4288.95,1035.08 Z " />
<path stroke="none" fill="#000000" transform="matrix(0.05 0 0 0.05 -168 -14)" d="M 4374.64,762.6 L 4379,756.6 L 4386.66,760.763 L 4428.01,888.305 L 4416.6,892.006 L 4374.64,762.6 Z " />
<path stroke="none" fill="#000000" transform="matrix(0.05 0 0 0.05 -168 -14)" d="M 3861.15,1052.84 L 3856,1048.2 L 3857.44,1041.42 L 3998.82,995.584 L 4002.52,1007 L 3861.15,1052.84 Z " />
<path stroke="none" fill="#000000" transform="matrix(0.05 0 0 0.05 -168 -14)" d="M 4669.16,1041.42 L 4670.6,1048.2 L 4665.45,1052.84 L 4521.82,1006.27 L 4525.52,994.852 L 4669.16,1041.42 Z " />
<path stroke="none" fill="#000000" transform="matrix(0.05 0 0 0.05 -168 -14)" d="M 3682.76,900.176 L 3685.64,886.624 L 3857.44,1041.42 L 3856,1048.2 L 3849.41,1050.34 L 3682.76,900.176 Z " />
<path stroke="none" fill="#000000" transform="matrix(0.05 0 0 0.05 -168 -14)" d="M 3670.17,944.869 L 3678.21,935.954 L 3814.31,1058.59 L 3806.28,1067.51 L 3670.17,944.869 Z " />
<path stroke="none" fill="#000000" transform="matrix(0.05 0 0 0.05 -168 -14)" d="M 3469.35,969.438 L 3459.05,960.162 L 3685.64,886.624 L 3682.76,900.176 L 3469.35,969.438 Z " />
<path stroke="none" fill="#000000" transform="matrix(0.05 0 0 0.05 -168 -14)" d="M 3422.59,1188.86 L 3409.41,1193.14 L 3459.05,960.162 L 3469.35,969.438 L 3422.59,1188.86 Z " />
<path stroke="none" fill="#000000" transform="matrix(0.05 0 0 0.05 -168 -14)" d="M 3467.59,1177.41 L 3455.86,1174.91 L 3494.04,995.728 L 3505.78,998.229 L 3467.59,1177.41 Z " />
<path stroke="none" fill="#000000" transform="matrix(0.05 0 0 0.05 -168 -14)" d="M 3589.24,1339.02 L 3586.36,1352.58 L 3409.41,1193.14 L 3422.59,1188.86 L 3589.24,1339.02 Z " />
<path stroke="none" fill="#000000" transform="matrix(0.05 0 0 0.05 -168 -14)" d="M 3802.85,1269.76 L 3808,1274.4 L 3806.55,1281.18 L 3586.36,1352.58 L 3589.24,1339.02 L 3802.85,1269.76 Z " />
<path stroke="none" fill="#000000" transform="matrix(0.05 0 0 0.05 -168 -14)" d="M 3770.39,1236.48 L 3774.09,1247.9 L 3599.68,1304.45 L 3595.97,1293.04 L 3770.39,1236.48 Z " />
<path stroke="none" fill="#000000" transform="matrix(0.05 0 0 0.05 -168 -14)" d="M 3849.41,1050.34 L 3856,1048.2 L 3861.15,1052.84 L 3814.59,1272.26 L 3808,1274.4 L 3802.85,1269.76 L 3849.41,1050.34 Z " />
<path stroke="none" fill="#000000" transform="matrix(0.05 0 0 0.05 -168 -14)" d="M 4723.75,1269.76 L 4713.45,1279.04 L 4665.45,1052.84 L 4670.6,1048.2 L 4677.19,1050.34 L 4723.75,1269.76 Z " />
<path stroke="none" fill="#000000" transform="matrix(0.05 0 0 0.05 -168 -14)" d="M 4760.19,1240.99 L 4748.45,1243.48 L 4710.43,1064.29 L 4722.17,1061.8 L 4760.19,1240.99 Z " />
<path stroke="none" fill="#000000" transform="matrix(0.05 0 0 0.05 -168 -14)" d="M 4937.16,1339.02 L 4940.04,1352.58 L 4713.45,1279.04 L 4723.75,1269.76 L 4937.16,1339.02 Z " />
<path stroke="none" fill="#000000" transform="matrix(0.05 0 0 0.05 -168 -14)" d="M 5104.01,1188.86 L 5117.19,1193.14 L 4940.04,1352.58 L 4937.16,1339.02 L 5104.01,1188.86 Z " />
<path stroke="none" fill="#000000" transform="matrix(0.05 0 0 0.05 -168 -14)" d="M 5060.83,1171.68 L 5068.86,1180.6 L 4932.61,1303.22 L 4924.59,1294.3 L 5060.83,1171.68 Z " />
<path stroke="none" fill="#000000" transform="matrix(0.05 0 0 0.05 -168 -14)" d="M 5057.25,969.438 L 5067.55,960.162 L 5117.19,1193.14 L 5104.01,1188.86 L 5057.25,969.438 Z " />
<path stroke="none" fill="#000000" transform="matrix(0.05 0 0 0.05 -168 -14)" d="M 4843.84,900.176 L 4842.4,893.4 L 4847.42,888.72 L 5067.55,960.162 L 5057.25,969.438 L 4843.84,900.176 Z " />
<path stroke="none" fill="#000000" transform="matrix(0.05 0 0 0.05 -168 -14)" d="M 4850.56,946.127 L 4854.26,934.713 L 5028.54,991.274 L 5024.84,1002.69 L 4850.56,946.127 Z " />
<path stroke="none" fill="#000000" transform="matrix(0.05 0 0 0.05 -168 -14)" d="M 4677.19,1050.34 L 4670.6,1048.2 L 4669.16,1041.42 L 4835.71,891.354 L 4842.4,893.4 L 4843.84,900.176 L 4677.19,1050.34 Z " />
<text x="0" y="0" stroke="none" fill="#000000" transform="matrix(0.05 0 0 0.05 28.322 60.3352)" font-style="normal" font-weight="normal" font-size="160px" font-family="Arial" >
Alkyl</text>
<path stroke="none" fill="#000000" transform="matrix(0.05 0 0 0.05 -168 -14)" d="M 3935.23,1381.11 L 3927.2,1390.02 L 3806.55,1281.18 L 3808,1274.4 L 3814.59,1272.26 L 3935.23,1381.11 Z " />
<path stroke="none" fill="#000000" transform="matrix(0.05 0 0 0.05 -168 -14)" d="M 4796.38,733.45 L 4808.02,730.55 L 4847.42,888.72 L 4842.4,893.4 L 4835.71,891.354 L 4796.38,733.45 Z " />
<path stroke="none" fill="#000000" transform="matrix(0.05 0 0 0.05 -168 -14)" d="M 4219.87,1166.6 A 13.3333,13.3333 0 1 0 4246.53,1166.6A 13.3333,13.3333 0 1 0 4219.87,1166.6Z " />
<path stroke="none" fill="#000000" transform="matrix(0.05 0 0 0.05 -168 -14)" d="M 4279.87,1166.6 A 13.3333,13.3333 0 1 0 4306.53,1166.6A 13.3333,13.3333 0 1 0 4279.87,1166.6Z " />
<path stroke="none" fill="#000000" transform="matrix(0.05 0 0 0.05 -168 -14)" d="M 4597.7,691.9 L 4607.5,701.7 L 4386.66,760.763 L 4379,756.6 L 4383.25,749.253 L 4597.7,691.9 Z " />
<path stroke="none" fill="#000000" transform="matrix(0.05 0 0 0.05 -168 -14)" d="M 4312.76,532.152 L 4325.64,533.848 L 4383.25,749.253 L 4379,756.6 L 4371.18,750.6 L 4312.76,532.152 Z " />
<path stroke="none" fill="#000000" transform="matrix(0.05 0 0 0.05 -168 -14)" d="M 4429.6,329.602 L 4440,335.598 L 4325.64,533.848 L 4312.76,532.152 L 4429.6,329.602 Z " />
<path stroke="none" fill="#000000" transform="matrix(0.05 0 0 0.05 -168 -14)" d="M 4656.6,471.65 L 4668.2,474.75 L 4607.5,701.7 L 4597.7,691.9 L 4656.6,471.65 Z " />
<path stroke="none" fill="#000000" transform="matrix(0.05 0 0 0.05 -168 -14)" d="M 3919.1,701.7 L 3928.9,691.9 L 4143.35,749.253 L 4147.6,756.6 L 4139.94,760.763 L 3919.1,701.7 Z " />
<path stroke="none" fill="#000000" transform="matrix(0.05 0 0 0.05 -168 -14)" d="M 4200.96,533.848 L 4213.84,532.152 L 4155.42,750.6 L 4147.6,756.6 L 4143.35,749.253 L 4200.96,533.848 Z " />
<path stroke="none" fill="#000000" transform="matrix(0.05 0 0 0.05 -168 -14)" d="M 4086.6,335.598 L 4097,329.602 L 4213.84,532.152 L 4200.96,533.848 L 4086.6,335.598 Z " />
<path stroke="none" fill="#000000" transform="matrix(0.05 0 0 0.05 -168 -14)" d="M 3858.4,474.75 L 3870,471.65 L 3928.9,691.9 L 3919.1,701.7 L 3858.4,474.75 Z " />
</svg>
