<?xml version="1.0" standalone="no" ?>
<!DOCTYPE svg PUBLIC "-//W3C//DTD SVG 1.1//EN" "http://www.w3.org/Graphics/SVG/1.1/DTD/svg11.dtd">
<svg width="129px" height="64px" viewBox="0 0 129 64" style="background-color: #ffffff00" xmlns="http://www.w3.org/2000/svg" xmlns:xlink="http://www.w3.org/1999/xlink" version="1.1" >
<text x="0" y="0" stroke="none" fill="#000000" transform="matrix(0.05 0 0 0.05 88.21 21.36)" font-style="normal" font-weight="normal" font-size="160px" font-family="Arial" >
n-Butyl</text>
<path stroke="none" fill="#000000" transform="matrix(0.05 0 0 0.05 -149 -15)" d="M 4375.58,750.6 L 4379,756.6 L 4374.64,762.6 L 4152.19,762.6 L 4143.01,750.6 L 4375.58,750.6 Z " />
<text x="0" y="0" stroke="none" fill="#000000" transform="matrix(0.05 0 0 0.05 52.4954 36.7052)" font-style="normal" font-weight="normal" font-size="160px" font-family="Arial" >
N</text>
<text x="0" y="0" stroke="none" fill="#000000" transform="matrix(0.05 0 0 0.05 70.6313 36.7052)" font-style="normal" font-weight="normal" font-size="160px" font-family="Arial" >
N</text>
<path stroke="none" fill="#000000" transform="matrix(0.05 0 0 0.05 -149 -15)" d="M 4116.97,892.032 L 4105.39,888.882 L 4143.01,750.6 L 4152.19,762.6 L 4116.97,892.032 Z " />
<path stroke="none" fill="#000000" transform="matrix(0.05 0 0 0.05 -149 -15)" d="M 4263.32,1105.1 L 4263.08,1120.1 L 4156.33,1037.5 L 4163.68,1028.01 L 4263.32,1105.1 Z " />
<path stroke="none" fill="#000000" transform="matrix(0.05 0 0 0.05 -149 -15)" d="M 4267.64,1057.95 L 4260.3,1067.44 L 4233.79,1046.93 L 4241.14,1037.44 L 4267.64,1057.95 Z " />
<path stroke="none" fill="#000000" transform="matrix(0.05 0 0 0.05 -149 -15)" d="M 4214.63,1016.93 L 4207.29,1026.42 L 4180.78,1005.91 L 4188.12,996.42 L 4214.63,1016.93 Z " />
<path stroke="none" fill="#000000" transform="matrix(0.05 0 0 0.05 -149 -15)" d="M 4371.9,1026.33 L 4378.95,1036.04 L 4263.08,1120.1 L 4263.32,1105.1 L 4371.9,1026.33 Z " />
<path stroke="none" fill="#000000" transform="matrix(0.05 0 0 0.05 -149 -15)" d="M 4347.46,992.635 L 4354.51,1002.35 L 4325.51,1023.38 L 4318.47,1013.67 L 4347.46,992.635 Z " />
<path stroke="none" fill="#000000" transform="matrix(0.05 0 0 0.05 -149 -15)" d="M 4289.47,1034.7 L 4296.52,1044.41 L 4267.53,1065.44 L 4260.48,1055.73 L 4289.47,1034.7 Z " />
<path stroke="none" fill="#000000" transform="matrix(0.05 0 0 0.05 -149 -15)" d="M 4374.64,762.6 L 4379,756.6 L 4385.76,758.006 L 4428.01,888.305 L 4416.6,892.006 L 4374.64,762.6 Z " />
<path stroke="none" fill="#000000" transform="matrix(0.05 0 0 0.05 -149 -15)" d="M 3861.14,1052.89 L 3856,1048.2 L 3857.49,1041.46 L 4010.7,994.246 L 4014.23,1005.71 L 3861.14,1052.89 Z " />
<path stroke="none" fill="#000000" transform="matrix(0.05 0 0 0.05 -149 -15)" d="M 4669.16,1041.42 L 4670.6,1048.2 L 4665.45,1052.84 L 4521.82,1006.27 L 4525.52,994.852 L 4669.16,1041.42 Z " />
<path stroke="none" fill="#000000" transform="matrix(0.05 0 0 0.05 -149 -15)" d="M 3682.76,900.176 L 3685.64,886.624 L 3857.49,1041.46 L 3856,1048.2 L 3849.41,1050.34 L 3682.76,900.176 Z " />
<path stroke="none" fill="#000000" transform="matrix(0.05 0 0 0.05 -149 -15)" d="M 3670.17,944.869 L 3678.21,935.954 L 3814.31,1058.59 L 3806.28,1067.51 L 3670.17,944.869 Z " />
<path stroke="none" fill="#000000" transform="matrix(0.05 0 0 0.05 -149 -15)" d="M 3469.35,969.438 L 3459.05,960.162 L 3685.64,886.624 L 3682.76,900.176 L 3469.35,969.438 Z " />
<path stroke="none" fill="#000000" transform="matrix(0.05 0 0 0.05 -149 -15)" d="M 3422.59,1188.86 L 3416,1191 L 3410.85,1186.36 L 3459.05,960.162 L 3469.35,969.438 L 3422.59,1188.86 Z " />
<path stroke="none" fill="#000000" transform="matrix(0.05 0 0 0.05 -149 -15)" d="M 3467.59,1177.41 L 3455.86,1174.91 L 3494.04,995.728 L 3505.78,998.229 L 3467.59,1177.41 Z " />
<path stroke="none" fill="#000000" transform="matrix(0.05 0 0 0.05 -149 -15)" d="M 3589.24,1339.02 L 3586.36,1352.58 L 3414.56,1197.78 L 3416,1191 L 3422.59,1188.86 L 3589.24,1339.02 Z " />
<path stroke="none" fill="#000000" transform="matrix(0.05 0 0 0.05 -149 -15)" d="M 3802.85,1269.76 L 3808,1274.4 L 3806.55,1281.18 L 3586.36,1352.58 L 3589.24,1339.02 L 3802.85,1269.76 Z " />
<path stroke="none" fill="#000000" transform="matrix(0.05 0 0 0.05 -149 -15)" d="M 3770.39,1236.48 L 3774.09,1247.9 L 3599.68,1304.45 L 3595.97,1293.04 L 3770.39,1236.48 Z " />
<path stroke="none" fill="#000000" transform="matrix(0.05 0 0 0.05 -149 -15)" d="M 3849.41,1050.34 L 3856,1048.2 L 3861.14,1052.89 L 3814.59,1272.26 L 3808,1274.4 L 3802.85,1269.76 L 3849.41,1050.34 Z " />
<path stroke="none" fill="#000000" transform="matrix(0.05 0 0 0.05 -149 -15)" d="M 4723.75,1269.76 L 4713.45,1279.04 L 4665.45,1052.84 L 4670.6,1048.2 L 4677.19,1050.34 L 4723.75,1269.76 Z " />
<path stroke="none" fill="#000000" transform="matrix(0.05 0 0 0.05 -149 -15)" d="M 4760.19,1240.99 L 4748.45,1243.48 L 4710.43,1064.29 L 4722.17,1061.8 L 4760.19,1240.99 Z " />
<path stroke="none" fill="#000000" transform="matrix(0.05 0 0 0.05 -149 -15)" d="M 4937.16,1339.02 L 4940.04,1352.58 L 4713.45,1279.04 L 4723.75,1269.76 L 4937.16,1339.02 Z " />
<path stroke="none" fill="#000000" transform="matrix(0.05 0 0 0.05 -149 -15)" d="M 5104.01,1188.86 L 5110.6,1191 L 5112.04,1197.78 L 4940.04,1352.58 L 4937.16,1339.02 L 5104.01,1188.86 Z " />
<path stroke="none" fill="#000000" transform="matrix(0.05 0 0 0.05 -149 -15)" d="M 5060.83,1171.68 L 5068.86,1180.6 L 4932.61,1303.22 L 4924.59,1294.3 L 5060.83,1171.68 Z " />
<path stroke="none" fill="#000000" transform="matrix(0.05 0 0 0.05 -149 -15)" d="M 5057.25,969.438 L 5067.55,960.162 L 5115.75,1186.36 L 5110.6,1191 L 5104.01,1188.86 L 5057.25,969.438 Z " />
<path stroke="none" fill="#000000" transform="matrix(0.05 0 0 0.05 -149 -15)" d="M 4843.84,900.176 L 4842.4,893.4 L 4847.42,888.72 L 5067.55,960.162 L 5057.25,969.438 L 4843.84,900.176 Z " />
<path stroke="none" fill="#000000" transform="matrix(0.05 0 0 0.05 -149 -15)" d="M 4850.56,946.127 L 4854.26,934.713 L 5028.54,991.274 L 5024.84,1002.69 L 4850.56,946.127 Z " />
<path stroke="none" fill="#000000" transform="matrix(0.05 0 0 0.05 -149 -15)" d="M 4677.19,1050.34 L 4670.6,1048.2 L 4669.16,1041.42 L 4835.71,891.354 L 4842.4,893.4 L 4843.84,900.176 L 4677.19,1050.34 Z " />
<path stroke="none" fill="#000000" transform="matrix(0.05 0 0 0.05 -149 -15)" d="M 4003.23,609.352 L 4052,573.885 L 4057.73,584.554 L 4011.61,618.092 L 4003.23,609.352 Z " />
<path stroke="none" fill="#000000" transform="matrix(0.05 0 0 0.05 -149 -15)" d="M 4022.42,629.355 L 4065.11,598.302 L 4070.85,608.971 L 4030.8,638.095 L 4022.42,629.355 Z " />
<path stroke="none" fill="#000000" transform="matrix(0.05 0 0 0.05 -149 -15)" d="M 4041.6,649.358 L 4078.23,622.718 L 4083.97,633.387 L 4049.99,658.098 L 4041.6,649.358 Z " />
<path stroke="none" fill="#000000" transform="matrix(0.05 0 0 0.05 -149 -15)" d="M 4060.79,669.361 L 4091.35,647.134 L 4097.08,657.803 L 4069.17,678.101 L 4060.79,669.361 Z " />
<path stroke="none" fill="#000000" transform="matrix(0.05 0 0 0.05 -149 -15)" d="M 4079.98,689.364 L 4104.47,671.55 L 4110.2,682.219 L 4088.36,698.104 L 4079.98,689.364 Z " />
<path stroke="none" fill="#000000" transform="matrix(0.05 0 0 0.05 -149 -15)" d="M 4099.16,709.367 L 4117.59,695.967 L 4123.32,706.636 L 4107.55,718.107 L 4099.16,709.367 Z " />
<path stroke="none" fill="#000000" transform="matrix(0.05 0 0 0.05 -149 -15)" d="M 4118.35,729.369 L 4130.71,720.383 L 4136.44,731.052 L 4126.73,738.11 L 4118.35,729.369 Z " />
<path stroke="none" fill="#000000" transform="matrix(0.05 0 0 0.05 -149 -15)" d="M 4496.22,542.191 L 4515,569.6 L 4549.75,575.811 L 4385.76,758.006 L 4379,756.6 L 4375.58,750.6 L 4496.22,542.191 Z " />
<path stroke="none" fill="#000000" transform="matrix(0.05 0 0 0.05 -149 -15)" d="M 4100.12,355.762 L 4111.08,360.638 L 4015.55,575.479 L 4011.6,569.6 L 4010.53,557.245 L 4100.12,355.762 Z " />
<path stroke="none" fill="#000000" transform="matrix(0.05 0 0 0.05 -149 -15)" d="M 3781.79,582.797 L 3781.41,570.803 L 4000.57,563.942 L 4011.6,569.6 L 4015.55,575.479 L 3781.79,582.797 Z " />
<path stroke="none" fill="#000000" transform="matrix(0.05 0 0 0.05 -149 -15)" d="M 4415.32,360.642 L 4426.28,355.758 L 4516,557.106 L 4515,569.6 L 4496.22,542.191 L 4415.32,360.642 Z " />
<path stroke="none" fill="#000000" transform="matrix(0.05 0 0 0.05 -149 -15)" d="M 4745.04,565 L 4744.96,577 L 4549.75,575.811 L 4515,569.6 L 4526.05,563.667 L 4745.04,565 Z " />
<text x="0" y="0" stroke="none" fill="#000000" transform="matrix(0.05 0 0 0.05 47.7654 59.3352)" font-style="normal" font-weight="normal" font-size="160px" font-family="Arial" >
n-Butyl</text>
<path stroke="none" fill="#000000" transform="matrix(0.05 0 0 0.05 -149 -15)" d="M 3936,1381.81 L 3927.97,1390.72 L 3806.55,1281.18 L 3808,1274.4 L 3814.59,1272.26 L 3936,1381.81 Z " />
<path stroke="none" fill="#000000" transform="matrix(0.05 0 0 0.05 -149 -15)" d="M 4796.38,733.45 L 4808.02,730.55 L 4847.42,888.72 L 4842.4,893.4 L 4835.71,891.354 L 4796.38,733.45 Z " />
<path stroke="none" fill="#000000" transform="matrix(0.05 0 0 0.05 -149 -15)" d="M 4219.87,1166.6 A 13.3333,13.3333 0 1 0 4246.53,1166.6A 13.3333,13.3333 0 1 0 4219.87,1166.6Z " />
<path stroke="none" fill="#000000" transform="matrix(0.05 0 0 0.05 -149 -15)" d="M 4279.87,1166.6 A 13.3333,13.3333 0 1 0 4306.53,1166.6A 13.3333,13.3333 0 1 0 4279.87,1166.6Z " />
<text x="0" y="0" stroke="none" fill="#000000" transform="matrix(0.05 0 0 0.05 1.67867 50.9852)" font-style="normal" font-weight="normal" font-size="160px" font-family="Arial" >
[N]</text>
<path stroke="none" fill="#000000" transform="matrix(0.05 0 0 0.05 -149 -15)" d="M 3238.19,1254.96 L 3234.49,1243.55 L 3410.85,1186.36 L 3416,1191 L 3414.56,1197.78 L 3238.19,1254.96 Z " />
<text x="0" y="0" stroke="none" fill="#000000" transform="matrix(0.05 0 0 0.05 116.419 50.9852)" font-style="normal" font-weight="normal" font-size="160px" font-family="Arial" >
[N]</text>
<path stroke="none" fill="#000000" transform="matrix(0.05 0 0 0.05 -149 -15)" d="M 5291.24,1243.32 L 5287.54,1254.73 L 5112.04,1197.78 L 5110.6,1191 L 5115.75,1186.36 L 5291.24,1243.32 Z " />
<path stroke="none" fill="#000000" transform="matrix(0.05 0 0 0.05 -149 -15)" d="M 3877.62,380.946 L 3887.58,374.254 L 4010.53,557.245 L 4011.6,569.6 L 4000.57,563.942 L 3877.62,380.946 Z " />
<path stroke="none" fill="#000000" transform="matrix(0.05 0 0 0.05 -149 -15)" d="M 4636.58,372.716 L 4646.62,379.283 L 4526.05,563.667 L 4515,569.6 L 4516,557.106 L 4636.58,372.716 Z " />
</svg>
