<?xml version="1.0" standalone="no" ?>
<!DOCTYPE svg PUBLIC "-//W3C//DTD SVG 1.1//EN" "http://www.w3.org/Graphics/SVG/1.1/DTD/svg11.dtd">
<svg width="325px" height="156px" viewBox="0 0 325 156" style="background-color: #ffffff00" xmlns="http://www.w3.org/2000/svg" xmlns:xlink="http://www.w3.org/1999/xlink" version="1.1" >
<text x="0" y="0" stroke="none" fill="#000000" transform="matrix(0.05 0 0 0.05 224.68 50.55)" font-style="normal" font-weight="normal" font-size="400px" font-family="Helvetica" >
n-Butyl</text>
<path stroke="none" fill="#000000" transform="matrix(0.05 0 0 0.05 -58 -39)" d="M 4700.41,1857.4 L 4706,1867.4 L 4698.73,1877.4 L 4113.27,1877.4 L 4098.73,1857.4 L 4700.41,1857.4 Z " />
<text x="0" y="0" stroke="none" fill="#000000" transform="matrix(0.05 0 0 0.05 130.808 90.0728)" font-style="normal" font-weight="normal" font-size="400px" font-family="Helvetica" >
N</text>
<text x="0" y="0" stroke="none" fill="#000000" transform="matrix(0.05 0 0 0.05 179.348 90.0728)" font-style="normal" font-weight="normal" font-size="400px" font-family="Helvetica" >
N</text>
<path stroke="none" fill="#000000" transform="matrix(0.05 0 0 0.05 -58 -39)" d="M 3994.38,2243.28 L 3975.36,2237.1 L 4098.73,1857.4 L 4113.27,1877.4 L 3994.38,2243.28 Z " />
<path stroke="none" fill="#000000" transform="matrix(0.05 0 0 0.05 -58 -39)" d="M 4406,2778.44 L 4406,2803.16 L 4089.49,2573.11 L 4101.24,2556.93 L 4406,2778.44 Z " />
<path stroke="none" fill="#000000" transform="matrix(0.05 0 0 0.05 -58 -39)" d="M 4411.88,2693.69 L 4400.12,2709.87 L 4361.79,2682.01 L 4373.55,2665.83 L 4411.88,2693.69 Z " />
<path stroke="none" fill="#000000" transform="matrix(0.05 0 0 0.05 -58 -39)" d="M 4335.22,2637.98 L 4323.46,2654.15 L 4285.14,2626.3 L 4296.89,2610.12 L 4335.22,2637.98 Z " />
<path stroke="none" fill="#000000" transform="matrix(0.05 0 0 0.05 -58 -39)" d="M 4258.57,2582.26 L 4246.81,2598.44 L 4208.48,2570.58 L 4220.24,2554.4 L 4258.57,2582.26 Z " />
<path stroke="none" fill="#000000" transform="matrix(0.05 0 0 0.05 -58 -39)" d="M 4181.91,2526.54 L 4170.15,2542.72 L 4131.82,2514.86 L 4143.58,2498.69 L 4181.91,2526.54 Z " />
<path stroke="none" fill="#000000" transform="matrix(0.05 0 0 0.05 -58 -39)" d="M 4710.8,2556.9 L 4722.56,2573.08 L 4406,2803.16 L 4406,2778.44 L 4710.8,2556.9 Z " />
<path stroke="none" fill="#000000" transform="matrix(0.05 0 0 0.05 -58 -39)" d="M 4668.47,2498.65 L 4680.22,2514.83 L 4641.89,2542.69 L 4630.13,2526.52 L 4668.47,2498.65 Z " />
<path stroke="none" fill="#000000" transform="matrix(0.05 0 0 0.05 -58 -39)" d="M 4591.8,2554.38 L 4603.55,2570.56 L 4565.22,2598.42 L 4553.46,2582.24 L 4591.8,2554.38 Z " />
<path stroke="none" fill="#000000" transform="matrix(0.05 0 0 0.05 -58 -39)" d="M 4515.13,2610.1 L 4526.88,2626.28 L 4488.55,2654.14 L 4476.79,2637.97 L 4515.13,2610.1 Z " />
<path stroke="none" fill="#000000" transform="matrix(0.05 0 0 0.05 -58 -39)" d="M 4438.46,2665.83 L 4450.21,2682.01 L 4411.88,2709.87 L 4400.12,2693.69 L 4438.46,2665.83 Z " />
<path stroke="none" fill="#000000" transform="matrix(0.05 0 0 0.05 -58 -39)" d="M 4698.73,1877.4 L 4706,1867.4 L 4717.24,1869.63 L 4836.64,2237.12 L 4817.62,2243.3 L 4698.73,1877.4 Z " />
<path stroke="none" fill="#000000" transform="matrix(0.05 0 0 0.05 -58 -39)" d="M 3358.58,2631.13 L 3350,2623.4 L 3352.4,2612.11 L 3750.07,2482.89 L 3756.25,2501.92 L 3358.58,2631.13 Z " />
<path stroke="none" fill="#000000" transform="matrix(0.05 0 0 0.05 -58 -39)" d="M 5459.6,2612.11 L 5462,2623.4 L 5453.42,2631.13 L 5055.81,2501.94 L 5061.99,2482.91 L 5459.6,2612.11 Z " />
<path stroke="none" fill="#000000" transform="matrix(0.05 0 0 0.05 -58 -39)" d="M 2901.6,2233.29 L 2906.4,2210.71 L 3352.4,2612.11 L 3350,2623.4 L 3339.02,2626.97 L 2901.6,2233.29 Z " />
<path stroke="none" fill="#000000" transform="matrix(0.05 0 0 0.05 -58 -39)" d="M 2880.03,2310.76 L 2893.41,2295.89 L 3277.61,2641.67 L 3264.23,2656.53 L 2880.03,2310.76 Z " />
<path stroke="none" fill="#000000" transform="matrix(0.05 0 0 0.05 -58 -39)" d="M 2341.98,2415.13 L 2324.82,2399.67 L 2906.4,2210.71 L 2901.6,2233.29 L 2341.98,2415.13 Z " />
<path stroke="none" fill="#000000" transform="matrix(0.05 0 0 0.05 -58 -39)" d="M 2219.58,2990.63 L 2208.6,2994.2 L 2200.02,2986.47 L 2324.82,2399.67 L 2341.98,2415.13 L 2219.58,2990.63 Z " />
<path stroke="none" fill="#000000" transform="matrix(0.05 0 0 0.05 -58 -39)" d="M 2297.44,2970.6 L 2277.88,2966.44 L 2385.39,2460.94 L 2404.95,2465.11 L 2297.44,2970.6 Z " />
<path stroke="none" fill="#000000" transform="matrix(0.05 0 0 0.05 -58 -39)" d="M 2657,3384.51 L 2652.2,3407.09 L 2206.2,3005.49 L 2208.6,2994.2 L 2219.58,2990.63 L 2657,3384.51 Z " />
<path stroke="none" fill="#000000" transform="matrix(0.05 0 0 0.05 -58 -39)" d="M 3216.62,3202.67 L 3225.2,3210.4 L 3222.8,3221.69 L 2652.2,3407.09 L 2657,3384.51 L 3216.62,3202.67 Z " />
<path stroke="none" fill="#000000" transform="matrix(0.05 0 0 0.05 -58 -39)" d="M 3160.33,3145.26 L 3166.51,3164.28 L 2674.98,3323.99 L 2668.8,3304.97 L 3160.33,3145.26 Z " />
<path stroke="none" fill="#000000" transform="matrix(0.05 0 0 0.05 -58 -39)" d="M 3339.02,2626.97 L 3350,2623.4 L 3358.58,2631.13 L 3236.18,3206.83 L 3225.2,3210.4 L 3216.62,3202.67 L 3339.02,2626.97 Z " />
<path stroke="none" fill="#000000" transform="matrix(0.05 0 0 0.05 -58 -39)" d="M 5595.38,3202.67 L 5578.22,3218.13 L 5453.42,2631.13 L 5462,2623.4 L 5472.98,2626.97 L 5595.38,3202.67 Z " />
<path stroke="none" fill="#000000" transform="matrix(0.05 0 0 0.05 -58 -39)" d="M 5658.38,3152.68 L 5638.81,3156.84 L 5531.31,2651.18 L 5550.87,2647.03 L 5658.38,3152.68 Z " />
<path stroke="none" fill="#000000" transform="matrix(0.05 0 0 0.05 -58 -39)" d="M 6155,3384.51 L 6159.8,3407.09 L 5578.22,3218.13 L 5595.38,3202.67 L 6155,3384.51 Z " />
<path stroke="none" fill="#000000" transform="matrix(0.05 0 0 0.05 -58 -39)" d="M 6592.42,2990.63 L 6603.4,2994.2 L 6605.8,3005.49 L 6159.8,3407.09 L 6155,3384.51 L 6592.42,2990.63 Z " />
<path stroke="none" fill="#000000" transform="matrix(0.05 0 0 0.05 -58 -39)" d="M 6517.61,2961.08 L 6531,2975.94 L 6146.8,3321.89 L 6133.42,3307.02 L 6517.61,2961.08 Z " />
<path stroke="none" fill="#000000" transform="matrix(0.05 0 0 0.05 -58 -39)" d="M 6470.02,2415.13 L 6487.18,2399.67 L 6611.98,2986.47 L 6603.4,2994.2 L 6592.42,2990.63 L 6470.02,2415.13 Z " />
<path stroke="none" fill="#000000" transform="matrix(0.05 0 0 0.05 -58 -39)" d="M 5910.4,2233.29 L 5908,2222 L 5916.36,2214.2 L 6487.18,2399.67 L 6470.02,2415.13 L 5910.4,2233.29 Z " />
<path stroke="none" fill="#000000" transform="matrix(0.05 0 0 0.05 -58 -39)" d="M 5922.18,2312.82 L 5928.36,2293.8 L 6419.92,2453.52 L 6413.73,2472.54 L 5922.18,2312.82 Z " />
<path stroke="none" fill="#000000" transform="matrix(0.05 0 0 0.05 -58 -39)" d="M 5472.98,2626.97 L 5462,2623.4 L 5459.6,2612.11 L 5896.84,2218.59 L 5908,2222 L 5910.4,2233.29 L 5472.98,2626.97 Z " />
<path stroke="none" fill="#000000" transform="matrix(0.05 0 0 0.05 -58 -39)" d="M 3736.64,1461.02 L 3833.73,1390.5 L 3843.84,1407.87 L 3750.04,1476.01 L 3736.64,1461.02 Z " />
<path stroke="none" fill="#000000" transform="matrix(0.05 0 0 0.05 -58 -39)" d="M 3776.15,1505.21 L 3863.54,1441.73 L 3873.65,1459.11 L 3789.55,1520.2 L 3776.15,1505.21 Z " />
<path stroke="none" fill="#000000" transform="matrix(0.05 0 0 0.05 -58 -39)" d="M 3815.66,1549.4 L 3893.35,1492.97 L 3903.46,1510.35 L 3829.06,1564.39 L 3815.66,1549.4 Z " />
<path stroke="none" fill="#000000" transform="matrix(0.05 0 0 0.05 -58 -39)" d="M 3855.17,1593.59 L 3923.15,1544.21 L 3933.26,1561.58 L 3868.57,1608.57 L 3855.17,1593.59 Z " />
<path stroke="none" fill="#000000" transform="matrix(0.05 0 0 0.05 -58 -39)" d="M 3894.68,1637.78 L 3952.96,1595.44 L 3963.07,1612.82 L 3908.08,1652.76 L 3894.68,1637.78 Z " />
<path stroke="none" fill="#000000" transform="matrix(0.05 0 0 0.05 -58 -39)" d="M 3934.19,1681.97 L 3982.77,1646.68 L 3992.88,1664.05 L 3947.59,1696.95 L 3934.19,1681.97 Z " />
<path stroke="none" fill="#000000" transform="matrix(0.05 0 0 0.05 -58 -39)" d="M 3973.7,1726.15 L 4012.58,1697.91 L 4022.69,1715.29 L 3987.1,1741.14 L 3973.7,1726.15 Z " />
<path stroke="none" fill="#000000" transform="matrix(0.05 0 0 0.05 -58 -39)" d="M 4013.21,1770.34 L 4042.39,1749.15 L 4052.5,1766.53 L 4026.61,1785.33 L 4013.21,1770.34 Z " />
<path stroke="none" fill="#000000" transform="matrix(0.05 0 0 0.05 -58 -39)" d="M 4052.72,1814.53 L 4072.19,1800.39 L 4082.3,1817.76 L 4066.12,1829.52 L 4052.72,1814.53 Z " />
<path stroke="none" fill="#000000" transform="matrix(0.05 0 0 0.05 -58 -39)" d="M 5022.69,1325.91 L 5058.6,1382 L 5128.49,1392.49 L 4717.24,1869.63 L 4706,1867.4 L 4700.41,1857.4 L 5022.69,1325.91 Z " />
<path stroke="none" fill="#000000" transform="matrix(0.05 0 0 0.05 -58 -39)" d="M 3988.26,829.733 L 4006.54,837.866 L 3759.98,1391.8 L 3753.4,1382 L 3752.25,1360 L 3988.26,829.733 Z " />
<path stroke="none" fill="#000000" transform="matrix(0.05 0 0 0.05 -58 -39)" d="M 3156.91,1410.79 L 3156.28,1390.8 L 3736.39,1372.53 L 3753.4,1382 L 3759.98,1391.8 L 3156.91,1410.79 Z " />
<path stroke="none" fill="#000000" transform="matrix(0.05 0 0 0.05 -58 -39)" d="M 4805.46,837.866 L 4823.74,829.733 L 5059.75,1360 L 5058.6,1382 L 5022.69,1325.91 L 4805.46,837.866 Z " />
<path stroke="none" fill="#000000" transform="matrix(0.05 0 0 0.05 -58 -39)" d="M 5655.47,1376.2 L 5655.33,1396.2 L 5128.49,1392.49 L 5058.6,1382 L 5075.85,1372.12 L 5655.47,1376.2 Z " />
<text x="0" y="0" stroke="none" fill="#000000" transform="matrix(0.05 0 0 0.05 119.988 148.763)" font-style="normal" font-weight="normal" font-size="400px" font-family="Helvetica" >
n-Butyl</text>
<path stroke="none" fill="#000000" transform="matrix(0.05 0 0 0.05 -58 -39)" d="M 3567.18,3504.86 L 3553.79,3519.72 L 3222.8,3221.69 L 3225.2,3210.4 L 3236.18,3206.83 L 3567.18,3504.86 Z " />
<path stroke="none" fill="#000000" transform="matrix(0.05 0 0 0.05 -58 -39)" d="M 5793.7,1806.63 L 5813.1,1801.77 L 5916.36,2214.2 L 5908,2222 L 5896.84,2218.59 L 5793.7,1806.63 Z " />
<path stroke="none" fill="#000000" transform="matrix(0.05 0 0 0.05 -58 -39)" d="M 3444.74,867.4 L 3462.06,857.4 L 3752.25,1360 L 3753.4,1382 L 3736.39,1372.53 L 3444.74,867.4 Z " />
<path stroke="none" fill="#000000" transform="matrix(0.05 0 0 0.05 -58 -39)" d="M 5349.94,857.4 L 5367.26,867.4 L 5075.85,1372.12 L 5058.6,1382 L 5059.75,1360 L 5349.94,857.4 Z " />
<text x="0" y="0" stroke="none" fill="#000000" transform="matrix(0.05 0 0 0.05 297.922 127.153)" font-style="normal" font-weight="normal" font-size="400px" font-family="Helvetica" >
[N]</text>
<path stroke="none" fill="#000000" transform="matrix(0.05 0 0 0.05 -58 -39)" d="M 7092.15,3142.49 L 7085.97,3161.51 L 6605.8,3005.49 L 6603.4,2994.2 L 6611.98,2986.47 L 7092.15,3142.49 Z " />
<text x="0" y="0" stroke="none" fill="#000000" transform="matrix(0.05 0 0 0.05 1.12167 127.153)" font-style="normal" font-weight="normal" font-size="400px" font-family="Helvetica" >
[N]</text>
<path stroke="none" fill="#000000" transform="matrix(0.05 0 0 0.05 -58 -39)" d="M 1722.91,3162.53 L 1716.73,3143.51 L 2200.02,2986.47 L 2208.6,2994.2 L 2206.2,3005.49 L 1722.91,3162.53 Z " />
<path stroke="none" fill="#000000" transform="matrix(0.05 0 0 0.05 -58 -39)" d="M 4294.47,2904.2 A 33.3333,33.3333 0 1 0 4361.13,2904.2A 33.3333,33.3333 0 1 0 4294.47,2904.2Z " />
<path stroke="none" fill="#000000" transform="matrix(0.05 0 0 0.05 -58 -39)" d="M 4444.47,2904.2 A 33.3333,33.3333 0 1 0 4511.13,2904.2A 33.3333,33.3333 0 1 0 4444.47,2904.2Z " />
</svg>
