<?xml version="1.0" standalone="no" ?>
<!DOCTYPE svg PUBLIC "-//W3C//DTD SVG 1.1//EN" "http://www.w3.org/Graphics/SVG/1.1/DTD/svg11.dtd">
<svg width="90px" height="65px" viewBox="0 0 90 65" style="background-color: #ffffff00" xmlns="http://www.w3.org/2000/svg" xmlns:xlink="http://www.w3.org/1999/xlink" version="1.1" >
<text x="0" y="0" stroke="none" fill="#000000" transform="matrix(0.05 0 0 0.05 69.21 22.36)" font-style="normal" font-weight="normal" font-size="160px" font-family="Arial" >
Alkyl</text>
<path stroke="none" fill="#000000" transform="matrix(0.05 0 0 0.05 -168 -14)" d="M 4371.18,750.6 L 4379,756.6 L 4374.64,762.6 L 4152.24,762.6 L 4147.6,756.6 L 4155.42,750.6 L 4371.18,750.6 Z " />
<text x="0" y="0" stroke="none" fill="#000000" transform="matrix(0.05 0 0 0.05 33.6193 37.7052)" font-style="normal" font-weight="normal" font-size="160px" font-family="Arial" >
N</text>
<text x="0" y="0" stroke="none" fill="#000000" transform="matrix(0.05 0 0 0.05 51.6313 37.7052)" font-style="normal" font-weight="normal" font-size="160px" font-family="Arial" >
N</text>
<path stroke="none" fill="#000000" transform="matrix(0.05 0 0 0.05 -168 -14)" d="M 4118.41,892.257 L 4106.8,889.228 L 4140.29,760.855 L 4147.6,756.6 L 4152.24,762.6 L 4118.41,892.257 Z " />
<path stroke="none" fill="#000000" transform="matrix(0.05 0 0 0.05 -168 -14)" d="M 4263.34,1105.08 L 4263.06,1120.12 L 4158.49,1038.05 L 4165.9,1028.61 L 4263.34,1105.08 Z " />
<path stroke="none" fill="#000000" transform="matrix(0.05 0 0 0.05 -168 -14)" d="M 4267.84,1058.29 L 4260.43,1067.73 L 4234.6,1047.45 L 4242.01,1038.01 L 4267.84,1058.29 Z " />
<path stroke="none" fill="#000000" transform="matrix(0.05 0 0 0.05 -168 -14)" d="M 4216.17,1017.74 L 4208.77,1027.18 L 4182.93,1006.9 L 4190.34,997.463 L 4216.17,1017.74 Z " />
<path stroke="none" fill="#000000" transform="matrix(0.05 0 0 0.05 -168 -14)" d="M 4371.9,1026.33 L 4378.95,1036.04 L 4263.06,1120.12 L 4263.34,1105.08 L 4371.9,1026.33 Z " />
<path stroke="none" fill="#000000" transform="matrix(0.05 0 0 0.05 -168 -14)" d="M 4347.46,992.635 L 4354.51,1002.35 L 4325.57,1023.34 L 4318.53,1013.62 L 4347.46,992.635 Z " />
<path stroke="none" fill="#000000" transform="matrix(0.05 0 0 0.05 -168 -14)" d="M 4289.59,1034.61 L 4296.64,1044.32 L 4267.71,1065.31 L 4260.66,1055.6 L 4289.59,1034.61 Z " />
<path stroke="none" fill="#000000" transform="matrix(0.05 0 0 0.05 -168 -14)" d="M 4374.64,762.6 L 4379,756.6 L 4386.66,760.763 L 4428.01,888.305 L 4416.6,892.006 L 4374.64,762.6 Z " />
<path stroke="none" fill="#000000" transform="matrix(0.05 0 0 0.05 -168 -14)" d="M 3861.13,1052.91 L 3856,1048.2 L 3857.5,1041.47 L 4013.2,993.993 L 4016.7,1005.47 L 3861.13,1052.91 Z " />
<path stroke="none" fill="#000000" transform="matrix(0.05 0 0 0.05 -168 -14)" d="M 4669.16,1041.42 L 4670.6,1048.2 L 4665.45,1052.84 L 4521.82,1006.27 L 4525.52,994.852 L 4669.16,1041.42 Z " />
<path stroke="none" fill="#000000" transform="matrix(0.05 0 0 0.05 -168 -14)" d="M 3682.76,900.176 L 3685.64,886.624 L 3857.5,1041.47 L 3856,1048.2 L 3849.41,1050.34 L 3682.76,900.176 Z " />
<path stroke="none" fill="#000000" transform="matrix(0.05 0 0 0.05 -168 -14)" d="M 3670.17,944.869 L 3678.21,935.954 L 3814.31,1058.59 L 3806.28,1067.51 L 3670.17,944.869 Z " />
<path stroke="none" fill="#000000" transform="matrix(0.05 0 0 0.05 -168 -14)" d="M 3469.35,969.438 L 3459.05,960.162 L 3685.64,886.624 L 3682.76,900.176 L 3469.35,969.438 Z " />
<path stroke="none" fill="#000000" transform="matrix(0.05 0 0 0.05 -168 -14)" d="M 3422.59,1188.86 L 3409.41,1193.14 L 3459.05,960.162 L 3469.35,969.438 L 3422.59,1188.86 Z " />
<path stroke="none" fill="#000000" transform="matrix(0.05 0 0 0.05 -168 -14)" d="M 3467.59,1177.41 L 3455.86,1174.91 L 3494.04,995.728 L 3505.78,998.229 L 3467.59,1177.41 Z " />
<path stroke="none" fill="#000000" transform="matrix(0.05 0 0 0.05 -168 -14)" d="M 3589.24,1339.02 L 3586.36,1352.58 L 3409.41,1193.14 L 3422.59,1188.86 L 3589.24,1339.02 Z " />
<path stroke="none" fill="#000000" transform="matrix(0.05 0 0 0.05 -168 -14)" d="M 3802.85,1269.76 L 3808,1274.4 L 3806.55,1281.18 L 3586.36,1352.58 L 3589.24,1339.02 L 3802.85,1269.76 Z " />
<path stroke="none" fill="#000000" transform="matrix(0.05 0 0 0.05 -168 -14)" d="M 3770.39,1236.48 L 3774.09,1247.9 L 3599.68,1304.45 L 3595.97,1293.04 L 3770.39,1236.48 Z " />
<path stroke="none" fill="#000000" transform="matrix(0.05 0 0 0.05 -168 -14)" d="M 3849.41,1050.34 L 3856,1048.2 L 3861.13,1052.91 L 3814.59,1272.26 L 3808,1274.4 L 3802.85,1269.76 L 3849.41,1050.34 Z " />
<path stroke="none" fill="#000000" transform="matrix(0.05 0 0 0.05 -168 -14)" d="M 4723.75,1269.76 L 4713.45,1279.04 L 4665.45,1052.84 L 4670.6,1048.2 L 4677.19,1050.34 L 4723.75,1269.76 Z " />
<path stroke="none" fill="#000000" transform="matrix(0.05 0 0 0.05 -168 -14)" d="M 4760.19,1240.99 L 4748.45,1243.48 L 4710.43,1064.29 L 4722.17,1061.8 L 4760.19,1240.99 Z " />
<path stroke="none" fill="#000000" transform="matrix(0.05 0 0 0.05 -168 -14)" d="M 4937.16,1339.02 L 4940.04,1352.58 L 4713.45,1279.04 L 4723.75,1269.76 L 4937.16,1339.02 Z " />
<path stroke="none" fill="#000000" transform="matrix(0.05 0 0 0.05 -168 -14)" d="M 5104.01,1188.86 L 5117.19,1193.14 L 4940.04,1352.58 L 4937.16,1339.02 L 5104.01,1188.86 Z " />
<path stroke="none" fill="#000000" transform="matrix(0.05 0 0 0.05 -168 -14)" d="M 5060.83,1171.68 L 5068.86,1180.6 L 4932.61,1303.22 L 4924.59,1294.3 L 5060.83,1171.68 Z " />
<path stroke="none" fill="#000000" transform="matrix(0.05 0 0 0.05 -168 -14)" d="M 5057.25,969.438 L 5067.55,960.162 L 5117.19,1193.14 L 5104.01,1188.86 L 5057.25,969.438 Z " />
<path stroke="none" fill="#000000" transform="matrix(0.05 0 0 0.05 -168 -14)" d="M 4843.84,900.176 L 4842.4,893.4 L 4847.42,888.72 L 5067.55,960.162 L 5057.25,969.438 L 4843.84,900.176 Z " />
<path stroke="none" fill="#000000" transform="matrix(0.05 0 0 0.05 -168 -14)" d="M 4850.56,946.127 L 4854.26,934.713 L 5028.54,991.274 L 5024.84,1002.69 L 4850.56,946.127 Z " />
<path stroke="none" fill="#000000" transform="matrix(0.05 0 0 0.05 -168 -14)" d="M 4677.19,1050.34 L 4670.6,1048.2 L 4669.16,1041.42 L 4835.71,891.354 L 4842.4,893.4 L 4843.84,900.176 L 4677.19,1050.34 Z " />
<text x="0" y="0" stroke="none" fill="#000000" transform="matrix(0.05 0 0 0.05 28.322 60.3352)" font-style="normal" font-weight="normal" font-size="160px" font-family="Arial" >
Alkyl</text>
<path stroke="none" fill="#000000" transform="matrix(0.05 0 0 0.05 -168 -14)" d="M 3935.23,1381.11 L 3927.2,1390.02 L 3806.55,1281.18 L 3808,1274.4 L 3814.59,1272.26 L 3935.23,1381.11 Z " />
<path stroke="none" fill="#000000" transform="matrix(0.05 0 0 0.05 -168 -14)" d="M 4796.38,733.45 L 4808.02,730.55 L 4847.42,888.72 L 4842.4,893.4 L 4835.71,891.354 L 4796.38,733.45 Z " />
<path stroke="none" fill="#000000" transform="matrix(0.05 0 0 0.05 -168 -14)" d="M 4219.87,1166.6 A 13.3333,13.3333 0 1 0 4246.53,1166.6A 13.3333,13.3333 0 1 0 4219.87,1166.6Z " />
<path stroke="none" fill="#000000" transform="matrix(0.05 0 0 0.05 -168 -14)" d="M 4279.87,1166.6 A 13.3333,13.3333 0 1 0 4306.53,1166.6A 13.3333,13.3333 0 1 0 4279.87,1166.6Z " />
<path stroke="none" fill="#000000" transform="matrix(0.05 0 0 0.05 -168 -14)" d="M 4597.7,691.9 L 4607.5,701.7 L 4386.66,760.763 L 4379,756.6 L 4383.25,749.253 L 4597.7,691.9 Z " />
<path stroke="none" fill="#000000" transform="matrix(0.05 0 0 0.05 -168 -14)" d="M 4312.76,532.152 L 4325.64,533.848 L 4383.25,749.253 L 4379,756.6 L 4371.18,750.6 L 4312.76,532.152 Z " />
<path stroke="none" fill="#000000" transform="matrix(0.05 0 0 0.05 -168 -14)" d="M 4429.6,329.602 L 4440,335.598 L 4325.64,533.848 L 4312.76,532.152 L 4429.6,329.602 Z " />
<path stroke="none" fill="#000000" transform="matrix(0.05 0 0 0.05 -168 -14)" d="M 4656.6,471.65 L 4668.2,474.75 L 4607.5,701.7 L 4597.7,691.9 L 4656.6,471.65 Z " />
<path stroke="none" fill="#000000" transform="matrix(0.05 0 0 0.05 -168 -14)" d="M 3919.1,701.7 L 3928.9,691.9 L 4143.35,749.253 L 4147.6,756.6 L 4140.29,760.855 L 3919.1,701.7 Z " />
<path stroke="none" fill="#000000" transform="matrix(0.05 0 0 0.05 -168 -14)" d="M 4200.96,533.848 L 4213.84,532.152 L 4155.42,750.6 L 4147.6,756.6 L 4143.35,749.253 L 4200.96,533.848 Z " />
<path stroke="none" fill="#000000" transform="matrix(0.05 0 0 0.05 -168 -14)" d="M 4086.6,335.598 L 4097,329.602 L 4213.84,532.152 L 4200.96,533.848 L 4086.6,335.598 Z " />
<path stroke="none" fill="#000000" transform="matrix(0.05 0 0 0.05 -168 -14)" d="M 3858.4,474.75 L 3870,471.65 L 3928.9,691.9 L 3919.1,701.7 L 3858.4,474.75 Z " />
</svg>
